<?xml version="1.0" encoding="utf-8"?>
<!-- Generator: Adobe Illustrator 22.0.1, SVG Export Plug-In . SVG Version: 6.00 Build 0)  -->
<svg version="1.1" id="Layer_1" xmlns="http://www.w3.org/2000/svg" xmlns:xlink="http://www.w3.org/1999/xlink" x="0px" y="0px"
	 viewBox="0 0 841.9 595.3" style="enable-background:new 0 0 841.9 595.3;" xml:space="preserve">
<style type="text/css">
	.st0{fill:#272525;}
	.st1{fill:#62B9C4;}
	.st2{fill:#434244;}
	.st3{fill:#FFFFFF;}
	.st4{font-family:'COCOGOOSE-DemiBold';}
	.st5{font-size:25.9596px;}
</style>
<rect y="0" class="st0" width="841.9" height="595.3"/>
<g>
	<g>
		<path class="st0" d="M-680.3,253.7c-0.2-0.4-0.7-0.6-1.1-0.6h-16.9c-0.5,0-0.9,0.2-1.1,0.6l-8.5,14.7c-0.2,0.4-0.2,0.9,0,1.3
			l8.5,14.7c0.2,0.4,0.7,0.6,1.1,0.6h16.9c0.5,0,0.9-0.2,1.1-0.6l8.5-14.7c0.2-0.4,0.2-0.9,0-1.3L-680.3,253.7z M-679.5,269.1
			l-5.1,8.8c-0.1,0.1-0.1,0.1-0.2,0.1H-695c-0.1,0-0.2-0.1-0.2-0.1l-5.1-8.8c0-0.1,0-0.2,0-0.3l5.1-8.8c0.1-0.1,0.1-0.1,0.2-0.1
			h10.2c0.1,0,0.2,0.1,0.2,0.1l5.1,8.8C-679.4,269-679.4,269.1-679.5,269.1z"/>
		<path class="st0" d="M-463.4,256.3l-4.3-2.5c-0.4-0.2-0.9-0.2-1.3,0c-0.4,0.2-0.6,0.6-0.6,1.1V273c0,0,0,0.1,0,0.1l-2.8,4.8
			c-0.1,0.1-0.1,0.1-0.2,0.1h-10.2c-0.1,0-0.2-0.1-0.2-0.1l-2.8-4.8c0,0,0-0.1,0-0.1v-18.1c0-0.5-0.2-0.9-0.6-1.1
			c-0.4-0.2-0.9-0.2-1.3,0l-4.3,2.5c-0.4,0.2-0.6,0.6-0.6,1.1v17.2c0,0.2,0.1,0.4,0.2,0.6l5.2,9.1c0.2,0.4,0.7,0.6,1.1,0.6h16.9
			c0.5,0,0.9-0.2,1.1-0.6l5.2-9c0.1-0.2,0.2-0.4,0.2-0.6v-17.2C-462.8,256.9-463.1,256.5-463.4,256.3z"/>
		<path class="st0" d="M-599.9,253.1h-16.9c-0.5,0-0.9,0.2-1.1,0.6l-8.5,14.7c-0.2,0.4-0.2,0.9,0,1.3l8.5,14.7
			c0.2,0.4,0.6,0.6,1.1,0.6h14.1c0.5,0,0.9-0.2,1.1-0.6l2.5-4.3c0.2-0.4,0.2-0.9,0-1.3s-0.6-0.6-1.1-0.6h-13.2
			c-0.1,0-0.2-0.1-0.2-0.1l-3-5.1c-0.1-0.1,0-0.2,0-0.3c0,0,0.1-0.1,0.2-0.1h20.4c0.5,0,0.9-0.2,1.1-0.6l3.3-5.7l-7.2-12.4
			C-599,253.3-599.4,253.1-599.9,253.1z M-600,265.5c0,0-0.1,0.1-0.2,0.1h-16.1c-0.1,0-0.2-0.1-0.2-0.1c0,0-0.1-0.2,0-0.3l3-5.1
			c0.1-0.1,0.1-0.1,0.2-0.1h10.2c0.1,0,0.2,0.1,0.2,0.1l3,5.1C-600,265.3-600,265.4-600,265.5z"/>
		<path class="st0" d="M-542.7,253.7c-0.2-0.4-0.7-0.6-1.1-0.6h-14.1c-0.5,0-0.9,0.2-1.1,0.6l-2.5,4.3c-0.2,0.4-0.2,0.9,0,1.3
			s0.6,0.6,1.1,0.6h13.2c0.1,0,0.2,0.1,0.2,0.1l3,5.1c0.1,0.1,0,0.2,0,0.3c0,0-0.1,0.1-0.2,0.1h-20.4c-0.5,0-0.9,0.2-1.1,0.6
			l-3.3,5.7l7.1,12.4c0.2,0.4,0.6,0.6,1.1,0.6h16.9c0.5,0,0.9-0.2,1.1-0.6l8.5-14.7c0.2-0.4,0.2-0.9,0-1.3L-542.7,253.7z
			 M-560.5,272.6c0,0,0.1-0.1,0.2-0.1h16.1c0.1,0,0.2,0.1,0.2,0.1s0.1,0.2,0,0.3l-3,5.1c-0.1,0.1-0.1,0.1-0.2,0.1h-10.2
			c-0.1,0-0.2-0.1-0.2-0.1l-3-5.1C-560.6,272.7-560.6,272.6-560.5,272.6z"/>
		<path class="st0" d="M-571.1,253.1h-4.9c-0.5,0-0.9,0.2-1.1,0.6l-1.6,2.8c0,0.1-0.1,0.1-0.2,0.1c-0.1,0-0.1,0-0.2,0l-4.8-2.8
			c-0.4-0.2-0.9-0.2-1.3,0c-0.4,0.2-0.6,0.6-0.6,1.1v28.2c0,0.5,0.2,0.9,0.6,1.1c0.2,0.1,0.4,0.2,0.6,0.2s0.4-0.1,0.6-0.2l4.3-2.5
			c0.4-0.2,0.6-0.6,0.6-1.1v-9.9c0,0,0-0.1,0-0.1l9-15.6c0.2-0.4,0.2-0.9,0-1.3C-570.2,253.3-570.7,253.1-571.1,253.1z"/>
		<path class="st0" d="M-639.6,253.7c-0.2-0.4-0.7-0.6-1.1-0.6h-16.9c-0.5,0-0.9,0.2-1.1,0.6l-1.5,2.6c0,0.1-0.1,0.1-0.2,0.1
			c-0.1,0-0.2,0-0.2,0l-4.5-2.6c-0.4-0.2-0.9-0.2-1.3,0c-0.4,0.2-0.6,0.6-0.6,1.1v45.7c0,0.5,0.2,0.9,0.6,1.1l4.3,2.5
			c0.2,0.1,0.4,0.2,0.6,0.2s0.4-0.1,0.6-0.2c0.4-0.2,0.6-0.6,0.6-1.1v-21.4l1.5,2.6c0.2,0.4,0.7,0.6,1.1,0.6h16.9
			c0.5,0,0.9-0.2,1.1-0.6l8.5-14.7c0.2-0.4,0.2-0.9,0-1.3L-639.6,253.7z M-638.7,269.1l-5.1,8.8c-0.1,0.1-0.1,0.1-0.2,0.1h-10.2
			c-0.1,0-0.2-0.1-0.2-0.1l-5.1-8.8c0-0.1,0-0.2,0-0.3l5.1-8.8c0.1-0.1,0.1-0.1,0.2-0.1h10.2c0.1,0,0.2,0.1,0.2,0.1l5.1,8.8
			C-638.6,269-638.6,269.1-638.7,269.1z"/>
		<path class="st0" d="M-515.3,242.1h-2.5c-0.2,0-0.3-0.1-0.3-0.3v-3c0-0.5-0.2-0.9-0.6-1.1l-4.3-2.5c-0.4-0.2-0.9-0.2-1.3,0
			c-0.4,0.2-0.6,0.6-0.6,1.1v5.4c0,0.2-0.1,0.3-0.3,0.3h-12c-0.5,0-0.9,0.2-1.1,0.6c-0.2,0.4-0.2,0.9,0,1.3l2.5,4.3
			c0.2,0.4,0.7,0.6,1.1,0.6h9.5c0.2,0,0.3,0.1,0.3,0.3v32.9c0,0.5,0.2,0.9,0.6,1.1l4.3,2.5c0.2,0.1,0.4,0.2,0.6,0.2s0.4-0.1,0.6-0.2
			c0.4-0.2,0.6-0.6,0.6-1.1v-35.4c0-0.2,0.1-0.3,0.3-0.3c0.5,0,0.9-0.2,1.1-0.6l2.5-4.3c0.2-0.4,0.2-0.9,0-1.3
			C-514.4,242.4-514.8,242.1-515.3,242.1z"/>
		<path class="st0" d="M-721.1,253.7c-0.2-0.4-0.7-0.6-1.1-0.6h-16.9c-0.5,0-0.9,0.2-1.1,0.6l-8.5,14.7c-0.2,0.4-0.2,0.9,0,1.3
			l8.5,14.7c0.2,0.4,0.7,0.6,1.1,0.6h16.9c0.5,0,0.9-0.2,1.1-0.6l8.5-14.7c0.2-0.4,0.2-0.9,0-1.3L-721.1,253.7z M-720.2,269.1
			l-5.1,8.8c-0.1,0.1-0.1,0.1-0.2,0.1h-10.2c-0.1,0-0.2-0.1-0.2-0.1l-5.1-8.8c0-0.1,0-0.2,0-0.3l5.1-8.8c0.1-0.1,0.1-0.1,0.2-0.1
			h10.2c0.1,0,0.2,0.1,0.2,0.1l5.1,8.8C-720.2,269-720.2,269.1-720.2,269.1z"/>
		<path class="st0" d="M-771,260c0.1-0.1,0.1-0.1,0.2-0.1h16c0.5,0,0.9-0.2,1.1-0.6s0.2-0.9,0-1.3l-2.5-4.3
			c-0.2-0.4-0.7-0.6-1.1-0.6h-16.9c-0.5,0-0.9,0.2-1.1,0.6l-8.5,14.7c-0.2,0.4-0.2,0.9,0,1.3l8.5,14.7c0.2,0.4,0.7,0.6,1.1,0.6h16.9
			c0.5,0,0.9-0.2,1.1-0.6l2.5-4.3c0.2-0.4,0.2-0.9,0-1.3s-0.6-0.6-1.1-0.6h-16c-0.1,0-0.2-0.1-0.2-0.1l-5.1-8.8c0-0.1,0-0.2,0-0.3
			L-771,260z"/>
		<path class="st0" d="M-501.4,260.9c-0.4-0.2-0.9-0.2-1.3,0l-4.3,2.5c-0.4,0.2-0.6,0.7-0.6,1.1v16.9c0,0.5,0.2,0.9,0.6,1.1l4.3,2.5
			c0.2,0.1,0.4,0.2,0.6,0.2c0.2,0,0.4-0.1,0.6-0.2c0.4-0.2,0.6-0.6,0.6-1.1V262C-500.7,261.5-501,261.1-501.4,260.9z"/>
		<path class="st0" d="M-501.4,247.4l-4.3-2.5c-0.4-0.2-0.9-0.2-1.3,0c-0.4,0.2-0.6,0.6-0.6,1.1v10.3c0,0.5,0.2,0.9,0.6,1.1
			c0.2,0.1,0.4,0.2,0.6,0.2c0.2,0,0.4-0.1,0.6-0.2l4.3-2.5c0.4-0.2,0.6-0.6,0.6-1.1v-5.4C-500.7,248-501,247.6-501.4,247.4z"/>
	</g>
	<g>
		<path class="st1" d="M-721.1,211.2c-0.2-0.4-0.7-0.7-1.2-0.7h-16.9c-0.5,0-0.9,0.3-1.2,0.7l-8.4,14.6c-0.2,0.4-0.2,0.9,0,1.3
			l8.4,14.6c0.2,0.4,0.7,0.7,1.2,0.7h16.9c0.5,0,0.9-0.3,1.2-0.7l8.4-14.6c0.2-0.4,0.2-0.9,0-1.3L-721.1,211.2z M-720.3,226.7
			l-5.1,8.8c-0.1,0.1-0.2,0.2-0.3,0.2h-10.1c-0.1,0-0.2-0.1-0.3-0.2l-5.1-8.8c-0.1-0.1-0.1-0.2,0-0.3l5.1-8.8
			c0.1-0.1,0.2-0.2,0.3-0.2h10.1c0.1,0,0.2,0.1,0.3,0.2l5.1,8.8C-720.2,226.4-720.2,226.6-720.3,226.7z"/>
		<path class="st1" d="M-654.2,217.6c-0.4-0.2-0.9-0.2-1.3,0l-4.3,2.5c-0.4,0.2-0.6,0.7-0.6,1.1v16.9c0,0.5,0.2,0.9,0.6,1.1l4.3,2.5
			c0.2,0.1,0.4,0.2,0.6,0.2s0.4-0.1,0.6-0.2c0.4-0.2,0.6-0.6,0.6-1.1v-21.8C-653.6,218.3-653.8,217.9-654.2,217.6z"/>
		<path class="st1" d="M-672.7,193.7l-4.1-2.4c-0.4-0.2-0.9-0.2-1.3,0c-0.4,0.2-0.7,0.7-0.7,1.2v21.2l-1.5-2.5
			c-0.2-0.4-0.7-0.7-1.2-0.7h-16.9c-0.5,0-0.9,0.3-1.2,0.7l-8.4,14.6c-0.2,0.4-0.2,0.9,0,1.3l8.4,14.6c0.2,0.4,0.7,0.7,1.2,0.7h16.9
			c0.5,0,0.9-0.3,1.2-0.7l1.5-2.5c0-0.1,0.1-0.1,0.2-0.2c0.1,0,0.2,0,0.3,0l4.4,2.5c0.4,0.2,0.9,0.2,1.3,0c0.4-0.2,0.7-0.7,0.7-1.2
			v-45.6C-672,194.4-672.3,194-672.7,193.7z M-679.5,226.7l-5.1,8.8c-0.1,0.1-0.2,0.2-0.3,0.2H-695c-0.1,0-0.2-0.1-0.3-0.2l-5.1-8.8
			c-0.1-0.1-0.1-0.2,0-0.3l5.1-8.8c0.1-0.1,0.2-0.2,0.3-0.2h10.1c0.1,0,0.2,0.1,0.3,0.2l5.1,8.8
			C-679.4,226.4-679.4,226.6-679.5,226.7z"/>
		<path class="st1" d="M-654.2,204.1l-4.3-2.5c-0.4-0.2-0.9-0.2-1.3,0c-0.4,0.2-0.6,0.6-0.6,1.1v10.3c0,0.5,0.2,0.9,0.6,1.1
			c0.2,0.1,0.4,0.2,0.6,0.2s0.4-0.1,0.6-0.2l4.3-2.5c0.4-0.2,0.6-0.6,0.6-1.1v-5.4C-653.6,204.8-653.8,204.3-654.2,204.1z"/>
		<path class="st1" d="M-771,217.5c0-0.1,0.1-0.1,0.2-0.1h16.2c0.4,0,0.8-0.2,1-0.6s0.2-0.8,0-1.2l-2.5-4.4c-0.2-0.4-0.6-0.6-1-0.6
			h-17c-0.4,0-0.8,0.2-1,0.6l-8.5,14.7c-0.2,0.4-0.2,0.8,0,1.2l8.5,14.7c0.2,0.4,0.6,0.6,1,0.6h17c0.4,0,0.8-0.2,1-0.6l2.5-4.4
			c0.2-0.4,0.2-0.8,0-1.2s-0.6-0.6-1-0.6h-16.2c-0.1,0-0.2,0-0.2-0.1l-5.1-8.9c0-0.1,0-0.2,0-0.2L-771,217.5z"/>
	</g>
</g>
<g>
	<g>
		<path class="st2" d="M-194.9,253.7c-0.2-0.4-0.7-0.6-1.1-0.6H-213c-0.5,0-0.9,0.2-1.1,0.6l-8.5,14.7c-0.2,0.4-0.2,0.9,0,1.3
			l8.5,14.7c0.2,0.4,0.7,0.6,1.1,0.6h16.9c0.5,0,0.9-0.2,1.1-0.6l8.5-14.7c0.2-0.4,0.2-0.9,0-1.3L-194.9,253.7z M-194.1,269.1
			l-5.1,8.8c-0.1,0.1-0.1,0.1-0.2,0.1h-10.2c-0.1,0-0.2-0.1-0.2-0.1l-5.1-8.8c0-0.1,0-0.2,0-0.3l5.1-8.8c0.1-0.1,0.1-0.1,0.2-0.1
			h10.2c0.1,0,0.2,0.1,0.2,0.1l5.1,8.8C-194,269-194,269.1-194.1,269.1z"/>
		<path class="st2" d="M-145.7,268.4l-8.5-14.7c-0.2-0.4-0.7-0.6-1.1-0.6h-16.9c-0.5,0-0.9,0.2-1.1,0.6l-1.5,2.6
			c0,0.1-0.1,0.1-0.2,0.1c-0.1,0-0.1,0-0.2,0l-4.5-2.6c-0.4-0.2-0.9-0.2-1.3,0c-0.4,0.2-0.6,0.6-0.6,1.1v45.7c0,0.5,0.2,0.9,0.6,1.1
			l4.3,2.5c0.2,0.1,0.4,0.2,0.6,0.2s0.4-0.1,0.6-0.2c0.4-0.2,0.6-0.6,0.6-1.1v-21.4l1.5,2.6c0.2,0.4,0.6,0.6,1.1,0.6h16.9
			c0.5,0,0.9-0.2,1.1-0.6l8.5-14.7C-145.5,269.2-145.5,268.8-145.7,268.4z M-153.3,269.1l-5.1,8.8c-0.1,0.1-0.1,0.1-0.2,0.1h-10.2
			c-0.1,0-0.2-0.1-0.2-0.1l-5.1-8.8c0-0.1,0-0.2,0-0.3l5.1-8.8c0.1-0.1,0.1-0.1,0.2-0.1h10.2c0.1,0,0.2,0.1,0.2,0.1l5.1,8.8
			C-153.2,269-153.2,269.1-153.3,269.1z"/>
		<path class="st2" d="M-235.7,253.7c-0.2-0.4-0.7-0.6-1.1-0.6h-16.9c-0.5,0-0.9,0.2-1.1,0.6l-8.5,14.7c-0.2,0.4-0.2,0.9,0,1.3
			l8.5,14.7c0.2,0.4,0.7,0.6,1.1,0.6h16.9c0.5,0,0.9-0.2,1.1-0.6l8.5-14.7c0.2-0.4,0.2-0.9,0-1.3L-235.7,253.7z M-234.8,269.1
			l-5.1,8.8c-0.1,0.1-0.1,0.1-0.2,0.1h-10.2c-0.1,0-0.2-0.1-0.2-0.1l-5.1-8.8c0-0.1,0-0.2,0-0.3l5.1-8.8c0.1-0.1,0.1-0.1,0.2-0.1
			h10.2c0.1,0,0.2,0.1,0.2,0.1l5.1,8.8C-234.8,269-234.8,269.1-234.8,269.1z"/>
		<path class="st2" d="M-285.6,260c0.1-0.1,0.1-0.1,0.2-0.1h16c0.5,0,0.9-0.2,1.1-0.6c0.2-0.4,0.2-0.9,0-1.3l-2.5-4.3
			c-0.2-0.4-0.7-0.6-1.1-0.6h-16.9c-0.5,0-0.9,0.2-1.1,0.6l-8.5,14.7c-0.2,0.4-0.2,0.9,0,1.3l8.5,14.7c0.2,0.4,0.7,0.6,1.1,0.6h16.9
			c0.5,0,0.9-0.2,1.1-0.6l2.5-4.3c0.2-0.4,0.2-0.9,0-1.3s-0.6-0.6-1.1-0.6h-16c-0.1,0-0.2-0.1-0.2-0.1l-5.1-8.8c0-0.1,0-0.2,0-0.3
			L-285.6,260z"/>
	</g>
	<g>
		<path class="st1" d="M-235.7,211.2c-0.2-0.4-0.7-0.7-1.2-0.7h-16.9c-0.5,0-0.9,0.3-1.2,0.7l-8.4,14.6c-0.2,0.4-0.2,0.9,0,1.3
			l8.4,14.6c0.2,0.4,0.7,0.7,1.2,0.7h16.9c0.5,0,0.9-0.3,1.2-0.7l8.4-14.6c0.2-0.4,0.2-0.9,0-1.3L-235.7,211.2z M-234.9,226.7
			l-5.1,8.8c-0.1,0.1-0.2,0.2-0.3,0.2h-10.1c-0.1,0-0.2-0.1-0.3-0.2l-5.1-8.8c-0.1-0.1-0.1-0.2,0-0.3l5.1-8.8
			c0.1-0.1,0.2-0.2,0.3-0.2h10.1c0.1,0,0.2,0.1,0.3,0.2l5.1,8.8C-234.8,226.4-234.8,226.6-234.9,226.7z"/>
		<path class="st1" d="M-168.8,217.6c-0.4-0.2-0.9-0.2-1.3,0l-4.3,2.5c-0.4,0.2-0.6,0.7-0.6,1.1v16.9c0,0.5,0.2,0.9,0.6,1.1l4.3,2.5
			c0.2,0.1,0.4,0.2,0.6,0.2s0.4-0.1,0.6-0.2c0.4-0.2,0.6-0.6,0.6-1.1v-21.8C-168.2,218.3-168.4,217.9-168.8,217.6z"/>
		<path class="st1" d="M-187.3,193.7l-4.1-2.4c-0.4-0.2-0.9-0.2-1.3,0c-0.4,0.2-0.7,0.7-0.7,1.2v21.2l-1.5-2.5
			c-0.2-0.4-0.7-0.7-1.2-0.7h-16.9c-0.5,0-0.9,0.3-1.2,0.7l-8.4,14.6c-0.2,0.4-0.2,0.9,0,1.3l8.4,14.6c0.2,0.4,0.7,0.7,1.2,0.7h16.9
			c0.5,0,0.9-0.3,1.2-0.7l1.5-2.5c0-0.1,0.1-0.1,0.2-0.2c0.1,0,0.2,0,0.3,0l4.4,2.5c0.4,0.2,0.9,0.2,1.3,0c0.4-0.2,0.7-0.7,0.7-1.2
			v-45.6C-186.6,194.4-186.9,194-187.3,193.7z M-194.1,226.7l-5.1,8.8c-0.1,0.1-0.2,0.2-0.3,0.2h-10.1c-0.1,0-0.2-0.1-0.3-0.2
			l-5.1-8.8c-0.1-0.1-0.1-0.2,0-0.3l5.1-8.8c0.1-0.1,0.2-0.2,0.3-0.2h10.1c0.1,0,0.2,0.1,0.3,0.2l5.1,8.8
			C-194,226.4-194,226.6-194.1,226.7z"/>
		<path class="st1" d="M-168.8,204.1l-4.3-2.5c-0.4-0.2-0.9-0.2-1.3,0c-0.4,0.2-0.6,0.6-0.6,1.1v10.3c0,0.5,0.2,0.9,0.6,1.1
			c0.2,0.1,0.4,0.2,0.6,0.2s0.4-0.1,0.6-0.2l4.3-2.5c0.4-0.2,0.6-0.6,0.6-1.1v-5.4C-168.2,204.8-168.4,204.3-168.8,204.1z"/>
		<path class="st1" d="M-285.6,217.5c0-0.1,0.1-0.1,0.2-0.1h16.2c0.4,0,0.8-0.2,1-0.6s0.2-0.8,0-1.2l-2.5-4.4
			c-0.2-0.4-0.6-0.6-1-0.6h-17c-0.4,0-0.8,0.2-1,0.6l-8.5,14.7c-0.2,0.4-0.2,0.8,0,1.2l8.5,14.7c0.2,0.4,0.6,0.6,1,0.6h17
			c0.4,0,0.8-0.2,1-0.6l2.5-4.4c0.2-0.4,0.2-0.8,0-1.2s-0.6-0.6-1-0.6h-16.2c-0.1,0-0.2,0-0.2-0.1l-5.1-8.9c0-0.1,0-0.2,0-0.2
			L-285.6,217.5z"/>
	</g>
</g>
<g>
	<path class="st2" d="M-233.8,424.3h-16c-0.1,0-0.2-0.1-0.2-0.1l-5.1-8.8c0-0.1,0-0.2,0-0.3l5.1-8.8c0-0.1,0.1-0.1,0.2-0.1h16
		c0.5,0,0.9-0.2,1.1-0.6s0.2-0.9,0-1.3l-2.5-4.3c-0.2-0.4-0.6-0.6-1.1-0.6h-16.9c-0.5,0-0.9,0.2-1.1,0.6l-8.5,14.7
		c-0.2,0.4-0.2,0.9,0,1.3l8.5,14.7c0.2,0.4,0.7,0.6,1.1,0.6h16.9c0.5,0,0.9-0.2,1.1-0.6l2.5-4.3c0.2-0.4,0.2-0.9,0-1.3
		S-233.3,424.3-233.8,424.3z"/>
	<path class="st1" d="M-269.2,423.8h-16.2c-0.1,0-0.2,0-0.2-0.1l-5.1-8.9c0-0.1,0-0.2,0-0.2l5.1-8.9c0-0.1,0.1-0.1,0.2-0.1h16.2
		c0.4,0,0.8-0.2,1-0.6s0.2-0.8,0-1.2l-2.5-4.4c-0.2-0.4-0.6-0.6-1-0.6h-17c-0.4,0-0.8,0.2-1,0.6l-8.5,14.7c-0.2,0.4-0.2,0.8,0,1.2
		l8.5,14.7c0.2,0.4,0.6,0.6,1,0.6h17c0.4,0,0.8-0.2,1-0.6l2.5-4.4c0.2-0.4,0.2-0.8,0-1.2S-268.8,423.8-269.2,423.8z"/>
</g>
<g>
	<g>
		<path class="st2" d="M-711.4,414.1l-8.5-14.7c-0.2-0.4-0.6-0.6-1.1-0.6h-16.9c-0.5,0-0.9,0.2-1.1,0.6l-8.5,14.7
			c-0.2,0.4-0.2,0.9,0,1.3l8.5,14.7c0.2,0.4,0.6,0.6,1.1,0.6h16.9c0.5,0,0.9-0.2,1.1-0.6l8.5-14.7
			C-711.2,414.9-711.2,414.5-711.4,414.1z M-719,414.8l-5.1,8.8c-0.1,0.1-0.1,0.1-0.2,0.1h-10.2c-0.1,0-0.2-0.1-0.2-0.1l-5.1-8.8
			c0-0.1,0-0.2,0-0.3l5.1-8.8c0.1-0.1,0.1-0.1,0.2-0.1h10.2c0.1,0,0.2,0.1,0.2,0.1l5.1,8.8C-718.9,414.6-718.9,414.8-719,414.8z"/>
		<path class="st2" d="M-769.7,405.7c0.1-0.1,0.1-0.1,0.2-0.1h16c0.5,0,0.9-0.2,1.1-0.6s0.2-0.9,0-1.3l-2.5-4.3
			c-0.2-0.4-0.6-0.6-1.1-0.6h-16.9c-0.5,0-0.9,0.2-1.1,0.6l-8.5,14.7c-0.2,0.4-0.2,0.9,0,1.3l8.5,14.7c0.2,0.4,0.7,0.6,1.1,0.6h16.9
			c0.5,0,0.9-0.2,1.1-0.6l2.5-4.3c0.2-0.4,0.2-0.9,0-1.3c-0.2-0.4-0.6-0.6-1.1-0.6h-16c-0.1,0-0.2-0.1-0.2-0.1l-5.1-8.8
			c0-0.1,0-0.2,0-0.3L-769.7,405.7z"/>
	</g>
	<g>
		<path class="st1" d="M-653,405.8c-0.4-0.2-0.9-0.2-1.3,0l-4.3,2.5c-0.4,0.2-0.6,0.7-0.6,1.1v16.9c0,0.5,0.2,0.9,0.6,1.1l4.3,2.5
			c0.2,0.1,0.4,0.2,0.6,0.2s0.4-0.1,0.6-0.2c0.4-0.2,0.6-0.6,0.6-1.1v-21.8C-652.3,406.5-652.6,406.1-653,405.8z"/>
		<path class="st1" d="M-671.4,382l-4.1-2.4c-0.4-0.2-0.9-0.2-1.3,0c-0.4,0.2-0.7,0.7-0.7,1.2V402l-1.5-2.5
			c-0.2-0.4-0.7-0.7-1.2-0.7H-697c-0.5,0-0.9,0.3-1.2,0.7l-8.4,14.6c-0.2,0.4-0.2,0.9,0,1.3l8.4,14.6c0.2,0.4,0.7,0.7,1.2,0.7h16.9
			c0.5,0,0.9-0.3,1.2-0.7l1.5-2.5c0-0.1,0.1-0.1,0.2-0.2c0.1,0,0.2,0,0.3,0l4.4,2.5c0.4,0.2,0.9,0.2,1.3,0c0.4-0.2,0.7-0.7,0.7-1.2
			v-45.6C-670.8,382.6-671,382.2-671.4,382z M-678.2,414.9l-5.1,8.8c-0.1,0.1-0.2,0.2-0.3,0.2h-10.1c-0.1,0-0.2-0.1-0.3-0.2
			l-5.1-8.8c-0.1-0.1-0.1-0.2,0-0.3l5.1-8.8c0.1-0.1,0.2-0.2,0.3-0.2h10.1c0.1,0,0.2,0.1,0.3,0.2l5.1,8.8
			C-678.1,414.6-678.1,414.8-678.2,414.9z"/>
		<path class="st1" d="M-653,392.3l-4.3-2.5c-0.4-0.2-0.9-0.2-1.3,0c-0.4,0.2-0.6,0.6-0.6,1.1v10.3c0,0.5,0.2,0.9,0.6,1.1
			c0.2,0.1,0.4,0.2,0.6,0.2s0.4-0.1,0.6-0.2l4.3-2.5c0.4-0.2,0.6-0.6,0.6-1.1v-5.4C-652.3,393-652.6,392.6-653,392.3z"/>
	</g>
</g>
<text transform="matrix(1 0 0 1 -823.8892 92.6798)" class="st0 st4 st5">Logotip</text>
<text transform="matrix(1 0 0 1 68.0005 92.6798)" class="st3 st4 st5">Logotip</text>
<g>
	<path class="st3" d="M204.2,253.6h-4.4h-6.3c-0.3,0-0.5,0.1-0.7,0.4l-3.1,5.4l0,0l-2.2,3.8v0l-3.1,5.4c-0.1,0.2-0.1,0.5,0,0.8
		l3.1,5.4l0,0l2.2,3.8l0,0l3.1,5.4c0.1,0.2,0.4,0.4,0.7,0.4h6.3h4.4h6.3c0.3,0,0.5-0.1,0.7-0.4l8.5-14.7c0.1-0.2,0.1-0.5,0-0.8
		l-8.5-14.7c-0.1-0.2-0.4-0.4-0.7-0.4H204.2z M196.2,278.2l-5.1-8.8c-0.1-0.2-0.1-0.5,0-0.8l5.1-8.8c0.1-0.2,0.4-0.4,0.7-0.4h10.2
		c0.3,0,0.5,0.1,0.7,0.4l5.1,8.8c0.1,0.2,0.1,0.5,0,0.8l-5.1,8.8c-0.1,0.2-0.4,0.4-0.7,0.4h-10.2
		C196.6,278.6,196.3,278.5,196.2,278.2z"/>
	<path class="st3" d="M428.6,274.6v-17.2c0-0.3-0.1-0.5-0.4-0.7l-4.3-2.5c-0.5-0.3-1.2,0.1-1.2,0.7V273c0,0.1,0,0.3-0.1,0.4
		l-2.8,4.8c-0.1,0.2-0.4,0.4-0.7,0.4H409c-0.3,0-0.5-0.1-0.7-0.4l-2.8-4.8c-0.1-0.1-0.1-0.3-0.1-0.4v-18.1c0-0.6-0.6-1-1.2-0.7
		l-4.3,2.5c-0.2,0.1-0.4,0.4-0.4,0.7v17.2c0,0.1,0,0.3,0.1,0.4l5.2,9.1c0.1,0.2,0.4,0.4,0.7,0.4h6.3h4.4h6.3c0.3,0,0.5-0.1,0.7-0.4
		l5.2-9C428.5,274.9,428.6,274.8,428.6,274.6z"/>
	<path class="st3" d="M299.7,266.1L299.7,266.1l-7-12.1c-0.1-0.2-0.4-0.4-0.7-0.4h-6.3h-4.4h-6.3c-0.3,0-0.5,0.1-0.7,0.4l-3.1,5.4
		l0,0l-5.3,9.2c-0.1,0.2-0.1,0.5,0,0.8l8.5,14.7c0.1,0.2,0.4,0.4,0.7,0.4h6.3h7.8c0.3,0,0.5-0.1,0.7-0.4l2.5-4.3
		c0.3-0.5-0.1-1.2-0.7-1.2h-13.2c-0.3,0-0.5-0.1-0.7-0.4l-3-5.1c-0.3-0.5,0.1-1.2,0.7-1.2h20.4c0.3,0,0.5-0.1,0.7-0.4L299.7,266.1z
		 M274.8,264.9l3-5.1c0.1-0.2,0.4-0.4,0.7-0.4h10.2c0.3,0,0.5,0.1,0.7,0.4l3,5.1c0.3,0.5-0.1,1.2-0.7,1.2h-16.1
		C274.9,266.1,274.5,265.4,274.8,264.9z"/>
	<path class="st3" d="M323.5,271.9L323.5,271.9l7,12.1c0.1,0.2,0.4,0.4,0.7,0.4h6.3h4.4h6.3c0.3,0,0.5-0.1,0.7-0.4l3.1-5.4l0,0
		l5.3-9.2c0.1-0.2,0.1-0.5,0-0.8l-8.5-14.7c-0.1-0.2-0.4-0.4-0.7-0.4h-6.3h-7.8c-0.3,0-0.5,0.1-0.7,0.4l-2.5,4.3
		c-0.3,0.5,0.1,1.2,0.7,1.2h13.2c0.3,0,0.5,0.1,0.7,0.4l3,5.1c0.3,0.5-0.1,1.2-0.7,1.2h-20.4c-0.3,0-0.5,0.1-0.7,0.4L323.5,271.9z
		 M348.4,273.1l-3,5.1c-0.1,0.2-0.4,0.4-0.7,0.4h-10.2c-0.3,0-0.5-0.1-0.7-0.4l-3-5.1c-0.3-0.5,0.1-1.2,0.7-1.2h16.1
		C348.3,271.9,348.7,272.6,348.4,273.1z"/>
	<path class="st3" d="M315.2,254l-1.6,2.8c-0.2,0.4-0.7,0.5-1.1,0.3l-4.8-2.8c-0.5-0.3-1.2,0.1-1.2,0.7v28.2c0,0.6,0.6,1,1.2,0.7
		l4.3-2.5c0.2-0.1,0.4-0.4,0.4-0.7v-9.9c0-0.1,0-0.3,0.1-0.4l9-15.6c0.3-0.5-0.1-1.2-0.7-1.2h-4.9
		C315.6,253.6,315.3,253.7,315.2,254z"/>
	<path class="st3" d="M257.2,263.2l-2.2-3.8l0,0l-3.1-5.4c-0.1-0.2-0.4-0.4-0.7-0.4h-6.3h-4.4h-6.3c-0.3,0-0.5,0.1-0.7,0.4l-1.5,2.6
		c-0.2,0.4-0.7,0.5-1.1,0.3l-4.5-2.6c-0.5-0.3-1.2,0.1-1.2,0.7v28.3v6.8v10.6c0,0.3,0.1,0.5,0.4,0.7l4.3,2.5
		c0.5,0.3,1.2-0.1,1.2-0.7v-16.4v-6.8v0l2.4,4.2c0.1,0.2,0.4,0.4,0.7,0.4h6.3h4.4h6.3c0.3,0,0.5-0.1,0.7-0.4l3.1-5.4l0,0l2.2-3.8
		l0,0l3.1-5.4c0.1-0.2,0.1-0.5,0-0.8L257.2,263.2L257.2,263.2z M247.9,278.6h-10.2c-0.3,0-0.5-0.1-0.7-0.4l-5.1-8.8
		c-0.1-0.2-0.1-0.5,0-0.8l5.1-8.8c0.1-0.2,0.4-0.4,0.7-0.4h10.2c0.3,0,0.5,0.1,0.7,0.4l5.1,8.8c0.1,0.2,0.1,0.5,0,0.8l-5.1,8.8
		C248.4,278.5,248.1,278.6,247.9,278.6z"/>
	<path class="st3" d="M373,238.2l-4.3-2.5c-0.5-0.3-1.2,0.1-1.2,0.7v5.4c0,0.4-0.3,0.8-0.8,0.8h-12c-0.6,0-1,0.6-0.7,1.2l2.5,4.3
		c0.1,0.2,0.4,0.4,0.7,0.4h9.5c0.4,0,0.8,0.3,0.8,0.8v15.5v6.8v10.6c0,0.3,0.1,0.5,0.4,0.7l4.3,2.5c0.5,0.3,1.2-0.1,1.2-0.7v-16.4
		v-6.8v-12.2c0-0.4,0.3-0.8,0.8-0.8l0,0c0.3,0,0.5-0.1,0.7-0.4l2.5-4.3c0.3-0.5-0.1-1.2-0.7-1.2h-2.5c-0.4,0-0.8-0.3-0.8-0.8v-3
		C373.4,238.6,373.2,238.3,373,238.2z"/>
	<path class="st3" d="M163.4,253.6H159h-6.3c-0.3,0-0.5,0.1-0.7,0.4l-8.5,14.7c-0.1,0.2-0.1,0.5,0,0.8l8.5,14.7
		c0.1,0.2,0.4,0.4,0.7,0.4h6.3h4.4h6.3c0.3,0,0.5-0.1,0.7-0.4l8.5-14.7c0.1-0.2,0.1-0.5,0-0.8l-8.5-14.7c-0.1-0.2-0.4-0.4-0.7-0.4
		H163.4z M155.4,278.2l-5.1-8.8c-0.1-0.2-0.1-0.5,0-0.8l5.1-8.8c0.1-0.2,0.4-0.4,0.7-0.4h10.2c0.3,0,0.5,0.1,0.7,0.4l5.1,8.8
		c0.1,0.2,0.1,0.5,0,0.8l-5.1,8.8c-0.1,0.2-0.4,0.4-0.7,0.4h-10.2C155.8,278.6,155.6,278.5,155.4,278.2z"/>
	<path class="st3" d="M121.2,259.4h16c0.6,0,1-0.6,0.7-1.2l-2.5-4.3c-0.1-0.2-0.4-0.4-0.7-0.4h-10.6h-6.3c-0.3,0-0.5,0.1-0.7,0.4
		l-8.5,14.7c-0.1,0.2-0.1,0.5,0,0.8l8.5,14.7c0.1,0.2,0.4,0.4,0.7,0.4h6.3h10.6c0.3,0,0.5-0.1,0.7-0.4l2.5-4.3
		c0.3-0.5-0.1-1.2-0.7-1.2h-16c-0.3,0-0.5-0.1-0.7-0.4l-5.1-8.8c-0.1-0.2-0.1-0.5,0-0.8l5.1-8.8
		C120.6,259.5,120.9,259.4,121.2,259.4z"/>
	<path class="st3" d="M389.5,261.3l-4.3,2.5c-0.2,0.1-0.4,0.4-0.4,0.7v16.9c0,0.3,0.1,0.5,0.4,0.7l4.3,2.5c0.5,0.3,1.2-0.1,1.2-0.7
		V262C390.7,261.4,390,261,389.5,261.3z"/>
	<path class="st3" d="M386,257l4.3-2.5c0.2-0.1,0.4-0.4,0.4-0.7v-5.4c0-0.3-0.1-0.5-0.4-0.7l-4.3-2.5c-0.5-0.3-1.2,0.1-1.2,0.7v10.3
		C384.8,256.9,385.5,257.3,386,257z"/>
	<g>
		<path class="st1" d="M163.4,211.1H159h-6.2c-0.3,0-0.6,0.2-0.7,0.4l-8.4,14.6c-0.1,0.3-0.1,0.6,0,0.8l8.4,14.6
			c0.1,0.3,0.4,0.4,0.7,0.4h6.2h4.4h6.2c0.3,0,0.6-0.2,0.7-0.4l8.4-14.6c0.1-0.3,0.1-0.6,0-0.8l-8.4-14.6c-0.1-0.3-0.4-0.4-0.7-0.4
			H163.4z M155.4,235.7l-5.1-8.8c-0.1-0.3-0.1-0.6,0-0.8l5.1-8.8c0.1-0.3,0.4-0.4,0.7-0.4h10.1c0.3,0,0.6,0.2,0.7,0.4l5.1,8.8
			c0.1,0.3,0.1,0.6,0,0.8l-5.1,8.8c-0.1,0.3-0.4,0.4-0.7,0.4h-10.1C155.8,236.1,155.6,235.9,155.4,235.7z"/>
		<path class="st1" d="M236.6,218.1l-4.3,2.5c-0.2,0.1-0.4,0.4-0.4,0.7v16.9c0,0.3,0.1,0.5,0.4,0.7l4.3,2.5c0.5,0.3,1.2-0.1,1.2-0.7
			v-21.8C237.8,218.1,237.1,217.8,236.6,218.1z"/>
		<path class="st1" d="M219.4,212.2v-6.8v-10.5c0-0.3-0.2-0.6-0.4-0.7l-4.1-2.4c-0.6-0.3-1.3,0.1-1.3,0.7v16.3v6.8v0l-2.4-4.1
			c-0.1-0.3-0.4-0.4-0.7-0.4h-6.2h-4.4h-6.2c-0.3,0-0.6,0.2-0.7,0.4l-3.1,5.4l0,0l-2.2,3.8v0l-3.1,5.4c-0.1,0.3-0.1,0.6,0,0.8
			l3.1,5.4l0,0l2.2,3.8l0,0l3.1,5.4c0.1,0.3,0.4,0.4,0.7,0.4h6.2h4.4h6.2c0.3,0,0.6-0.2,0.7-0.4l1.5-2.5c0.2-0.4,0.7-0.5,1.1-0.3
			l4.4,2.5c0.6,0.3,1.3-0.1,1.3-0.7V212.2z M196.2,235.7l-5.1-8.8c-0.1-0.3-0.1-0.6,0-0.8l5.1-8.8c0.1-0.3,0.4-0.4,0.7-0.4h10.1
			c0.3,0,0.6,0.2,0.7,0.4l5.1,8.8c0.1,0.3,0.1,0.6,0,0.8l-5.1,8.8c-0.1,0.3-0.4,0.4-0.7,0.4h-10.1
			C196.6,236.1,196.4,235.9,196.2,235.7z"/>
		<path class="st1" d="M232,202.8v10.3c0,0.6,0.6,1,1.2,0.7l4.3-2.5c0.2-0.1,0.4-0.4,0.4-0.7v-5.4c0-0.3-0.1-0.5-0.4-0.7l-4.3-2.5
			C232.6,201.8,232,202.2,232,202.8z"/>
		<path class="st1" d="M121.1,216.9h16.2c0.6,0,0.9-0.6,0.6-1.1l-2.5-4.4c-0.1-0.2-0.4-0.4-0.6-0.4h-10.7h-6.3
			c-0.3,0-0.5,0.1-0.6,0.4l-8.5,14.7c-0.1,0.2-0.1,0.5,0,0.7l8.5,14.7c0.1,0.2,0.4,0.4,0.6,0.4h6.3h10.7c0.3,0,0.5-0.1,0.6-0.4
			l2.5-4.4c0.3-0.5-0.1-1.1-0.6-1.1h-16.2c-0.3,0-0.5-0.1-0.6-0.4l-5.1-8.9c-0.1-0.2-0.1-0.5,0-0.7l5.1-8.9
			C120.6,217,120.9,216.9,121.1,216.9z"/>
	</g>
</g>
<g>
	<path class="st3" d="M689.6,253.6h-4.4h-6.3c-0.3,0-0.5,0.1-0.7,0.4l-3.1,5.4l0,0l-2.2,3.8v0l-3.1,5.4c-0.1,0.2-0.1,0.5,0,0.8
		l3.1,5.4l0,0l2.2,3.8l0,0l3.1,5.4c0.1,0.2,0.4,0.4,0.7,0.4h6.3h4.4h6.3c0.3,0,0.5-0.1,0.7-0.4l8.5-14.7c0.1-0.2,0.1-0.5,0-0.8
		l-8.5-14.7c-0.1-0.2-0.4-0.4-0.7-0.4H689.6z M681.6,278.2l-5.1-8.8c-0.1-0.2-0.1-0.5,0-0.8l5.1-8.8c0.1-0.2,0.4-0.4,0.7-0.4h10.2
		c0.3,0,0.5,0.1,0.7,0.4l5.1,8.8c0.1,0.2,0.1,0.5,0,0.8l-5.1,8.8c-0.1,0.2-0.4,0.4-0.7,0.4h-10.2C682,278.6,681.7,278.5,681.6,278.2
		z"/>
	<path class="st3" d="M742.6,263.2l-2.2-3.8l0,0l-3.1-5.4c-0.1-0.2-0.4-0.4-0.7-0.4h-6.3H726h-6.3c-0.3,0-0.5,0.1-0.7,0.4l-1.5,2.6
		c-0.2,0.4-0.7,0.5-1.1,0.3l-4.5-2.6c-0.5-0.3-1.2,0.1-1.2,0.7v28.3v6.8v10.6c0,0.3,0.1,0.5,0.4,0.7l4.3,2.5
		c0.5,0.3,1.2-0.1,1.2-0.7v-16.4v-6.8v0l2.4,4.2c0.1,0.2,0.4,0.4,0.7,0.4h6.3h4.4h6.3c0.3,0,0.5-0.1,0.7-0.4l3.1-5.4l0,0l2.2-3.8
		l0,0l3.1-5.4c0.1-0.2,0.1-0.5,0-0.8L742.6,263.2L742.6,263.2z M733.3,278.6h-10.2c-0.3,0-0.5-0.1-0.7-0.4l-5.1-8.8
		c-0.1-0.2-0.1-0.5,0-0.8l5.1-8.8c0.1-0.2,0.4-0.4,0.7-0.4h10.2c0.3,0,0.5,0.1,0.7,0.4l5.1,8.8c0.1,0.2,0.1,0.5,0,0.8l-5.1,8.8
		C733.8,278.5,733.5,278.6,733.3,278.6z"/>
	<path class="st3" d="M648.8,253.6h-4.4h-6.3c-0.3,0-0.5,0.1-0.7,0.4l-8.5,14.7c-0.1,0.2-0.1,0.5,0,0.8l8.5,14.7
		c0.1,0.2,0.4,0.4,0.7,0.4h6.3h4.4h6.3c0.3,0,0.5-0.1,0.7-0.4l8.5-14.7c0.1-0.2,0.1-0.5,0-0.8l-8.5-14.7c-0.1-0.2-0.4-0.4-0.7-0.4
		H648.8z M640.8,278.2l-5.1-8.8c-0.1-0.2-0.1-0.5,0-0.8l5.1-8.8c0.1-0.2,0.4-0.4,0.7-0.4h10.2c0.3,0,0.5,0.1,0.7,0.4l5.1,8.8
		c0.1,0.2,0.1,0.5,0,0.8l-5.1,8.8c-0.1,0.2-0.4,0.4-0.7,0.4h-10.2C641.2,278.6,641,278.5,640.8,278.2z"/>
	<path class="st3" d="M606.5,259.4h16c0.6,0,1-0.6,0.7-1.2l-2.5-4.3c-0.1-0.2-0.4-0.4-0.7-0.4h-10.7h-6.3c-0.3,0-0.5,0.1-0.7,0.4
		l-8.5,14.7c-0.1,0.2-0.1,0.5,0,0.8l8.5,14.7c0.1,0.2,0.4,0.4,0.7,0.4h6.3h10.7c0.3,0,0.5-0.1,0.7-0.4l2.5-4.3
		c0.3-0.5-0.1-1.2-0.7-1.2h-16c-0.3,0-0.5-0.1-0.7-0.4l-5.1-8.8c-0.1-0.2-0.1-0.5,0-0.8l5.1-8.8C606,259.5,606.3,259.4,606.5,259.4z
		"/>
	<g>
		<path class="st1" d="M648.8,211.1h-4.4h-6.2c-0.3,0-0.6,0.2-0.7,0.4l-8.4,14.6c-0.1,0.3-0.1,0.6,0,0.8l8.4,14.6
			c0.1,0.3,0.4,0.4,0.7,0.4h6.2h4.4h6.2c0.3,0,0.6-0.2,0.7-0.4l8.4-14.6c0.1-0.3,0.1-0.6,0-0.8l-8.4-14.6c-0.1-0.3-0.4-0.4-0.7-0.4
			H648.8z M640.8,235.7l-5.1-8.8c-0.1-0.3-0.1-0.6,0-0.8l5.1-8.8c0.1-0.3,0.4-0.4,0.7-0.4h10.1c0.3,0,0.6,0.2,0.7,0.4l5.1,8.8
			c0.1,0.3,0.1,0.6,0,0.8l-5.1,8.8c-0.1,0.3-0.4,0.4-0.7,0.4h-10.1C641.2,236.1,641,235.9,640.8,235.7z"/>
		<path class="st1" d="M722,218.1l-4.3,2.5c-0.2,0.1-0.4,0.4-0.4,0.7v16.9c0,0.3,0.1,0.5,0.4,0.7l4.3,2.5c0.5,0.3,1.2-0.1,1.2-0.7
			v-21.8C723.2,218.1,722.5,217.8,722,218.1z"/>
		<path class="st1" d="M704.8,212.2v-6.8v-10.5c0-0.3-0.2-0.6-0.4-0.7l-4.1-2.4c-0.6-0.3-1.3,0.1-1.3,0.7v16.3v6.8v0l-2.4-4.1
			c-0.1-0.3-0.4-0.4-0.7-0.4h-6.2h-4.4H679c-0.3,0-0.6,0.2-0.7,0.4l-3.1,5.4l0,0l-2.2,3.8v0l-3.1,5.4c-0.1,0.3-0.1,0.6,0,0.8
			l3.1,5.4l0,0l2.2,3.8l0,0l3.1,5.4c0.1,0.3,0.4,0.4,0.7,0.4h6.2h4.4h6.2c0.3,0,0.6-0.2,0.7-0.4l1.5-2.5c0.2-0.4,0.7-0.5,1.1-0.3
			l4.4,2.5c0.6,0.3,1.3-0.1,1.3-0.7V212.2z M681.6,235.7l-5.1-8.8c-0.1-0.3-0.1-0.6,0-0.8l5.1-8.8c0.1-0.3,0.4-0.4,0.7-0.4h10.1
			c0.3,0,0.6,0.2,0.7,0.4l5.1,8.8c0.1,0.3,0.1,0.6,0,0.8l-5.1,8.8c-0.1,0.3-0.4,0.4-0.7,0.4h-10.1
			C682,236.1,681.8,235.9,681.6,235.7z"/>
		<path class="st1" d="M717.4,202.8v10.3c0,0.6,0.6,1,1.2,0.7l4.3-2.5c0.2-0.1,0.4-0.4,0.4-0.7v-5.4c0-0.3-0.1-0.5-0.4-0.7l-4.3-2.5
			C718,201.8,717.4,202.2,717.4,202.8z"/>
		<path class="st1" d="M606.5,216.9h16.2c0.6,0,0.9-0.6,0.6-1.1l-2.5-4.4c-0.1-0.2-0.4-0.4-0.6-0.4h-10.7h-6.3
			c-0.3,0-0.5,0.1-0.6,0.4l-8.5,14.7c-0.1,0.2-0.1,0.5,0,0.7l8.5,14.7c0.1,0.2,0.4,0.4,0.6,0.4h6.3h10.7c0.3,0,0.5-0.1,0.6-0.4
			l2.5-4.4c0.3-0.5-0.1-1.1-0.6-1.1h-16.2c-0.3,0-0.5-0.1-0.6-0.4l-5.1-8.9c-0.1-0.2-0.1-0.5,0-0.7l5.1-8.9
			C606,217,606.3,216.9,606.5,216.9z"/>
	</g>
</g>
<g>
	<path class="st3" d="M642.1,405.6h16c0.6,0,1-0.6,0.7-1.2l-2.5-4.3c-0.1-0.2-0.4-0.4-0.7-0.4H645h-6.3c-0.3,0-0.5,0.1-0.7,0.4
		l-8.5,14.7c-0.1,0.2-0.1,0.5,0,0.8l8.5,14.7c0.1,0.2,0.4,0.4,0.7,0.4h6.3h10.7c0.3,0,0.5-0.1,0.7-0.4l2.5-4.3
		c0.3-0.5-0.1-1.2-0.7-1.2h-16c-0.3,0-0.5-0.1-0.7-0.4l-5.1-8.8c-0.1-0.2-0.1-0.5,0-0.8l5.1-8.8
		C641.6,405.8,641.8,405.6,642.1,405.6z"/>
	<path class="st1" d="M606.5,405.1h16.2c0.6,0,0.9-0.6,0.6-1.1l-2.5-4.4c-0.1-0.2-0.4-0.4-0.6-0.4h-10.7h-6.3
		c-0.3,0-0.5,0.1-0.6,0.4l-8.5,14.7c-0.1,0.2-0.1,0.5,0,0.7l8.5,14.7c0.1,0.2,0.4,0.4,0.6,0.4h6.3h10.7c0.3,0,0.5-0.1,0.6-0.4
		l2.5-4.4c0.3-0.5-0.1-1.1-0.6-1.1h-16.2c-0.3,0-0.5-0.1-0.6-0.4l-5.1-8.9c-0.1-0.2-0.1-0.5,0-0.7l5.1-8.9
		C606,405.2,606.3,405.1,606.5,405.1z"/>
</g>
<g>
	<path class="st3" d="M164.7,399.3h-4.4H154c-0.3,0-0.5,0.1-0.7,0.4l-8.5,14.7c-0.1,0.2-0.1,0.5,0,0.8l8.5,14.7
		c0.1,0.2,0.4,0.4,0.7,0.4h6.3h4.4h6.3c0.3,0,0.5-0.1,0.7-0.4l8.5-14.7c0.1-0.2,0.1-0.5,0-0.8l-8.5-14.7c-0.1-0.2-0.4-0.4-0.7-0.4
		H164.7z M156.7,423.9l-5.1-8.8c-0.1-0.2-0.1-0.5,0-0.8l5.1-8.8c0.1-0.2,0.4-0.4,0.7-0.4h10.2c0.3,0,0.5,0.1,0.7,0.4l5.1,8.8
		c0.1,0.2,0.1,0.5,0,0.8l-5.1,8.8c-0.1,0.2-0.4,0.4-0.7,0.4h-10.2C157.1,424.3,156.8,424.2,156.7,423.9z"/>
	<path class="st3" d="M122.4,405.1h16c0.6,0,1-0.6,0.7-1.2l-2.5-4.3c-0.1-0.2-0.4-0.4-0.7-0.4h-10.6h-6.3c-0.3,0-0.5,0.1-0.7,0.4
		l-8.5,14.7c-0.1,0.2-0.1,0.5,0,0.8l8.5,14.7c0.1,0.2,0.4,0.4,0.7,0.4h6.3H136c0.3,0,0.5-0.1,0.7-0.4l2.5-4.3
		c0.3-0.5-0.1-1.2-0.7-1.2h-16c-0.3,0-0.5-0.1-0.7-0.4l-5.1-8.8c-0.1-0.2-0.1-0.5,0-0.8l5.1-8.8
		C121.9,405.2,122.1,405.1,122.4,405.1z"/>
	<g>
		<path class="st1" d="M237.9,406.3l-4.3,2.5c-0.2,0.1-0.4,0.4-0.4,0.7v16.9c0,0.3,0.1,0.5,0.4,0.7l4.3,2.5c0.5,0.3,1.2-0.1,1.2-0.7
			v-21.8C239.1,406.3,238.4,406,237.9,406.3z"/>
		<path class="st1" d="M220.6,400.5v-6.8v-10.5c0-0.3-0.2-0.6-0.4-0.7l-4.1-2.4c-0.6-0.3-1.3,0.1-1.3,0.7V397v6.8v0l-2.4-4.1
			c-0.1-0.3-0.4-0.4-0.7-0.4h-6.2h-4.4h-6.2c-0.3,0-0.6,0.2-0.7,0.4l-3.1,5.4l0,0l-2.2,3.8v0l-3.1,5.4c-0.1,0.3-0.1,0.6,0,0.8
			l3.1,5.4l0,0l2.2,3.8l0,0l3.1,5.4c0.1,0.3,0.4,0.4,0.7,0.4h6.2h4.4h6.2c0.3,0,0.6-0.2,0.7-0.4l1.5-2.5c0.2-0.4,0.7-0.5,1.1-0.3
			l4.4,2.5c0.6,0.3,1.3-0.1,1.3-0.7V400.5z M197.5,423.9l-5.1-8.8c-0.1-0.3-0.1-0.6,0-0.8l5.1-8.8c0.1-0.3,0.4-0.4,0.7-0.4h10.1
			c0.3,0,0.6,0.2,0.7,0.4l5.1,8.8c0.1,0.3,0.1,0.6,0,0.8l-5.1,8.8c-0.1,0.3-0.4,0.4-0.7,0.4h-10.1
			C197.9,424.3,197.6,424.2,197.5,423.9z"/>
		<path class="st1" d="M233.2,391v10.3c0,0.6,0.6,1,1.2,0.7l4.3-2.5c0.2-0.1,0.4-0.4,0.4-0.7v-5.4c0-0.3-0.1-0.5-0.4-0.7l-4.3-2.5
			C233.9,390,233.2,390.4,233.2,391z"/>
	</g>
</g>
</svg>
