<?xml version="1.0" encoding="UTF-8" standalone="no"?>
<svg
   xmlns:dc="http://purl.org/dc/elements/1.1/"
   xmlns:cc="http://creativecommons.org/ns#"
   xmlns:rdf="http://www.w3.org/1999/02/22-rdf-syntax-ns#"
   xmlns:svg="http://www.w3.org/2000/svg"
   xmlns="http://www.w3.org/2000/svg"
   xmlns:sodipodi="http://sodipodi.sourceforge.net/DTD/sodipodi-0.dtd"
   xmlns:inkscape="http://www.inkscape.org/namespaces/inkscape"
   id="Capa_1"
   data-name="Capa 1"
   viewBox="0 0 440 190"
   version="1.1"
   sodipodi:docname="logo_codi--blanc.svg"
   width="440"
   height="190"
   inkscape:version="0.92.4 (5da689c313, 2019-01-14)">
  <metadata
     id="metadata19">
    <rdf:RDF>
      <cc:Work
         rdf:about="">
        <dc:format>image/svg+xml</dc:format>
        <dc:type
           rdf:resource="http://purl.org/dc/dcmitype/StillImage" />
        <dc:title></dc:title>
      </cc:Work>
    </rdf:RDF>
  </metadata>
  <sodipodi:namedview
     pagecolor="#ffffff"
     bordercolor="#666666"
     borderopacity="1"
     objecttolerance="10"
     gridtolerance="10"
     guidetolerance="10"
     inkscape:pageopacity="0"
     inkscape:pageshadow="2"
     inkscape:window-width="1366"
     inkscape:window-height="705"
     id="namedview17"
     showgrid="false"
     inkscape:zoom="1"
     inkscape:cx="210.05613"
     inkscape:cy="93.981295"
     inkscape:window-x="-8"
     inkscape:window-y="-8"
     inkscape:window-maximized="1"
     inkscape:current-layer="Capa_1"
     fit-margin-top="0"
     fit-margin-left="0"
     fit-margin-right="0"
     fit-margin-bottom="0" />
  <defs
     id="defs4">
    <style
       id="style2">.cls-1{fill:#434244;}.cls-2{fill:#62b9c4;}</style>
  </defs>
  <path
     class="cls-1"
     d="m 237.75112,120.18984 -25.5,-44.100006 a 3.45,3.45 0 0 0 -3.3,-1.8 h -50.7 a 3.45,3.45 0 0 0 -3.3,1.8 l -25.5,44.100006 a 4.44,4.44 0 0 0 0,3.9 l 25.38,44.1 a 3.45,3.45 0 0 0 3.3,1.8 h 50.7 a 3.45,3.45 0 0 0 3.3,-1.8 l 25.5,-44.1 a 4.44,4.44 0 0 0 0.12,-3.9 z m -22.8,2.1 -15.3,26.4 c -0.3,0.3 -0.3,0.3 -0.6,0.3 h -30.6 a 1.05,1.05 0 0 1 -0.6,-0.3 l -15.3,-26.4 v -0.9 l 15.3,-26.40001 c 0.3,-0.3 0.3,-0.3 0.6,-0.3 h 30.6 a 1.05,1.05 0 0 1 0.6,0.3 l 15.3,26.40001 c 0.3,0.36 0.3,0.96 -0.12,0.96 z"
     id="path6"
     inkscape:connector-curvature="0"
     style="fill:#434244;stroke-width:3" />
  <path
     class="cls-1"
     d="m 62.851123,95.04983 c 0.3,-0.3 0.3,-0.3 0.6,-0.3 h 47.999997 a 3.45,3.45 0 0 0 3.3,-1.8 4.44,4.44 0 0 0 0,-3.9 l -7.5,-12.869996 a 3.48,3.48 0 0 0 -3.3,-1.83 H 53.251123 a 3.48,3.48 0 0 0 -3.3,1.83 L 24.451128,120.18984 a 4.44,4.44 0 0 0 0,3.9 l 25.379995,44.1 a 3.75,3.75 0 0 0 3.3,1.8 h 50.699997 a 3.45,3.45 0 0 0 3.3,-1.8 l 7.5,-12.9 a 4.44,4.44 0 0 0 0,-3.9 3.45,3.45 0 0 0 -3.3,-1.8 H 63.331123 a 1.05,1.05 0 0 1 -0.6,-0.3 l -15.3,-26.4 v -0.9 z"
     id="path8"
     inkscape:connector-curvature="0"
     style="fill:#434244;stroke-width:3" />
  <path
     class="cls-2"
     d="m 412.83112,95.34983 a 4.44,4.44 0 0 0 -3.9,0 l -12.9,7.5 a 3.75,3.75 0 0 0 -1.8,3.3 v 50.70001 a 3.45,3.45 0 0 0 1.8,3.3 l 12.9,7.5 a 3,3 0 0 0 3.6,0 3.45,3.45 0 0 0 1.8,-3.3 V 98.94983 c 0.72,-1.5 -0.18,-2.76 -1.5,-3.6 z"
     id="path10"
     inkscape:connector-curvature="0"
     style="fill:#62b9c4;stroke-width:3" />
  <path
     class="cls-2"
     d="m 357.75112,23.949834 -12.3,-7.2 a 4.44,4.44 0 0 0 -3.9,0 4.17,4.17 0 0 0 -2.1,3.6 V 83.94983 l -4.5,-7.499996 a 4.17,4.17 0 0 0 -3.6,-2.1 h -50.51999 a 4.56,4.56 0 0 0 -3.6,2.1 l -25.08,43.740006 a 4.44,4.44 0 0 0 0,3.9 l 25.2,43.8 a 4.17,4.17 0 0 0 3.6,2.1 h 50.69999 a 4.5,4.5 0 0 0 3.6,-2.1 l 4.5,-7.5 c 0,-0.3 0.3,-0.3 0.6,-0.6 h 0.9 l 13.2,7.5 a 4.44,4.44 0 0 0 3.9,0 4.17,4.17 0 0 0 2.1,-3.6 V 26.949834 c -0.9,-1.2 -1.62,-2.4 -2.7,-3 z m -20.4,98.700006 -15.3,26.4 c -0.3,0.3 -0.6,0.6 -0.9,0.6 h -30.29999 c -0.3,0 -0.6,-0.3 -0.9,-0.6 l -15.3,-26.4 a 0.57,0.57 0 0 1 0,-0.9 l 15.3,-26.40001 c 0.3,-0.3 0.6,-0.6 0.9,-0.6 h 30.29999 c 0.3,0 0.6,0.3 0.9,0.6 l 15.3,26.40001 c 0.3,0 0.3,0.6 0,0.9 z"
     id="path12"
     inkscape:connector-curvature="0"
     style="fill:#62b9c4;stroke-width:3" />
  <path
     class="cls-2"
     d="m 412.83112,54.849833 -12.9,-7.499999 a 4.44,4.44 0 0 0 -3.9,0 3.45,3.45 0 0 0 -1.8,3.299999 V 81.54983 a 3.45,3.45 0 0 0 1.8,3.3 3,3 0 0 0 3.6,0 l 12.9,-7.499996 a 3.45,3.45 0 0 0 1.8,-3.3 V 57.849833 c 0.72,-0.9 -0.18,-2.1 -1.5,-3 z"
     id="path14"
     inkscape:connector-curvature="0"
     style="fill:#62b9c4;stroke-width:3" />
</svg>
