<?xml version="1.0" encoding="UTF-8" standalone="no"?>
<svg
   xmlns:dc="http://purl.org/dc/elements/1.1/"
   xmlns:cc="http://creativecommons.org/ns#"
   xmlns:rdf="http://www.w3.org/1999/02/22-rdf-syntax-ns#"
   xmlns:svg="http://www.w3.org/2000/svg"
   xmlns="http://www.w3.org/2000/svg"
   xmlns:sodipodi="http://sodipodi.sourceforge.net/DTD/sodipodi-0.dtd"
   xmlns:inkscape="http://www.inkscape.org/namespaces/inkscape"
   id="Capa_1"
   data-name="Capa 1"
   viewBox="0 0 500 380.00001"
   version="1.1"
   sodipodi:docname="logo_codi_coop--negre.svg"
   width="500"
   height="380"
   inkscape:version="0.92.4 (5da689c313, 2019-01-14)">
  <metadata
     id="metadata27">
    <rdf:RDF>
      <cc:Work
         rdf:about="">
        <dc:format>image/svg+xml</dc:format>
        <dc:type
           rdf:resource="http://purl.org/dc/dcmitype/StillImage" />
        <dc:title></dc:title>
      </cc:Work>
    </rdf:RDF>
  </metadata>
  <sodipodi:namedview
     pagecolor="#ffffff"
     bordercolor="#666666"
     borderopacity="1"
     objecttolerance="10"
     gridtolerance="10"
     guidetolerance="10"
     inkscape:pageopacity="0"
     inkscape:pageshadow="2"
     inkscape:window-width="1366"
     inkscape:window-height="705"
     id="namedview25"
     showgrid="false"
     inkscape:zoom="1"
     inkscape:cx="365.75924"
     inkscape:cy="182.45478"
     inkscape:window-x="-8"
     inkscape:window-y="-8"
     inkscape:window-maximized="1"
     inkscape:current-layer="Capa_1"
     fit-margin-top="0"
     fit-margin-left="0"
     fit-margin-right="0"
     fit-margin-bottom="0" />
  <defs
     id="defs4">
    <style
       id="style2">.cls-1{fill:#333333;}.cls-2{fill:#333333;}</style>
  </defs>
  <path
     class="cls-1"
     d="m 306.62591,205.81926 h -32.1 a 2.25,2.25 0 0 0 -2.1,1.2 l -9.3,16.2 v 0 l -6.6,11.4 v 0 l -9.29999,16.2 a 3.3,3.3 0 0 0 0,2.4 l 9.29999,16.2 v 0 l 6.6,11.4 v 0 l 9.3,16.19999 a 2.52,2.52 0 0 0 2.1,1.2 h 51 a 2.25,2.25 0 0 0 2.1,-1.2 l 25.5,-44.09999 a 3.3,3.3 0 0 0 0,-2.4 l -25.5,-43.95 a 2.52,2.52 0 0 0 -2.1,-1.2 h -18.9 z m -24,73.8 -15.3,-26.4 a 3.3,3.3 0 0 1 0,-2.4 l 15.3,-26.4 a 2.52,2.52 0 0 1 2.1,-1.2 h 30.6 a 2.25,2.25 0 0 1 2.1,1.2 l 15.3,26.4 a 3.3,3.3 0 0 1 0,2.4 l -15.3,26.4 a 2.52,2.52 0 0 1 -2.1,1.2 h -30.6 a 2.01,2.01 0 0 1 -2.1,-1.2 z"
     id="path6"
     inkscape:connector-curvature="0"
     style="fill:#333333;stroke-width:3" />
  <path
     class="cls-1"
     d="m 465.62591,234.61926 -6.6,-11.4 v 0 l -9.3,-16.2 a 2.52,2.52 0 0 0 -2.1,-1.2 h -50.7 a 2.25,2.25 0 0 0 -2.1,1.2 l -4.5,7.8 a 2.4,2.4 0 0 1 -3.3,0.9 l -13.5,-7.8 a 2.46,2.46 0 0 0 -3.6,2.1 v 137.09999 a 2.25,2.25 0 0 0 1.2,2.1 l 12.9,7.5 a 2.46,2.46 0 0 0 3.6,-2.1 v -69.59999 0 l 7.2,12.59999 a 2.52,2.52 0 0 0 2.1,1.2 h 51 a 2.25,2.25 0 0 0 2.1,-1.2 l 9.3,-16.19999 v 0 l 6.6,-11.4 v 0 l 9.3,-16.2 a 3.3,3.3 0 0 0 0,-2.4 z m -27.9,46.2 h -30.6 a 2.25,2.25 0 0 1 -2.1,-1.2 l -15.3,-26.4 a 3.3,3.3 0 0 1 0,-2.4 l 15.3,-26.4 a 2.52,2.52 0 0 1 2.1,-1.2 h 30.6 a 2.25,2.25 0 0 1 2.1,1.2 l 15.3,26.4 a 3.3,3.3 0 0 1 0,2.4 l -15.3,26.4 a 2.61,2.61 0 0 1 -2.1,1.2 z"
     id="path8"
     inkscape:connector-curvature="0"
     style="fill:#333333;stroke-width:3" />
  <path
     class="cls-1"
     d="m 184.22592,205.81926 h -32.1 a 2.25,2.25 0 0 0 -2.1,1.2 l -25.5,44.1 a 3.3,3.3 0 0 0 0,2.4 l 25.5,44.09999 a 2.52,2.52 0 0 0 2.1,1.2 h 51 a 2.25,2.25 0 0 0 2.1,-1.2 l 25.5,-44.09999 a 3.3,3.3 0 0 0 0,-2.4 l -25.5,-44.1 a 2.52,2.52 0 0 0 -2.1,-1.2 z m -24,73.8 -15.3,-26.4 a 3.3,3.3 0 0 1 0,-2.4 l 15.3,-26.25 a 2.52,2.52 0 0 1 2.1,-1.2 h 30.6 a 2.25,2.25 0 0 1 2.1,1.2 l 15.3,26.4 a 3.3,3.3 0 0 1 0,2.4 l -15.3,26.4 a 2.52,2.52 0 0 1 -2.1,1.2 h -30.6 a 2.25,2.25 0 0 1 -2.1,-1.35 z"
     id="path10"
     inkscape:connector-curvature="0"
     style="fill:#333333;stroke-width:3" />
  <path
     class="cls-1"
     d="m 57.325917,223.21926 h 48.000003 a 2.4,2.4 0 0 0 2.1,-3.6 l -7.500003,-12.9 a 2.52,2.52 0 0 0 -2.1,-1.2 H 46.825915 a 2.25,2.25 0 0 0 -2.1,1.2 l -25.5,44.1 a 3.3,3.3 0 0 0 0,2.4 l 25.5,44.09999 a 2.52,2.52 0 0 0 2.1,1.2 h 51.000002 a 2.25,2.25 0 0 0 2.1,-1.2 l 7.500003,-12.89999 a 2.46,2.46 0 0 0 -2.1,-3.6 H 57.325917 a 2.25,2.25 0 0 1 -2.100002,-1.2 l -15.3,-26.4 a 3.3,3.3 0 0 1 0,-2.4 l 15.3,-26.25 a 2.61,2.61 0 0 1 2.100002,-1.35 z"
     id="path12"
     inkscape:connector-curvature="0"
     style="fill:#333333;stroke-width:3" />
  <path
     class="cls-2"
     d="m 184.22592,78.31926 h -31.8 a 2.52,2.52 0 0 0 -2.1,1.2 l -25.2,43.8 a 3.3,3.3 0 0 0 0,2.4 l 25.2,43.8 a 2.01,2.01 0 0 0 2.1,1.2 h 50.4 a 2.52,2.52 0 0 0 2.1,-1.2 l 25.2,-43.8 a 3.3,3.3 0 0 0 0,-2.4 l -25.2,-43.8 a 2.01,2.01 0 0 0 -2.1,-1.2 z m -24,73.8 -15.3,-26.4 a 3.3,3.3 0 0 1 0,-2.4 l 15.3,-26.4 a 2.01,2.01 0 0 1 2.1,-1.2 h 30.3 a 2.52,2.52 0 0 1 2.1,1.2 l 15.3,26.4 a 3.3,3.3 0 0 1 0,2.4 l -15.3,26.4 a 2.01,2.01 0 0 1 -2.1,1.2 h -30.3 a 3,3 0 0 1 -2.1,-1.2 z"
     id="path14"
     inkscape:connector-curvature="0"
     style="fill:#333333;stroke-width:3" />
  <path
     class="cls-2"
     d="m 403.82591,99.31926 -12.9,7.5 a 2.52,2.52 0 0 0 -1.2,2.1 v 50.7 a 2.25,2.25 0 0 0 1.2,2.1 l 12.9,7.5 a 2.46,2.46 0 0 0 3.6,-2.1 v -65.4 a 2.4,2.4 0 0 0 -3.6,-2.4 z"
     id="path16"
     inkscape:connector-curvature="0"
     style="fill:#333333;stroke-width:3" />
  <path
     class="cls-2"
     d="m 352.22591,81.61926 v -51.9 a 2.52,2.52 0 0 0 -1.2,-2.1 l -12.3,-7.049999 a 2.64,2.64 0 0 0 -3.9,2.1 v 69.299999 0 l -7.2,-12.3 a 2.01,2.01 0 0 0 -2.1,-1.2 h -50.7 a 2.52,2.52 0 0 0 -2.1,1.2 l -9.3,16.2 v 0 l -6.6,11.4 v 0 l -9.29999,16.2 a 3.3,3.3 0 0 0 0,2.4 l 9.29999,16.2 v 0 l 6.6,11.4 v 0 l 9.3,16.2 a 2.01,2.01 0 0 0 2.1,1.2 h 50.4 a 2.52,2.52 0 0 0 2.1,-1.2 l 4.5,-7.5 a 2.4,2.4 0 0 1 3.3,-0.9 l 13.2,7.5 a 2.64,2.64 0 0 0 3.9,-2.1 z m -69.6,70.5 -15.3,-26.4 a 3.3,3.3 0 0 1 0,-2.4 l 15.3,-26.4 a 2.01,2.01 0 0 1 2.1,-1.2 h 30.3 a 2.52,2.52 0 0 1 2.1,1.2 l 15.3,26.4 a 3.3,3.3 0 0 1 0,2.4 l -15.3,26.4 a 2.01,2.01 0 0 1 -2.1,1.2 h -30.3 a 3,3 0 0 1 -2.1,-1.2 z"
     id="path18"
     inkscape:connector-curvature="0"
     style="fill:#333333;stroke-width:3" />
  <path
     class="cls-2"
     d="m 390.02591,53.56926 v 30.9 a 2.4,2.4 0 0 0 3.6,2.1 l 12.9,-7.5 a 2.52,2.52 0 0 0 1.2,-2.1 v -16.2 a 2.25,2.25 0 0 0 -1.2,-2.1 l -12.9,-7.5 a 2.64,2.64 0 0 0 -3.6,2.4 z"
     id="path20"
     inkscape:connector-curvature="0"
     style="fill:#333333;stroke-width:3" />
  <path
     class="cls-2"
     d="m 57.325917,95.71926 h 48.600003 a 2.1,2.1 0 0 0 1.8,-3.15 l -7.5,-13.2 a 2.46,2.46 0 0 0 -1.800003,-1.2 H 47.425915 a 1.65,1.65 0 0 0 -1.8,1.2 l -25.5,44.1 a 2.55,2.55 0 0 0 0,2.1 l 25.5,44.1 a 2.46,2.46 0 0 0 1.8,1.2 h 51.000002 a 1.65,1.65 0 0 0 1.800003,-1.2 l 7.5,-13.2 a 2.19,2.19 0 0 0 -1.8,-3.3 H 57.325917 a 1.65,1.65 0 0 1 -1.800002,-1.2 l -15.3,-26.7 a 2.55,2.55 0 0 1 0,-2.1 l 15.3,-26.7 a 3.21,3.21 0 0 1 1.800002,-0.75 z"
     id="path22"
     inkscape:connector-curvature="0"
     style="#333333;stroke-width:3" />
</svg>
