<?xml version="1.0" encoding="UTF-8" standalone="no"?>
<svg
   xmlns:dc="http://purl.org/dc/elements/1.1/"
   xmlns:cc="http://creativecommons.org/ns#"
   xmlns:rdf="http://www.w3.org/1999/02/22-rdf-syntax-ns#"
   xmlns:svg="http://www.w3.org/2000/svg"
   xmlns="http://www.w3.org/2000/svg"
   xmlns:sodipodi="http://sodipodi.sourceforge.net/DTD/sodipodi-0.dtd"
   xmlns:inkscape="http://www.inkscape.org/namespaces/inkscape"
   id="Capa_1"
   data-name="Capa 1"
   viewBox="0 0 680 370"
   version="1.1"
   sodipodi:docname="logo_cc--blanc.svg"
   width="680"
   height="370"
   inkscape:version="0.92.4 (5da689c313, 2019-01-14)">
  <metadata
     id="metadata13">
    <rdf:RDF>
      <cc:Work
         rdf:about="">
        <dc:format>image/svg+xml</dc:format>
        <dc:type
           rdf:resource="http://purl.org/dc/dcmitype/StillImage" />
        <dc:title></dc:title>
      </cc:Work>
    </rdf:RDF>
  </metadata>
  <sodipodi:namedview
     pagecolor="#ffffff"
     bordercolor="#666666"
     borderopacity="1"
     objecttolerance="10"
     gridtolerance="10"
     guidetolerance="10"
     inkscape:pageopacity="0"
     inkscape:pageshadow="2"
     inkscape:window-width="1366"
     inkscape:window-height="705"
     id="namedview11"
     showgrid="false"
     inkscape:zoom="1"
     inkscape:cx="347.76701"
     inkscape:cy="204.66698"
     inkscape:window-x="-8"
     inkscape:window-y="-8"
     inkscape:window-maximized="1"
     inkscape:current-layer="Capa_1"
     fit-margin-top="0"
     fit-margin-left="0"
     fit-margin-right="0"
     fit-margin-bottom="0" />
  <defs
     id="defs4">
    <style
       id="style2">.cls-1{fill:#434244;}.cls-2{fill:#62b9c4;}</style>
  </defs>
  <path
     class="cls-1"
     d="m 622.94403,263.96951 h -144 a 3.15,3.15 0 0 1 -1.8,-0.9 l -45.9,-79.2 v -2.7 l 45.9,-79.19999 c 0,-0.9 0.9,-0.9 1.8,-0.9 h 144 a 10.35,10.35 0 0 0 9.9,-5.4 13.32,13.32 0 0 0 0,-11.7 l -22.5,-38.7 a 10.35,10.35 0 0 0 -9.9,-5.4 h -152.1 a 10.35,10.35 0 0 0 -9.9,5.4 l -76.5,132.29999 a 13.32,13.32 0 0 0 0,11.7 l 76.5,132.3 a 11.25,11.25 0 0 0 9.9,5.4 h 152.1 a 10.35,10.35 0 0 0 9.9,-5.4 l 22.5,-38.7 a 13.32,13.32 0 0 0 0,-11.7 11.97,11.97 0 0 0 -9.9,-7.2 z"
     id="path6"
     inkscape:connector-curvature="0"
     style="fill:#434244;stroke-width:9" />
  <path
     class="cls-2"
     d="m 304.34403,265.46951 h -145.8 c -0.9,0 -1.8,0 -1.8,-0.9 l -45.9,-80.1 v -1.8 l 45.9,-80.09999 c 0,-0.9 0.9,-0.9 1.8,-0.9 h 145.8 a 9.9,9.9 0 0 0 9,-5.4 11.43,11.43 0 0 0 0,-10.8 l -22.5,-39.6 a 9.9,9.9 0 0 0 -9,-5.4 h -153 a 9.9,9.9 0 0 0 -9,5.4 L 43.344028,178.16951 a 11.52,11.52 0 0 0 0,10.8 l 76.500002,132.3 a 9.9,9.9 0 0 0 9,5.4 h 153 a 9.9,9.9 0 0 0 9,-5.4 l 22.5,-39.6 a 11.43,11.43 0 0 0 0,-10.8 9.9,9.9 0 0 0 -9,-5.4 z"
     id="path8"
     inkscape:connector-curvature="0"
     style="fill:#62b9c4;stroke-width:9" />
</svg>
