<?xml version="1.0" encoding="UTF-8" standalone="no"?>
<svg
   xmlns:dc="http://purl.org/dc/elements/1.1/"
   xmlns:cc="http://creativecommons.org/ns#"
   xmlns:rdf="http://www.w3.org/1999/02/22-rdf-syntax-ns#"
   xmlns:svg="http://www.w3.org/2000/svg"
   xmlns="http://www.w3.org/2000/svg"
   xmlns:sodipodi="http://sodipodi.sourceforge.net/DTD/sodipodi-0.dtd"
   xmlns:inkscape="http://www.inkscape.org/namespaces/inkscape"
   width="172.07726"
   height="40.990269"
   viewBox="0 0 172.07726 40.990269"
   version="1.1"
   id="svg20"
   sodipodi:docname="logo_codi_coop--blau--inline.svg"
   style="fill:none"
   inkscape:version="0.92.4 (5da689c313, 2019-01-14)">
  <metadata
     id="metadata26">
    <rdf:RDF>
      <cc:Work
         rdf:about="">
        <dc:format>image/svg+xml</dc:format>
        <dc:type
           rdf:resource="http://purl.org/dc/dcmitype/StillImage" />
        <dc:title></dc:title>
      </cc:Work>
    </rdf:RDF>
  </metadata>
  <defs
     id="defs24" />
  <sodipodi:namedview
     pagecolor="#ffffff"
     bordercolor="#666666"
     borderopacity="1"
     objecttolerance="10"
     gridtolerance="10"
     guidetolerance="10"
     inkscape:pageopacity="0"
     inkscape:pageshadow="2"
     inkscape:window-width="1366"
     inkscape:window-height="705"
     id="namedview22"
     showgrid="false"
     fit-margin-top="0"
     fit-margin-left="0"
     fit-margin-right="0"
     fit-margin-bottom="0"
     inkscape:zoom="1.9248555"
     inkscape:cx="86.5"
     inkscape:cy="20.047722"
     inkscape:window-x="-8"
     inkscape:window-y="-8"
     inkscape:window-maximized="1"
     inkscape:current-layer="svg20" />
  <path
     d="m 170.157,17.064847 -1.29,-2.2282 -1.818,-3.1665 c -0.058,-0.1173 -0.234,-0.2345 -0.41,-0.2345 h -3.694 -2.522 -3.694 c -0.176,0 -0.293,0.0586 -0.41,0.2345 l -0.88,1.5246 c -0.117,0.2346 -0.41,0.2932 -0.645,0.1759 l -2.639,-1.5246 c -0.293,-0.1759 -0.703,0.0587 -0.703,0.4105 v 16.5945 3.9874 6.2156 c 0,0.1759 0.058,0.2932 0.234,0.4105 l 2.522,1.4659 c 0.293,0.1759 0.703,-0.0586 0.703,-0.4104 v -9.6167 -3.9873 l 1.408,2.4628 c 0.058,0.1172 0.234,0.2345 0.41,0.2345 h 3.694 2.58 3.694 c 0.176,0 0.294,-0.0586 0.411,-0.2345 l 1.818,-3.1665 1.29,-2.2282 1.817,-3.1665 c 0.059,-0.1172 0.059,-0.2932 0,-0.4691 z m -5.453,9.0302 h -5.981 c -0.176,0 -0.293,-0.0586 -0.411,-0.2345 l -2.99,-5.1602 c -0.059,-0.1172 -0.059,-0.2931 0,-0.4691 l 2.99,-5.1601 c 0.059,-0.1173 0.235,-0.2345 0.411,-0.2345 h 5.981 c 0.176,0 0.293,0.0586 0.41,0.2345 l 2.991,5.1601 c 0.058,0.1173 0.058,0.2932 0,0.4691 l -2.991,5.1602 c -0.117,0.1759 -0.293,0.2345 -0.41,0.2345 z"
     id="path2"
     inkscape:connector-curvature="0"
     style="fill:#333333" />
  <path
     d="m 115.155,11.435647 h -2.58 -3.695 c -0.175,0 -0.293,0.0586 -0.41,0.2345 l -4.984,8.6198 c -0.059,0.1173 -0.059,0.2932 0,0.4691 l 4.984,8.6198 c 0.059,0.1172 0.235,0.2345 0.41,0.2345 h 3.695 2.58 3.694 c 0.176,0 0.293,-0.0586 0.41,-0.2345 l 4.985,-8.6198 c 0.058,-0.1173 0.058,-0.2932 0,-0.4691 l -4.985,-8.6198 c -0.058,-0.1173 -0.234,-0.2345 -0.41,-0.2345 z m -4.691,14.4249 -2.991,-5.1602 c -0.058,-0.1172 -0.058,-0.2931 0,-0.4691 l 2.991,-5.1601 c 0.058,-0.1173 0.234,-0.2345 0.41,-0.2345 h 5.981 c 0.176,0 0.293,0.0586 0.411,0.2345 l 2.99,5.1601 c 0.059,0.1173 0.059,0.2932 0,0.4691 l -2.99,5.1602 c -0.059,0.1173 -0.235,0.2345 -0.411,0.2345 h -5.981 c -0.176,0 -0.293,-0.0586 -0.41,-0.2345 z"
     id="path4"
     inkscape:connector-curvature="0"
     style="fill:#333333" />
  <path
     d="m 139.138,11.435647 h -2.581 -3.694 c -0.176,0 -0.293,0.0586 -0.41,0.2345 l -4.984,8.6198 c -0.059,0.1173 -0.059,0.2932 0,0.4691 l 4.984,8.6198 c 0.058,0.1172 0.234,0.2345 0.41,0.2345 h 3.694 2.581 3.694 c 0.176,0 0.293,-0.0586 0.41,-0.2345 l 4.984,-8.6198 c 0.059,-0.1173 0.059,-0.2932 0,-0.4691 l -4.984,-8.6198 c -0.058,-0.1173 -0.234,-0.2345 -0.41,-0.2345 z m -4.692,14.4249 -2.99,-5.1602 c -0.059,-0.1172 -0.059,-0.2931 0,-0.4691 l 2.99,-5.1601 c 0.059,-0.1173 0.235,-0.2345 0.411,-0.2345 h 5.981 c 0.176,0 0.293,0.0586 0.411,0.2345 l 2.99,5.1601 c 0.059,0.1173 0.059,0.2932 0,0.4691 l -2.99,5.1602 c -0.059,0.1173 -0.235,0.2345 -0.411,0.2345 h -5.981 c -0.176,0 -0.293,-0.0586 -0.411,-0.2345 z"
     id="path6"
     inkscape:connector-curvature="0"
     style="fill:#333333" />
  <path
     d="m 90.3509,14.836547 h 9.382 c 0.3521,0 0.5861,-0.3518 0.4101,-0.7036 l -1.4655,-2.5214 c -0.0587,-0.1173 -0.2346,-0.2346 -0.4105,-0.2346 h -6.2743 -3.6942 c -0.1759,0 -0.2932,0.0586 -0.4104,0.2346 l -4.9843,8.6197 c -0.0586,0.1173 -0.0586,0.2932 0,0.4691 l 4.9843,8.6198 c 0.0586,0.1173 0.2345,0.2346 0.4104,0.2346 h 3.6942 6.2743 c 0.1759,0 0.2932,-0.0587 0.4105,-0.2346 l 1.4655,-2.5214 c 0.176,-0.2932 -0.058,-0.7037 -0.4101,-0.7037 h -9.382 c -0.1759,0 -0.2932,-0.0586 -0.4105,-0.2345 l -2.9905,-5.1602 c -0.0587,-0.1172 -0.0587,-0.2932 0,-0.4691 l 2.9905,-5.1601 c 0.1173,-0.1759 0.2932,-0.2346 0.4105,-0.2346 z"
     id="path8"
     inkscape:connector-curvature="0"
     style="fill:#333333" />
  <path
     d="m 32.119,11.376947 h -2.5801 -3.6355 c -0.1759,0 -0.3519,0.1173 -0.4105,0.2346 l -4.9256,8.5611 c -0.0586,0.1759 -0.0586,0.3518 0,0.4691 l 4.9256,8.5611 c 0.0586,0.1759 0.2346,0.2346 0.4105,0.2346 h 3.6355 2.5801 3.6355 c 0.1759,0 0.3519,-0.1173 0.4105,-0.2346 l 4.9256,-8.5611 c 0.0586,-0.1759 0.0586,-0.3518 0,-0.4691 l -4.9256,-8.5611 c -0.0586,-0.176 -0.2346,-0.2346 -0.4105,-0.2346 z m -4.6911,14.4249 -2.9905,-5.1601 c -0.0586,-0.1759 -0.0586,-0.3518 0,-0.4691 l 2.9905,-5.1601 c 0.0587,-0.176 0.2346,-0.2346 0.4105,-0.2346 h 5.9224 c 0.1759,0 0.3519,0.1173 0.4105,0.2346 l 2.9906,5.1601 c 0.0586,0.1759 0.0586,0.3518 0,0.4691 l -2.9906,5.1601 c -0.0586,0.1759 -0.2346,0.2346 -0.4105,0.2346 h -5.9224 c -0.1759,0 -0.2932,-0.1173 -0.4105,-0.2346 z"
     id="path10"
     inkscape:connector-curvature="0"
     style="fill:#333333" />
  <path
     d="m 75.042,15.481547 -2.5214,1.466 c -0.1173,0.0586 -0.2346,0.2345 -0.2346,0.4105 v 9.9098 c 0,0.1759 0.0587,0.2931 0.2346,0.4104 l 2.5214,1.466 c 0.2932,0.1759 0.7037,-0.0587 0.7037,-0.4105 v -12.7831 c 0,-0.4691 -0.4105,-0.645 -0.7037,-0.4691 z"
     id="path12"
     inkscape:connector-curvature="0"
     style="fill:#333333" />
  <path
     d="m 64.9562,12.021947 v -3.98737 -6.15698 c 0,-0.17592 -0.1173,-0.35183 -0.2346,-0.41047 L 62.3175,0.05982196 c -0.3519,-0.1759136 -0.7623,0.058636 -0.7623,0.410464 v 9.55796104 3.9874 l -1.4074,-2.4042 c -0.0586,-0.1759 -0.2345,-0.2345 -0.4104,-0.2345 h -3.6355 -2.5801 -3.6942 c -0.1759,0 -0.3518,0.1173 -0.4105,0.2345 l -1.8177,3.1665 -1.2901,2.2282 -1.8178,3.1665 c -0.0586,0.1759 -0.0586,0.3518 0,0.4691 l 1.8178,3.1664 1.2901,2.2283 1.8177,3.1664 c 0.0587,0.1759 0.2346,0.2346 0.4105,0.2346 h 3.6355 2.5801 3.6356 c 0.1759,0 0.3518,-0.1173 0.4104,-0.2346 l 0.8796,-1.4659 c 0.1173,-0.2346 0.4104,-0.2932 0.645,-0.1759 l 2.5801,1.4659 c 0.3518,0.1759 0.7623,-0.0586 0.7623,-0.4105 z m -13.604,13.7799 -2.9906,-5.1601 c -0.0586,-0.1759 -0.0586,-0.3518 0,-0.4691 l 2.9906,-5.1602 c 0.0586,-0.1759 0.2345,-0.2345 0.4104,-0.2345 h 5.9225 c 0.1759,0 0.3518,0.1173 0.4104,0.2345 l 2.9906,5.1602 c 0.0586,0.1759 0.0586,0.3518 0,0.4691 l -2.9906,5.1601 c -0.0586,0.1759 -0.2345,0.2346 -0.4104,0.2346 h -5.9225 c -0.1759,0 -0.2932,-0.1173 -0.4104,-0.2346 z"
     id="path14"
     inkscape:connector-curvature="0"
     style="fill:#333333" />
  <path
     d="m 72.3445,6.509997 v 6.03975 c 0,0.3518 0.3518,0.5863 0.7036,0.4104 l 2.5215,-1.4659 c 0.1172,-0.0587 0.2345,-0.2346 0.2345,-0.4105 v -3.16644 c 0,-0.17591 -0.0586,-0.29319 -0.2345,-0.41046 l -2.5215,-1.46595 c -0.3518,-0.11728 -0.7036,0.11727 -0.7036,0.4691 z"
     id="path16"
     inkscape:connector-curvature="0"
     style="fill:#333333" />
  <path
     d="m 7.31509,14.777947 h 9.49931 c 0.3519,0 0.5278,-0.3518 0.3519,-0.645 l -1.466,-2.5801 c -0.0586,-0.1173 -0.2345,-0.2346 -0.3518,-0.2346 H 9.07423 5.38005 c -0.17591,0 -0.29321,0.0587 -0.35185,0.2346 l -4.98422157,8.6198 c -0.0586379,0.1173 -0.0586379,0.2932 0,0.4104 L 5.0282,29.202847 c 0.05864,0.1173 0.23457,0.2346 0.35185,0.2346 h 3.69418 6.27427 c 0.1759,0 0.2932,-0.0587 0.3518,-0.2346 l 1.466,-2.5801 c 0.1759,-0.2931 -0.0587,-0.645 -0.3519,-0.645 H 7.31509 c -0.17591,0 -0.29317,-0.0586 -0.35181,-0.2345 l -2.99055,-5.2188 c -0.05864,-0.1173 -0.05864,-0.2932 0,-0.4105 l 2.99055,-5.2187 c 0.05864,-0.0587 0.23454,-0.1173 0.35181,-0.1173 z"
     id="path18"
     inkscape:connector-curvature="0"
     style="fill:#333333" />
</svg>
