<?xml version="1.0" encoding="UTF-8" standalone="no"?>
<svg
   xmlns:dc="http://purl.org/dc/elements/1.1/"
   xmlns:cc="http://creativecommons.org/ns#"
   xmlns:rdf="http://www.w3.org/1999/02/22-rdf-syntax-ns#"
   xmlns:svg="http://www.w3.org/2000/svg"
   xmlns="http://www.w3.org/2000/svg"
   xmlns:sodipodi="http://sodipodi.sourceforge.net/DTD/sodipodi-0.dtd"
   xmlns:inkscape="http://www.inkscape.org/namespaces/inkscape"
   width="138"
   height="50"
   viewBox="0 0 138 50"
   fill="none"
   version="1.1"
   id="svg55"
   sodipodi:docname="logo_full--shadow.svg"
   inkscape:version="0.92.4 (5da689c313, 2019-01-14)">
  <metadata
     id="metadata59">
    <rdf:RDF>
      <cc:Work
         rdf:about="">
        <dc:format>image/svg+xml</dc:format>
        <dc:type
           rdf:resource="http://purl.org/dc/dcmitype/StillImage" />
        <dc:title></dc:title>
      </cc:Work>
    </rdf:RDF>
  </metadata>
  <sodipodi:namedview
     pagecolor="#ffffff"
     bordercolor="#666666"
     borderopacity="1"
     objecttolerance="10"
     gridtolerance="10"
     guidetolerance="10"
     inkscape:pageopacity="0"
     inkscape:pageshadow="2"
     inkscape:window-width="1319"
     inkscape:window-height="629"
     id="namedview57"
     showgrid="false"
     inkscape:zoom="2.4130435"
     inkscape:cx="69"
     inkscape:cy="25"
     inkscape:window-x="0"
     inkscape:window-y="0"
     inkscape:window-maximized="0"
     inkscape:current-layer="svg55" />
  <g
     filter="url(#filter0_i)"
     id="g34">
    <path
       d="M44.5249 27.4731C44.439 27.3012 44.2242 27.2153 44.0524 27.2153H36.7926C36.5778 27.2153 36.406 27.3012 36.3201 27.4731L32.6687 33.7878C32.5828 33.9596 32.5828 34.1744 32.6687 34.3463L36.3201 40.661C36.406 40.8328 36.6208 40.9187 36.7926 40.9187H44.0524C44.2672 40.9187 44.439 40.8328 44.5249 40.661L48.1763 34.3463C48.2622 34.1744 48.2622 33.9596 48.1763 33.7878L44.5249 27.4731ZM44.8686 34.0885L42.6778 37.8687C42.6348 37.9117 42.6348 37.9117 42.5918 37.9117H38.2102C38.1672 37.9117 38.1243 37.8687 38.1243 37.8687L35.9335 34.0885C35.9335 34.0456 35.9335 34.0026 35.9335 33.9596L38.1243 30.1794C38.1672 30.1364 38.1672 30.1364 38.2102 30.1364H42.5918C42.6348 30.1364 42.6778 30.1794 42.6778 30.1794L44.8686 33.9596C44.9115 34.0455 44.9115 34.0885 44.8686 34.0885Z"
       fill="white"
       id="path2" />
    <path
       d="M137.7 28.5898L135.852 27.5159C135.681 27.4299 135.466 27.4299 135.294 27.5159C135.122 27.6018 135.036 27.7736 135.036 27.9884V35.7637V35.8066L133.833 37.8686C133.79 37.9115 133.79 37.9115 133.747 37.9115H129.366C129.323 37.9115 129.28 37.8686 129.28 37.8686L128.077 35.8066V35.7637V27.9884C128.077 27.7736 127.991 27.6018 127.819 27.5159C127.648 27.4299 127.433 27.4299 127.261 27.5159L125.414 28.5898C125.242 28.6757 125.156 28.8475 125.156 29.0623V36.451C125.156 36.5369 125.199 36.6228 125.242 36.7087L127.476 40.6178C127.562 40.7897 127.776 40.8756 127.948 40.8756H135.208C135.423 40.8756 135.595 40.7897 135.681 40.6178L137.914 36.7517C137.957 36.6658 138 36.5799 138 36.4939V29.1053C137.957 28.8475 137.828 28.6757 137.7 28.5898Z"
       fill="white"
       id="path4" />
    <path
       d="M79.0626 27.2153H71.8029C71.5881 27.2153 71.4162 27.3012 71.3303 27.4731L67.6789 33.7878C67.593 33.9596 67.593 34.1744 67.6789 34.3463L71.3303 40.661C71.4162 40.8328 71.5881 40.9187 71.8029 40.9187H77.8598C78.0746 40.9187 78.2465 40.8328 78.3324 40.661L79.4063 38.8138C79.4922 38.642 79.4922 38.4272 79.4063 38.2554C79.3204 38.0835 79.1486 37.9976 78.9338 37.9976H73.2634C73.2204 37.9976 73.1775 37.9547 73.1775 37.9547L71.8888 35.7638C71.8458 35.7209 71.8888 35.6779 71.8888 35.635C71.8888 35.635 71.9317 35.592 71.9747 35.592H80.738C80.9528 35.592 81.1246 35.5061 81.2105 35.3343L82.6281 32.8857L79.5352 27.559C79.4493 27.3012 79.2774 27.2153 79.0626 27.2153ZM79.0197 32.542C79.0197 32.542 78.9767 32.585 78.9338 32.585H72.0176C71.9747 32.585 71.9317 32.542 71.9317 32.542C71.9317 32.542 71.8888 32.4561 71.9317 32.4132L73.2204 30.2223C73.2634 30.1794 73.2634 30.1794 73.3064 30.1794H77.688C77.731 30.1794 77.7739 30.2223 77.7739 30.2223L79.0626 32.4132C79.0197 32.4561 79.0197 32.4991 79.0197 32.542Z"
       fill="white"
       id="path6" />
    <path
       d="M103.634 27.4731C103.548 27.3012 103.334 27.2153 103.162 27.2153H97.1047C96.8899 27.2153 96.7181 27.3012 96.6322 27.4731L95.5582 29.3202C95.4723 29.4921 95.4723 29.7069 95.5582 29.8787C95.6441 30.0505 95.816 30.1364 96.0307 30.1364H101.701C101.744 30.1364 101.787 30.1794 101.787 30.1794L103.076 32.3702C103.119 32.4132 103.076 32.4561 103.076 32.4991C103.076 32.4991 103.033 32.542 102.99 32.542H94.2266C94.0118 32.542 93.8399 32.628 93.754 32.7998L92.3364 35.2483L95.3864 40.5751C95.4723 40.7469 95.6441 40.8328 95.8589 40.8328H103.119C103.333 40.8328 103.505 40.7469 103.591 40.5751L107.243 34.2603C107.329 34.0885 107.329 33.8737 107.243 33.7019L103.634 27.4731ZM95.9878 35.592C95.9878 35.592 96.0308 35.5491 96.0737 35.5491H102.99C103.033 35.5491 103.076 35.592 103.076 35.592C103.076 35.592 103.119 35.6779 103.076 35.7209L101.787 37.9117C101.744 37.9547 101.744 37.9547 101.701 37.9547H97.3195C97.2765 37.9547 97.2336 37.9117 97.2336 37.9117L95.9449 35.7209C95.9449 35.635 95.9448 35.592 95.9878 35.592Z"
       fill="white"
       id="path8" />
    <path
       d="M91.4346 27.2153H89.3297C89.1149 27.2153 88.9431 27.3012 88.8572 27.4731L88.1698 28.6759C88.1698 28.7188 88.1269 28.7188 88.0839 28.7188C88.041 28.7188 88.041 28.7188 87.998 28.7188L85.936 27.516C85.7642 27.4301 85.5494 27.4301 85.3776 27.516C85.2058 27.6019 85.1199 27.7738 85.1199 27.9886V40.1025C85.1199 40.3173 85.2058 40.4892 85.3776 40.5751C85.4635 40.618 85.5495 40.661 85.6354 40.661C85.7213 40.661 85.8072 40.618 85.8931 40.5751L87.7403 39.5011C87.9121 39.4152 87.998 39.2434 87.998 39.0286V34.7758V34.7329L91.8642 28.0315C91.9501 27.8597 91.9501 27.6449 91.8642 27.4731C91.8212 27.3012 91.6064 27.2153 91.4346 27.2153Z"
       fill="white"
       id="path10" />
    <path
       d="M62.0086 27.4731C61.9227 27.3012 61.7079 27.2153 61.5361 27.2153H54.2763C54.0615 27.2153 53.8897 27.3012 53.8037 27.4731L53.1594 28.59C53.1594 28.6329 53.1164 28.6329 53.0735 28.6329C53.0305 28.6329 52.9876 28.6329 52.9876 28.6329L51.0545 27.516C50.8827 27.4301 50.6678 27.4301 50.496 27.516C50.3242 27.6019 50.2383 27.7738 50.2383 27.9886V47.6201C50.2383 47.8349 50.3242 48.0067 50.496 48.0926L52.3432 49.1665C52.4291 49.2095 52.515 49.2524 52.6009 49.2524C52.6869 49.2524 52.7728 49.2095 52.8587 49.1665C53.0305 49.0806 53.1164 48.9088 53.1164 48.694V39.5011L53.7608 40.618C53.8467 40.7898 54.0615 40.8758 54.2333 40.8758H61.4931C61.7079 40.8758 61.8797 40.7898 61.9656 40.618L65.617 34.3033C65.7029 34.1315 65.7029 33.9167 65.617 33.7448L62.0086 27.4731ZM62.3952 34.0885L60.2044 37.8687C60.1614 37.9117 60.1614 37.9117 60.1185 37.9117H55.7368C55.6939 37.9117 55.6509 37.8687 55.6509 37.8687L53.4601 34.0885C53.4601 34.0456 53.4601 34.0026 53.4601 33.9596L55.6509 30.1794C55.6939 30.1364 55.6939 30.1364 55.7368 30.1364H60.1185C60.1614 30.1364 60.2044 30.1794 60.2044 30.1794L62.3952 33.9596C62.4382 34.0455 62.4382 34.0885 62.3952 34.0885Z"
       fill="white"
       id="path12" />
    <path
       d="M115.405 22.4899H114.331C114.245 22.4899 114.202 22.447 114.202 22.361V21.0723C114.202 20.8575 114.116 20.6857 113.944 20.5998L112.097 19.5259C111.925 19.4399 111.71 19.4399 111.538 19.5259C111.367 19.6118 111.281 19.7836 111.281 19.9984V22.3181C111.281 22.404 111.238 22.447 111.152 22.447H105.997C105.782 22.447 105.61 22.5329 105.524 22.7047C105.438 22.8765 105.438 23.0913 105.524 23.2632L106.598 25.1103C106.684 25.2821 106.899 25.3681 107.071 25.3681H111.152C111.238 25.3681 111.281 25.411 111.281 25.4969V39.6299C111.281 39.8447 111.367 40.0165 111.538 40.1024L113.386 41.1764C113.472 41.2193 113.557 41.2623 113.643 41.2623C113.729 41.2623 113.815 41.2193 113.901 41.1764C114.073 41.0905 114.159 40.9186 114.159 40.7038V25.4969C114.159 25.411 114.202 25.3681 114.288 25.3681C114.502 25.3681 114.674 25.2821 114.76 25.1103L115.834 23.2632C115.92 23.0913 115.92 22.8765 115.834 22.7047C115.791 22.6188 115.619 22.4899 115.405 22.4899Z"
       fill="white"
       id="path14" />
    <path
       d="M26.9983 27.4731C26.9124 27.3012 26.6976 27.2153 26.5258 27.2153H19.266C19.0512 27.2153 18.8794 27.3012 18.7934 27.4731L15.1421 33.7878C15.0562 33.9596 15.0562 34.1744 15.1421 34.3463L18.7934 40.661C18.8794 40.8328 19.0942 40.9187 19.266 40.9187H26.5258C26.7406 40.9187 26.9124 40.8328 26.9983 40.661L30.6497 34.3463C30.7356 34.1744 30.7356 33.9596 30.6497 33.7878L26.9983 27.4731ZM27.3849 34.0885L25.1941 37.8687C25.1511 37.9117 25.1511 37.9117 25.1082 37.9117H20.7265C20.6836 37.9117 20.6406 37.8687 20.6406 37.8687L18.4498 34.0885C18.4498 34.0456 18.4498 34.0026 18.4498 33.9596L20.6406 30.1794C20.6836 30.1364 20.6836 30.1364 20.7265 30.1364H25.1082C25.1511 30.1364 25.1941 30.1794 25.1941 30.1794L27.3849 33.9596C27.3849 34.0455 27.3849 34.0885 27.3849 34.0885Z"
       fill="white"
       id="path16" />
    <path
       d="M5.56273 30.1794C5.60569 30.1364 5.60569 30.1364 5.64865 30.1364H12.5218C12.7366 30.1364 12.9084 30.0505 12.9943 29.8787C13.0803 29.7069 13.0803 29.4921 12.9943 29.3202L11.9204 27.4731C11.8345 27.3012 11.6197 27.2153 11.4479 27.2153H4.18809C3.9733 27.2153 3.80148 27.3012 3.71557 27.4731L0.0641919 33.7878C-0.0217228 33.9596 -0.0217228 34.1744 0.0641919 34.3463L3.71557 40.661C3.80148 40.8328 4.01626 40.9187 4.18809 40.9187H11.4479C11.6627 40.9187 11.8345 40.8328 11.9204 40.661L12.9943 38.8138C13.0803 38.642 13.0803 38.4272 12.9943 38.2554C12.9084 38.0835 12.7366 37.9976 12.5218 37.9976H5.64865C5.60569 37.9976 5.56273 37.9547 5.56273 37.9547L3.37191 34.1744C3.37191 34.1315 3.37191 34.0885 3.37191 34.0455L5.56273 30.1794Z"
       fill="white"
       id="path18" />
    <path
       d="M121.376 30.5659C121.204 30.48 120.989 30.48 120.817 30.5659L118.97 31.6398C118.798 31.7257 118.712 31.9405 118.712 32.1124V39.3722C118.712 39.5869 118.798 39.7588 118.97 39.8447L120.817 40.9186C120.903 40.9616 120.989 41.0045 121.075 41.0045C121.161 41.0045 121.247 40.9616 121.333 40.9186C121.505 40.8327 121.591 40.6609 121.591 40.4461V31.0384C121.676 30.8236 121.548 30.6518 121.376 30.5659Z"
       fill="white"
       id="path20" />
    <path
       d="M121.376 24.7665L119.529 23.6926C119.357 23.6067 119.142 23.6067 118.97 23.6926C118.798 23.7785 118.712 23.9504 118.712 24.1651V28.5897C118.712 28.8045 118.798 28.9764 118.97 29.0623C119.056 29.1052 119.142 29.1482 119.228 29.1482C119.314 29.1482 119.4 29.1052 119.486 29.0623L121.333 27.9883C121.505 27.9024 121.591 27.7306 121.591 27.5158V25.1961C121.676 25.0243 121.548 24.8525 121.376 24.7665Z"
       fill="white"
       id="path22" />
    <path
       d="M26.9985 9.21598C26.9126 9.04415 26.6978 8.91528 26.483 8.91528H19.2232C19.0085 8.91528 18.8366 9.04415 18.7077 9.21598L15.0993 15.4878C15.0134 15.6596 15.0134 15.8744 15.0993 16.0462L18.7077 22.318C18.7937 22.4898 19.0085 22.6187 19.2232 22.6187H26.483C26.6978 22.6187 26.8697 22.4898 26.9985 22.318L30.6069 16.0462C30.6929 15.8744 30.6929 15.6596 30.6069 15.4878L26.9985 9.21598ZM27.3422 15.8744L25.1514 19.6546C25.1084 19.6976 25.0654 19.7405 25.0225 19.7405H20.6838C20.6408 19.7405 20.5979 19.6976 20.5549 19.6546L18.3641 15.8744C18.3211 15.8314 18.3211 15.7885 18.3641 15.7455L20.5549 11.9653C20.5979 11.9223 20.6408 11.8793 20.6838 11.8793H25.0225C25.0654 11.8793 25.1084 11.9223 25.1514 11.9653L27.3422 15.7455C27.3851 15.7455 27.3851 15.8314 27.3422 15.8744Z"
       fill="white"
       id="path24" />
    <path
       d="M55.7371 11.9653C55.5653 11.8794 55.3505 11.8794 55.1787 11.9653L53.3315 13.0392C53.1597 13.1252 53.0737 13.3399 53.0737 13.5118V20.7716C53.0737 20.9864 53.1597 21.1582 53.3315 21.2441L55.1787 22.318C55.2646 22.361 55.3505 22.4039 55.4364 22.4039C55.5223 22.4039 55.6082 22.361 55.6941 22.318C55.866 22.2321 55.9519 22.0603 55.9519 21.8455V12.4808C55.9948 12.266 55.9089 12.0942 55.7371 11.9653Z"
       fill="white"
       id="path26" />
    <path
       d="M47.7899 1.6985L46.0287 0.667524C45.8568 0.58161 45.642 0.58161 45.4702 0.667524C45.2984 0.753439 45.1695 0.968225 45.1695 1.18301V10.29L44.5252 9.21603C44.4392 9.0442 44.2244 8.91533 44.0097 8.91533H36.7499C36.5351 8.91533 36.3633 9.0442 36.2344 9.21603L32.626 15.4878C32.54 15.6596 32.54 15.8744 32.626 16.0463L36.2344 22.318C36.3203 22.4899 36.5351 22.6187 36.7499 22.6187H44.0097C44.2244 22.6187 44.3963 22.4899 44.5252 22.318L45.1695 21.2441C45.1695 21.2011 45.2125 21.2011 45.2554 21.1582C45.2984 21.1582 45.3413 21.1582 45.3843 21.1582L47.2744 22.2321C47.4462 22.318 47.661 22.318 47.8329 22.2321C48.0047 22.1462 48.1336 21.9314 48.1336 21.7166V2.12807C48.0906 1.9992 47.9617 1.82737 47.7899 1.6985ZM44.8688 15.8744L42.678 19.6547C42.635 19.6976 42.5921 19.7406 42.5491 19.7406H38.2104C38.1675 19.7406 38.1245 19.6976 38.0815 19.6547L35.8907 15.8744C35.8478 15.8315 35.8478 15.7885 35.8907 15.7456L38.0815 11.9653C38.1245 11.9224 38.1675 11.8794 38.2104 11.8794H42.5491C42.5921 11.8794 42.635 11.9224 42.678 11.9653L44.8688 15.7456C44.9118 15.7456 44.9118 15.8315 44.8688 15.8744Z"
       fill="white"
       id="path28" />
    <path
       d="M55.7371 6.16596L53.8899 5.09202C53.7181 5.00611 53.5033 5.00611 53.3315 5.09202C53.1597 5.17794 53.0737 5.34976 53.0737 5.56455V9.98916C53.0737 10.2039 53.1597 10.3758 53.3315 10.4617C53.4174 10.5047 53.5033 10.5476 53.5892 10.5476C53.6751 10.5476 53.7611 10.5047 53.847 10.4617L55.6941 9.38776C55.866 9.30184 55.9519 9.13001 55.9519 8.91523V6.59553C55.9948 6.46666 55.9089 6.25187 55.7371 6.16596Z"
       fill="white"
       id="path30" />
    <path
       d="M5.56275 11.9223C5.56275 11.8793 5.60571 11.8793 5.64866 11.8793H12.6078C12.7796 11.8793 12.9514 11.7934 13.0373 11.6216C13.1232 11.4498 13.1232 11.2779 13.0373 11.1061L11.9634 9.21599C11.8775 9.04416 11.7057 8.95825 11.5338 8.95825H4.23108C4.05925 8.95825 3.88742 9.04416 3.8015 9.21599L0.150129 15.5307C0.0642147 15.7026 0.0642147 15.8744 0.150129 16.0462L3.8015 22.3609C3.88742 22.5328 4.05925 22.6187 4.23108 22.6187H11.5338C11.7057 22.6187 11.8775 22.5328 11.9634 22.3609L13.0373 20.4708C13.1232 20.299 13.1232 20.1272 13.0373 19.9553C12.9514 19.7835 12.7796 19.6976 12.6078 19.6976H5.64866C5.60571 19.6976 5.56275 19.6976 5.56275 19.6546L3.37193 15.8314C3.37193 15.7885 3.37193 15.7455 3.37193 15.7455L5.56275 11.9223Z"
       fill="white"
       id="path32" />
  </g>
  <defs
     id="defs53">
    <filter
       id="filter0_i"
       x="-0.000244141"
       y="0.603088"
       width="138.5"
       height="49.1494"
       filterUnits="userSpaceOnUse"
       color-interpolation-filters="sRGB">
      <feFlood
         flood-opacity="0"
         result="BackgroundImageFix"
         id="feFlood36" />
      <feBlend
         mode="normal"
         in="SourceGraphic"
         in2="BackgroundImageFix"
         result="shape"
         id="feBlend38" />
      <feColorMatrix
         in="SourceAlpha"
         type="matrix"
         values="0 0 0 0 0 0 0 0 0 0 0 0 0 0 0 0 0 0 127 0"
         result="hardAlpha"
         id="feColorMatrix40" />
      <feOffset
         dx="0.5"
         dy="0.5"
         id="feOffset42" />
      <feGaussianBlur
         stdDeviation="0.25"
         id="feGaussianBlur44" />
      <feComposite
         in2="hardAlpha"
         operator="arithmetic"
         k2="-1"
         k3="1"
         id="feComposite46" />
      <feColorMatrix
         type="matrix"
         values="0 0 0 0 0.152941 0 0 0 0 0.145098 0 0 0 0 0.145098 0 0 0 0.5 0"
         id="feColorMatrix48" />
      <feBlend
         mode="normal"
         in2="shape"
         result="effect1_innerShadow"
         id="feBlend50" />
    </filter>
  </defs>
</svg>
