<?xml version="1.0" encoding="UTF-8" standalone="no"?>
<svg
   xmlns:dc="http://purl.org/dc/elements/1.1/"
   xmlns:cc="http://creativecommons.org/ns#"
   xmlns:rdf="http://www.w3.org/1999/02/22-rdf-syntax-ns#"
   xmlns:svg="http://www.w3.org/2000/svg"
   xmlns="http://www.w3.org/2000/svg"
   xmlns:sodipodi="http://sodipodi.sourceforge.net/DTD/sodipodi-0.dtd"
   xmlns:inkscape="http://www.inkscape.org/namespaces/inkscape"
   id="Capa_1"
   data-name="Capa 1"
   viewBox="0 0 960.22861 336.90564"
   version="1.1"
   sodipodi:docname="logo_full--footer.svg"
   width="960.22852"
   height="336.90564"
   inkscape:version="0.92.4 (5da689c313, 2019-01-14)">
  <metadata
     id="metadata41">
    <rdf:RDF>
      <cc:Work
         rdf:about="">
        <dc:format>image/svg+xml</dc:format>
        <dc:type
           rdf:resource="http://purl.org/dc/dcmitype/StillImage" />
        <dc:title></dc:title>
      </cc:Work>
    </rdf:RDF>
  </metadata>
  <sodipodi:namedview
     pagecolor="#ffffff"
     bordercolor="#666666"
     borderopacity="1"
     objecttolerance="10"
     gridtolerance="10"
     guidetolerance="10"
     inkscape:pageopacity="0"
     inkscape:pageshadow="2"
     inkscape:window-width="1366"
     inkscape:window-height="705"
     id="namedview39"
     showgrid="false"
     inkscape:zoom="0.54"
     inkscape:cx="555.9884"
     inkscape:cy="3.1840259"
     inkscape:window-x="-8"
     inkscape:window-y="-8"
     inkscape:window-maximized="1"
     inkscape:current-layer="Capa_1"
     fit-margin-top="0"
     fit-margin-left="0"
     fit-margin-right="0"
     fit-margin-bottom="0" />
  <defs
     id="defs4">
    <style
       id="style2">.cls-1{fill:#fff;}.cls-2{fill:#62b9c4;}</style>
  </defs>
  <path
     class="cls-1"
     d="m 287.14592,185.72488 h -32.1 a 2.25,2.25 0 0 0 -2.1,1.2 l -9.3,16.2 v 0 l -6.6,11.4 v 0 l -9.30001,16.20001 a 3.3,3.3 0 0 0 0,2.4 l 9.30001,16.2 v 0 l 6.6,11.39998 v 0 l 9.3,16.2 a 2.52,2.52 0 0 0 2.1,1.2 h 51 a 2.25,2.25 0 0 0 2.1,-1.2 l 25.5,-44.09998 a 3.3,3.3 0 0 0 0,-2.4 l -25.5,-44.10001 a 2.52,2.52 0 0 0 -2.1,-1.2 h -18.9 z m -24,73.79999 -15.3,-26.39998 a 3.3,3.3 0 0 1 0,-2.4 l 15.3,-26.40001 a 2.52,2.52 0 0 1 2.1,-1.2 h 30.6 a 2.25,2.25 0 0 1 2.1,1.2 l 15.3,26.40001 a 3.3,3.3 0 0 1 0,2.4 l -15.3,26.39998 a 2.52,2.52 0 0 1 -2.1,1.2 h -30.6 a 2.01,2.01 0 0 1 -2.1,-1.2 z"
     id="path6"
     inkscape:connector-curvature="0"
     style="fill:#ffffff;stroke-width:3" />
  <path
     class="cls-1"
     d="m 960.22591,248.72489 v -51.60001 a 2.25,2.25 0 0 0 -1.2,-2.1 l -12.9,-7.5 a 2.46,2.46 0 0 0 -3.6,2.1 v 54.30001 a 1.8,1.8 0 0 1 -0.3,1.2 l -8.4,14.39998 a 2.52,2.52 0 0 1 -2.1,1.2 h -30.3 a 2.25,2.25 0 0 1 -2.1,-1.2 l -8.4,-14.39998 a 1.8,1.8 0 0 1 -0.3,-1.2 v -54.30001 a 2.4,2.4 0 0 0 -3.6,-2.1 l -12.9,7.5 a 2.52,2.52 0 0 0 -1.2,2.1 v 51.60001 a 1.8,1.8 0 0 0 0.3,1.2 l 15.6,27.29998 a 2.52,2.52 0 0 0 2.1,1.2 h 51 a 2.25,2.25 0 0 0 2.1,-1.2 l 15.6,-26.99998 c 0.42,-0.6 0.6,-0.9 0.6,-1.5 z"
     id="path8"
     inkscape:connector-curvature="0"
     style="fill:#ffffff;stroke-width:3" />
  <path
     class="cls-1"
     d="m 573.64591,223.22489 v 0 l -21,-36.30001 a 2.52,2.52 0 0 0 -2.1,-1.2 h -51 a 2.25,2.25 0 0 0 -2.1,1.2 l -9.3,16.2 v 0 l -15.9,27.60001 a 3.3,3.3 0 0 0 0,2.4 l 25.5,44.09998 a 2.52,2.52 0 0 0 2.1,1.2 h 42.3 a 2.25,2.25 0 0 0 2.1,-1.2 l 7.5,-12.9 a 2.46,2.46 0 0 0 -2.1,-3.6 h -39.6 a 2.25,2.25 0 0 1 -2.1,-1.2 l -9,-15.29998 a 2.46,2.46 0 0 1 2.1,-3.6 h 61.2 a 2.25,2.25 0 0 0 2.1,-1.2 z m -74.7,-3.6 9,-15.30001 a 2.52,2.52 0 0 1 2.1,-1.2 h 30.6 a 2.25,2.25 0 0 1 2.1,1.2 l 9,15.30001 a 2.46,2.46 0 0 1 -2.1,3.6 h -48.42 a 2.49,2.49 0 0 1 -2.28,-3.6 z"
     id="path10"
     inkscape:connector-curvature="0"
     style="fill:#ffffff;stroke-width:3" />
  <path
     class="cls-1"
     d="m 645.04591,240.62489 v 0 l 21,36.29998 a 2.52,2.52 0 0 0 2.1,1.2 h 51 a 2.25,2.25 0 0 0 2.1,-1.2 l 9.3,-16.2 v 0 l 15.9,-27.59998 a 3.3,3.3 0 0 0 0,-2.4 l -25.5,-44.10001 a 2.52,2.52 0 0 0 -2.1,-1.2 h -42.3 a 2.25,2.25 0 0 0 -2.1,1.2 l -7.5,12.9 a 2.46,2.46 0 0 0 2.1,3.6 h 39.6 a 2.25,2.25 0 0 1 2.1,1.2 l 9,15.30001 a 2.46,2.46 0 0 1 -2.1,3.6 h -61.2 a 2.25,2.25 0 0 0 -2.1,1.2 z m 74.7,3.6 -9,15.29998 a 2.52,2.52 0 0 1 -2.1,1.2 h -30.6 a 2.25,2.25 0 0 1 -2.1,-1.2 l -9,-15.29998 a 2.46,2.46 0 0 1 2.1,-3.6 h 48.18 a 2.49,2.49 0 0 1 2.52,3.6 z"
     id="path12"
     inkscape:connector-curvature="0"
     style="fill:#ffffff;stroke-width:3" />
  <path
     class="cls-1"
     d="m 620.14591,186.92488 -4.8,8.4 a 2.4,2.4 0 0 1 -3.3,0.9 l -14.4,-8.4 a 2.46,2.46 0 0 0 -3.6,2.1 v 84.59999 a 2.4,2.4 0 0 0 3.6,2.1 l 12.9,-7.5 a 2.52,2.52 0 0 0 1.2,-2.1 v -29.69998 a 1.8,1.8 0 0 1 0.3,-1.2 l 27,-46.80001 a 2.46,2.46 0 0 0 -2.1,-3.6 h -14.7 a 2.01,2.01 0 0 0 -2.1,1.2 z"
     id="path14"
     inkscape:connector-curvature="0"
     style="fill:#ffffff;stroke-width:3" />
  <path
     class="cls-1"
     d="m 446.14591,214.52488 -6.6,-11.4 v 0 l -9.3,-16.2 a 2.52,2.52 0 0 0 -2.1,-1.2 h -50.99999 a 2.25,2.25 0 0 0 -2.1,1.2 l -4.5,7.8 a 2.4,2.4 0 0 1 -3.3,0.9 l -13.5,-7.8 a 2.46,2.46 0 0 0 -3.6,2.1 v 137.09999 a 2.25,2.25 0 0 0 1.2,2.1 l 12.9,7.5 a 2.46,2.46 0 0 0 3.6,-2.1 v -69.6 0 l 7.2,12.6 a 2.52,2.52 0 0 0 2.1,1.2 h 50.99999 a 2.25,2.25 0 0 0 2.1,-1.2 l 9.3,-16.2 v 0 l 6.6,-11.39998 v 0 l 9.3,-16.2 a 3.3,3.3 0 0 0 0,-2.4 z m -27.9,46.19999 h -30.59999 a 2.25,2.25 0 0 1 -2.1,-1.2 l -15.3,-26.39998 a 3.3,3.3 0 0 1 0,-2.4 l 15.3,-26.40001 a 2.52,2.52 0 0 1 2.1,-1.2 h 30.59999 a 2.25,2.25 0 0 1 2.1,1.2 l 15.3,26.40001 a 3.3,3.3 0 0 1 0,2.4 l -15.3,26.39998 a 2.61,2.61 0 0 1 -2.1,1.2 z"
     id="path16"
     inkscape:connector-curvature="0"
     style="fill:#ffffff;stroke-width:3" />
  <path
     class="cls-1"
     d="m 793.54591,139.52488 -12.9,-7.5 a 2.46,2.46 0 0 0 -3.6,2.1 v 16.2 a 2.37,2.37 0 0 1 -2.4,2.4 h -36 a 2.4,2.4 0 0 0 -2.1,3.6 l 7.5,12.9 a 2.52,2.52 0 0 0 2.1,1.2 h 28.5 a 2.37,2.37 0 0 1 2.4,2.4 v 98.69999 a 2.25,2.25 0 0 0 1.2,2.1 l 12.9,7.5 a 2.46,2.46 0 0 0 3.6,-2.1 V 172.97488 a 2.37,2.37 0 0 1 2.4,-2.4 v 0 a 2.25,2.25 0 0 0 2.1,-1.2 l 7.5,-12.9 a 2.46,2.46 0 0 0 -2.1,-3.6 h -7.5 a 2.37,2.37 0 0 1 -2.4,-2.4 v -9 a 2.46,2.46 0 0 0 -1.2,-1.95 z"
     id="path18"
     inkscape:connector-curvature="0"
     style="fill:#ffffff;stroke-width:3" />
  <path
     class="cls-1"
     d="m 164.74591,185.72488 h -32.1 a 2.25,2.25 0 0 0 -2.1,1.2 l -25.5,44.10001 a 3.3,3.3 0 0 0 0,2.4 l 25.5,44.09998 a 2.52,2.52 0 0 0 2.1,1.2 h 51 a 2.25,2.25 0 0 0 2.1,-1.2 l 25.5,-44.09998 a 3.3,3.3 0 0 0 0,-2.4 l -25.5,-44.10001 a 2.52,2.52 0 0 0 -2.1,-1.2 z m -24,73.79999 -15.3,-26.39998 a 3.3,3.3 0 0 1 0,-2.4 l 15.3,-26.40001 a 2.52,2.52 0 0 1 2.1,-1.2 h 30.6 a 2.25,2.25 0 0 1 2.1,1.2 l 15.3,26.40001 a 3.3,3.3 0 0 1 0,2.4 l -15.3,26.39998 a 2.52,2.52 0 0 1 -2.1,1.2 h -30.6 a 2.25,2.25 0 0 1 -2.1,-1.2 z"
     id="path20"
     inkscape:connector-curvature="0"
     style="fill:#ffffff;stroke-width:3" />
  <path
     class="cls-1"
     d="m 38.145915,203.12488 h 48.000004 a 2.4,2.4 0 0 0 2.1,-3.6 l -7.499999,-12.9 a 2.52,2.52 0 0 0 -2.100005,-1.2 h -50.7 a 2.25,2.25 0 0 0 -2.1,1.2 L 0.22591477,230.72489 a 3.3,3.3 0 0 0 0,2.4 L 25.725915,277.22487 a 2.52,2.52 0 0 0 2.1,1.2 h 50.7 a 2.25,2.25 0 0 0 2.100005,-1.2 l 7.499999,-12.9 a 2.46,2.46 0 0 0 -2.1,-3.6 H 38.025915 a 2.25,2.25 0 0 1 -2.1,-1.2 l -15.3,-26.39998 a 3.3,3.3 0 0 1 0,-2.4 l 15.3,-26.40001 a 2.01,2.01 0 0 1 2.22,-1.2 z"
     id="path22"
     inkscape:connector-curvature="0"
     style="fill:#ffffff;stroke-width:3" />
  <path
     class="cls-1"
     d="m 843.04591,208.97488 -12.9,7.5 a 2.52,2.52 0 0 0 -1.2,2.10001 v 50.69998 a 2.25,2.25 0 0 0 1.2,2.1 l 12.9,7.5 a 2.46,2.46 0 0 0 3.6,-2.1 v -65.84999 a 2.46,2.46 0 0 0 -3.6,-1.95 z"
     id="path24"
     inkscape:connector-curvature="0"
     style="fill:#ffffff;stroke-width:3" />
  <path
     class="cls-1"
     d="m 832.54591,195.92488 12.9,-7.5 a 2.52,2.52 0 0 0 1.2,-2.1 v -16.2 a 2.25,2.25 0 0 0 -1.2,-2.1 l -12.9,-7.5 a 2.46,2.46 0 0 0 -3.6,2.1 v 30.9 a 2.49,2.49 0 0 0 3.6,2.4 z"
     id="path26"
     inkscape:connector-curvature="0"
     style="fill:#ffffff;stroke-width:3" />
  <path
     class="cls-2"
     d="m 164.74591,58.224876 h -31.8 a 2.52,2.52 0 0 0 -2.1,1.2 l -25.2,43.800004 a 3.3,3.3 0 0 0 0,2.4 l 25.2,43.8 a 2.01,2.01 0 0 0 2.1,1.2 h 50.28 a 2.52,2.52 0 0 0 2.1,-1.2 l 25.2,-43.8 a 3.3,3.3 0 0 0 0,-2.4 l -25.2,-43.800004 a 2.01,2.01 0 0 0 -2.1,-1.2 z m -24,73.800004 -15.3,-26.4 a 3.3,3.3 0 0 1 0,-2.4 l 15.3,-26.400004 a 2.01,2.01 0 0 1 2.1,-1.2 h 30.3 a 2.52,2.52 0 0 1 2.1,1.2 l 15.3,26.400004 a 3.3,3.3 0 0 1 0,2.4 l -15.3,26.4 a 2.01,2.01 0 0 1 -2.1,1.2 h -30.3 a 3,3 0 0 1 -2.1,-1.2 z"
     id="path28"
     inkscape:connector-curvature="0"
     style="fill:#ffffff;stroke-width:3" />
  <path
     class="cls-2"
     d="m 384.22592,79.224876 -12.9,7.500004 a 2.52,2.52 0 0 0 -1.2,2.1 v 50.7 a 2.25,2.25 0 0 0 1.2,2.1 l 12.9,7.5 a 2.46,2.46 0 0 0 3.6,-2.1 V 81.624876 a 2.4,2.4 0 0 0 -3.6,-2.4 z"
     id="path30"
     inkscape:connector-curvature="0"
     style="fill:#ffffff;stroke-width:3" />
  <path
     class="cls-2"
     d="M 332.74592,61.524876 V 9.6248761 a 2.52,2.52 0 0 0 -1.2,-2.1 l -12.3,-7.20000002 a 2.64,2.64 0 0 0 -3.9,2.10000002 v 69.2999999 0 l -7.2,-12.3 a 2.01,2.01 0 0 0 -2.1,-1.2 h -50.4 a 2.52,2.52 0 0 0 -2.1,1.2 l -9.3,16.2 v 0 l -6.6,11.400004 v 0 l -9.3,16.2 a 3.3,3.3 0 0 0 0,2.4 l 9.3,16.2 v 0 l 6.6,11.4 v 0 l 9.3,16.2 a 2.01,2.01 0 0 0 2.1,1.2 h 50.4 a 2.52,2.52 0 0 0 2.1,-1.2 l 4.5,-7.5 a 2.4,2.4 0 0 1 3.3,-0.9 l 13.2,7.5 a 2.64,2.64 0 0 0 3.9,-2.1 V 61.524876 Z m -69.6,70.500004 -15.3,-26.4 a 3.3,3.3 0 0 1 0,-2.4 l 15.3,-26.400004 a 2.01,2.01 0 0 1 2.1,-1.2 h 30.3 a 2.52,2.52 0 0 1 2.1,1.2 l 15.3,26.400004 a 3.3,3.3 0 0 1 0,2.4 l -15.3,26.4 a 2.01,2.01 0 0 1 -2.1,1.2 h -30.3 a 3,3 0 0 1 -2.1,-1.2 z"
     id="path32"
     inkscape:connector-curvature="0"
     style="fill:#ffffff;stroke-width:3" />
  <path
     class="cls-2"
     d="m 37.845915,75.624876 h 48.600004 a 2.1,2.1 0 0 0 1.8,-3.3 l -7.499999,-13.2 a 2.46,2.46 0 0 0 -1.800005,-1.2 h -51 a 1.65,1.65 0 0 0 -1.8,1.2 L 0.64591477,103.22488 a 2.55,2.55 0 0 0 0,2.1 l 25.50000023,44.1 a 2.46,2.46 0 0 0 1.8,1.2 h 51 a 1.65,1.65 0 0 0 1.800005,-1.2 l 7.499999,-13.2 a 2.19,2.19 0 0 0 -1.8,-3.3 H 37.845915 a 1.65,1.65 0 0 1 -1.8,-1.2 l -15.3,-26.7 a 2.55,2.55 0 0 1 0,-2.1 l 15.3,-26.700004 a 3.21,3.21 0 0 1 1.8,-0.6 z"
     id="path36"
     inkscape:connector-curvature="0"
     style="fill:#ffffff;stroke-width:3" />
</svg>
