<?xml version="1.0" encoding="UTF-8" standalone="no"?>
<svg
   xmlns:dc="http://purl.org/dc/elements/1.1/"
   xmlns:cc="http://creativecommons.org/ns#"
   xmlns:rdf="http://www.w3.org/1999/02/22-rdf-syntax-ns#"
   xmlns:svg="http://www.w3.org/2000/svg"
   xmlns="http://www.w3.org/2000/svg"
   xmlns:sodipodi="http://sodipodi.sourceforge.net/DTD/sodipodi-0.dtd"
   xmlns:inkscape="http://www.inkscape.org/namespaces/inkscape"
   id="Capa_1"
   data-name="Capa 1"
   viewBox="0 0 90 50"
   version="1.1"
   sodipodi:docname="logo_cc--negre.svg"
   width="90"
   height="50"
   inkscape:version="0.92.4 (5da689c313, 2019-01-14)">
  <metadata
     id="metadata13">
    <rdf:RDF>
      <cc:Work
         rdf:about="">
        <dc:format>image/svg+xml</dc:format>
        <dc:type
           rdf:resource="http://purl.org/dc/dcmitype/StillImage" />
        <dc:title></dc:title>
      </cc:Work>
    </rdf:RDF>
  </metadata>
  <sodipodi:namedview
     pagecolor="#ffffff"
     bordercolor="#666666"
     borderopacity="1"
     objecttolerance="10"
     gridtolerance="10"
     guidetolerance="10"
     inkscape:pageopacity="0"
     inkscape:pageshadow="2"
     inkscape:window-width="1366"
     inkscape:window-height="705"
     id="namedview11"
     showgrid="false"
     inkscape:zoom="2.6015625"
     inkscape:cx="64"
     inkscape:cy="36.5"
     inkscape:window-x="-8"
     inkscape:window-y="-8"
     inkscape:window-maximized="1"
     inkscape:current-layer="Capa_1" />
  <defs
     id="defs4">
    <style
       id="style2">.cls-1{fill:#fff;}.cls-2{fill:#62b9c4;}</style>
  </defs>
  <path
     class="cls-1"
     d="m 61.13955,14.912762 h 16 a 0.8,0.8 0 0 0 0.7,-1.2 l -2.5,-4.2999995 a 0.84,0.84 0 0 0 -0.7,-0.4 h -16.9 a 0.75,0.75 0 0 0 -0.7,0.4 l -8.49,14.6999995 a 1.1,1.1 0 0 0 0,0.8 l 8.5,14.7 a 0.84,0.84 0 0 0 0.7,0.4 h 17 a 0.75,0.75 0 0 0 0.7,-0.4 l 2.5,-4.3 a 0.82,0.82 0 0 0 -0.7,-1.2 h -16 a 0.75,0.75 0 0 1 -0.7,-0.35 l -5.1,-8.8 a 1.1,1.1 0 0 1 0,-0.8 l 5.1,-8.8 a 0.68,0.68 0 0 1 0.59,-0.45 z"
     id="path6"
     inkscape:connector-curvature="0"
     style="fill:#ffffff" />
  <path
     class="cls-2"
     d="m 25.54955,14.412762 h 16.2 a 0.7,0.7 0 0 0 0.6,-1.1 l -2.5,-4.3999995 a 0.82,0.82 0 0 0 -0.6,-0.4 h -17 a 0.55,0.55 0 0 0 -0.6,0.4 l -8.5,14.6999995 a 0.85,0.85 0 0 0 0,0.7 l 8.5,14.7 a 0.82,0.82 0 0 0 0.6,0.4 h 17 a 0.55,0.55 0 0 0 0.6,-0.4 l 2.5,-4.4 a 0.73,0.73 0 0 0 -0.6,-1.1 h -16.2 a 0.55,0.55 0 0 1 -0.6,-0.4 l -5.1,-8.9 a 0.85,0.85 0 0 1 0,-0.7 l 5.1,-8.9 a 1.07,1.07 0 0 1 0.6,-0.2 z"
     id="path8"
     inkscape:connector-curvature="0"
     style="fill:#62b9c4" />
</svg>
