<?xml version="1.0" encoding="UTF-8" standalone="no"?>
<svg
   xmlns:dc="http://purl.org/dc/elements/1.1/"
   xmlns:cc="http://creativecommons.org/ns#"
   xmlns:rdf="http://www.w3.org/1999/02/22-rdf-syntax-ns#"
   xmlns:svg="http://www.w3.org/2000/svg"
   xmlns="http://www.w3.org/2000/svg"
   xmlns:sodipodi="http://sodipodi.sourceforge.net/DTD/sodipodi-0.dtd"
   xmlns:inkscape="http://www.inkscape.org/namespaces/inkscape"
   id="Capa_1"
   data-name="Capa 1"
   viewBox="0 0 500 380"
   version="1.1"
   sodipodi:docname="logo_codi_coop--blanc.svg"
   width="500"
   height="380"
   inkscape:version="0.92.4 (5da689c313, 2019-01-14)">
  <metadata
     id="metadata27">
    <rdf:RDF>
      <cc:Work
         rdf:about="">
        <dc:format>image/svg+xml</dc:format>
        <dc:type
           rdf:resource="http://purl.org/dc/dcmitype/StillImage" />
        <dc:title></dc:title>
      </cc:Work>
    </rdf:RDF>
  </metadata>
  <sodipodi:namedview
     pagecolor="#ffffff"
     bordercolor="#666666"
     borderopacity="1"
     objecttolerance="10"
     gridtolerance="10"
     guidetolerance="10"
     inkscape:pageopacity="0"
     inkscape:pageshadow="2"
     inkscape:window-width="1366"
     inkscape:window-height="705"
     id="namedview25"
     showgrid="false"
     inkscape:zoom="1.2957198"
     inkscape:cx="276.04483"
     inkscape:cy="194.99355"
     inkscape:window-x="-8"
     inkscape:window-y="-8"
     inkscape:window-maximized="1"
     inkscape:current-layer="Capa_1"
     fit-margin-top="0"
     fit-margin-left="0"
     fit-margin-right="0"
     fit-margin-bottom="0" />
  <defs
     id="defs4">
    <style
       id="style2">.cls-1{fill:#434244;}.cls-2{fill:#62b9c4;}</style>
  </defs>
  <path
     class="cls-1"
     d="m 334.10427,209.37747 a 3.75,3.75 0 0 0 -3.3,-1.8 h -51 a 3.45,3.45 0 0 0 -3.29999,1.8 l -25.5,44.10001 a 4.44,4.44 0 0 0 0,3.9 l 25.5,44.1 a 3.75,3.75 0 0 0 3.29999,1.8 h 50.7 a 3.45,3.45 0 0 0 3.3,-1.8 l 25.5,-44.1 a 4.44,4.44 0 0 0 0,-3.9 z m 2.4,46.20001 -15.3,26.4 c -0.3,0.3 -0.3,0.3 -0.6,0.3 h -30.6 a 1.05,1.05 0 0 1 -0.6,-0.3 l -15.29999,-26.4 v -0.9 l 15.29999,-26.4 c 0.3,-0.3 0.3,-0.3 0.6,-0.3 h 30.6 a 1.05,1.05 0 0 1 0.6,0.3 l 15.3,26.4 q 0.45,0.9 0,0.9 z"
     id="path6"
     inkscape:connector-curvature="0"
     style="fill:#434244;stroke-width:3" />
  <path
     class="cls-1"
     d="m 481.70427,253.47748 -25.5,-44.10001 a 3.75,3.75 0 0 0 -3.3,-1.8 h -50.7 a 3.45,3.45 0 0 0 -3.3,1.8 l -4.5,7.8 c 0,0.3 -0.3,0.3 -0.6,0.3 h -0.6 l -13.5,-7.8 a 4.44,4.44 0 0 0 -3.9,0 3.45,3.45 0 0 0 -1.8,3.3 v 137.10001 a 3.45,3.45 0 0 0 1.8,3.3 l 12.9,7.5 a 3,3 0 0 0 3.6,0 3.45,3.45 0 0 0 1.8,-3.3 v -64.2 l 4.5,7.8 a 3.45,3.45 0 0 0 3.3,1.8 h 50.7 a 3.45,3.45 0 0 0 3.3,-1.8 l 25.5,-44.1 a 3.18,3.18 0 0 0 0.3,-3.6 z m -22.8,2.1 -15.3,26.4 c -0.3,0.3 -0.3,0.3 -0.6,0.3 h -30.6 a 1.05,1.05 0 0 1 -0.6,-0.3 l -15.3,-26.4 v -0.9 l 15.3,-26.4 c 0.3,-0.3 0.3,-0.3 0.6,-0.3 h 30.6 a 1.05,1.05 0 0 1 0.6,0.3 l 15.3,26.4 q 0.6,0.9 0,0.9 z"
     id="path8"
     inkscape:connector-curvature="0"
     style="fill:#434244;stroke-width:3" />
  <path
     class="cls-1"
     d="m 211.70428,209.37747 a 3.75,3.75 0 0 0 -3.3,-1.8 h -50.7 a 3.45,3.45 0 0 0 -3.3,1.8 l -25.5,44.10001 a 4.44,4.44 0 0 0 0,3.9 l 25.5,44.1 a 3.75,3.75 0 0 0 3.3,1.8 h 50.7 a 3.45,3.45 0 0 0 3.3,-1.8 l 25.5,-44.1 a 4.44,4.44 0 0 0 0,-3.9 z m 2.7,46.20001 -15.3,26.4 c -0.3,0.3 -0.3,0.3 -0.6,0.3 h -30.6 a 1.05,1.05 0 0 1 -0.6,-0.3 l -15.3,-26.4 v -0.9 l 15.3,-26.4 c 0.3,-0.3 0.3,-0.3 0.6,-0.3 h 30.6 a 1.05,1.05 0 0 1 0.6,0.3 l 15.3,26.4 z"
     id="path10"
     inkscape:connector-curvature="0"
     style="fill:#434244;stroke-width:3" />
  <path
     class="cls-1"
     d="m 62.004283,228.27748 c 0.3,-0.3 0.3,-0.3 0.6,-0.3 h 47.999997 a 3.45,3.45 0 0 0 3.3,-1.8 4.44,4.44 0 0 0 0,-3.90001 l -7.5,-12.9 a 3.75,3.75 0 0 0 -3.3,-1.8 H 52.404282 a 3.45,3.45 0 0 0 -3.3,1.8 l -25.5,44.10001 a 4.44,4.44 0 0 0 0,3.9 l 25.5,44.1 a 3.75,3.75 0 0 0 3.3,1.8 h 50.699998 a 3.45,3.45 0 0 0 3.3,-1.8 l 7.5,-12.9 a 4.44,4.44 0 0 0 0,-3.9 3.45,3.45 0 0 0 -3.3,-1.8 H 62.604283 a 1.05,1.05 0 0 1 -0.6,-0.3 l -15.300001,-26.4 v -0.9 z"
     id="path12"
     inkscape:connector-curvature="0"
     style="fill:#434244;stroke-width:3" />
  <path
     class="cls-2"
     d="m 211.70428,81.877467 a 4.17,4.17 0 0 0 -3.6,-2.099995 h -50.7 a 4.56,4.56 0 0 0 -3.6,2.099995 l -25.2,43.800003 a 4.44,4.44 0 0 0 0,3.9 l 25.2,43.8 a 4.17,4.17 0 0 0 3.6,2.1 h 50.7 a 4.56,4.56 0 0 0 3.6,-2.1 l 25.2,-43.8 a 4.44,4.44 0 0 0 0,-3.9 z m 2.4,46.500003 -15.3,26.43 c -0.3,0.3 -0.6,0.6 -0.9,0.6 h -30.3 c -0.3,0 -0.6,-0.3 -0.9,-0.6 l -15.3,-26.4 a 0.57,0.57 0 0 1 0,-0.9 l 15.3,-26.4 c 0.3,-0.3 0.6,-0.6 0.9,-0.6 h 30.3 c 0.3,0 0.6,0.3 0.9,0.6 l 15.3,26.4 c 0.3,-0.03 0.3,0.57 0,0.87 z"
     id="path14"
     inkscape:connector-curvature="0"
     style="fill:#62b9c4;stroke-width:3" />
  <path
     class="cls-2"
     d="m 412.40427,101.07747 a 4.44,4.44 0 0 0 -3.9,0 l -12.9,7.5 a 3.75,3.75 0 0 0 -1.8,3.3 v 50.7 a 3.45,3.45 0 0 0 1.8,3.3 l 12.9,7.5 a 3,3 0 0 0 3.6,0 3.45,3.45 0 0 0 1.8,-3.3 v -65.4 a 3.45,3.45 0 0 0 -1.5,-3.6 z"
     id="path16"
     inkscape:connector-curvature="0"
     style="fill:#62b9c4;stroke-width:3" />
  <path
     class="cls-2"
     d="m 356.90427,29.377472 -12.3,-7.199996 a 4.44,4.44 0 0 0 -3.9,0 4.17,4.17 0 0 0 -2.1,3.599996 v 63.599995 l -4.5,-7.5 a 4.17,4.17 0 0 0 -3.6,-2.069995 h -50.7 a 4.56,4.56 0 0 0 -3.59999,2.099995 l -25.2,43.800003 a 4.44,4.44 0 0 0 0,3.9 l 25.2,43.8 a 4.17,4.17 0 0 0 3.59999,2.1 h 50.7 a 4.56,4.56 0 0 0 3.6,-2.1 l 4.5,-7.5 c 0,-0.3 0.3,-0.3 0.6,-0.6 h 0.9 l 13.2,7.5 a 4.44,4.44 0 0 0 3.9,0 4.17,4.17 0 0 0 2.1,-3.6 V 32.377472 a 7.05,7.05 0 0 0 -2.4,-3 z m -20.4,98.999998 -15.3,26.43 c -0.3,0.3 -0.6,0.6 -0.9,0.6 h -30.3 c -0.3,0 -0.6,-0.3 -0.9,-0.6 l -15.29999,-26.4 a 0.57,0.57 0 0 1 0,-0.9 l 15.29999,-26.4 c 0.3,-0.3 0.6,-0.6 0.9,-0.6 h 30.3 c 0.3,0 0.6,0.3 0.9,0.6 l 15.3,26.4 c 0.3,-0.03 0.3,0.57 0,0.87 z"
     id="path18"
     inkscape:connector-curvature="0"
     style="fill:#62b9c4;stroke-width:3" />
  <path
     class="cls-2"
     d="m 412.40427,60.577472 -12.9,-7.5 a 4.44,4.44 0 0 0 -3.9,0 3.45,3.45 0 0 0 -1.8,3.3 v 30.899995 a 3.45,3.45 0 0 0 1.8,3.3 3,3 0 0 0 3.6,0 l 12.9,-7.5 a 3.45,3.45 0 0 0 1.8,-3.299995 v -16.2 a 2.79,2.79 0 0 0 -1.5,-3 z"
     id="path20"
     inkscape:connector-curvature="0"
     style="fill:#62b9c4;stroke-width:3" />
  <path
     class="cls-2"
     d="m 62.004283,100.80747 c 0,-0.3 0.3,-0.3 0.6,-0.3 h 48.599997 a 3.3,3.3 0 0 0 3,-1.800003 3.81,3.81 0 0 0 0,-3.6 l -7.5,-13.2 a 3.3,3.3 0 0 0 -3,-1.799995 H 52.704282 a 3.3,3.3 0 0 0 -3,1.799995 l -25.5,44.100003 a 3.81,3.81 0 0 0 0,3.6 l 25.5,44.1 a 3.3,3.3 0 0 0 3,1.8 h 50.999998 a 3.3,3.3 0 0 0 3,-1.8 l 7.5,-13.2 a 3.81,3.81 0 0 0 0,-3.6 3.3,3.3 0 0 0 -3,-1.8 H 62.604283 c -0.3,0 -0.6,0 -0.6,-0.3 l -15.300001,-26.7 v -0.6 z"
     id="path22"
     inkscape:connector-curvature="0"
     style="fill:#62b9c4;stroke-width:3" />
</svg>
