<?xml version="1.0" encoding="UTF-8" standalone="no"?>
<svg
   xmlns:dc="http://purl.org/dc/elements/1.1/"
   xmlns:cc="http://creativecommons.org/ns#"
   xmlns:rdf="http://www.w3.org/1999/02/22-rdf-syntax-ns#"
   xmlns:svg="http://www.w3.org/2000/svg"
   xmlns="http://www.w3.org/2000/svg"
   xmlns:sodipodi="http://sodipodi.sourceforge.net/DTD/sodipodi-0.dtd"
   xmlns:inkscape="http://www.inkscape.org/namespaces/inkscape"
   id="Capa_1"
   data-name="Capa 1"
   viewBox="0 0 360 140"
   version="1.1"
   sodipodi:docname="logo_full--blanc.svg"
   width="360"
   height="140"
   inkscape:version="0.92.4 (5da689c313, 2019-01-14)">
  <metadata
     id="metadata41">
    <rdf:RDF>
      <cc:Work
         rdf:about="">
        <dc:format>image/svg+xml</dc:format>
        <dc:type
           rdf:resource="http://purl.org/dc/dcmitype/StillImage" />
        <dc:title></dc:title>
      </cc:Work>
    </rdf:RDF>
  </metadata>
  <sodipodi:namedview
     pagecolor="#ffffff"
     bordercolor="#666666"
     borderopacity="1"
     objecttolerance="10"
     gridtolerance="10"
     guidetolerance="10"
     inkscape:pageopacity="0"
     inkscape:pageshadow="2"
     inkscape:window-width="1366"
     inkscape:window-height="705"
     id="namedview39"
     showgrid="false"
     inkscape:zoom="0.84517766"
     inkscape:cx="-85.189191"
     inkscape:cy="78.5"
     inkscape:window-x="-8"
     inkscape:window-y="-8"
     inkscape:window-maximized="1"
     inkscape:current-layer="Capa_1" />
  <defs
     id="defs4">
    <style
       id="style2">.cls-1{fill:#272525;}.cls-2{fill:#62b9c4;}</style>
  </defs>
  <path
     class="cls-1"
     d="m 122.25225,76.885465 a 1.25,1.25 0 0 0 -1.1,-0.6 h -16.9 a 1.15,1.15 0 0 0 -1.1,0.6 L 94.652252,91.58547 a 1.48,1.48 0 0 0 0,1.3 l 8.499998,14.7 a 1.28,1.28 0 0 0 1.1,0.6 h 16.9 a 1.14,1.14 0 0 0 1.1,-0.6 l 8.5,-14.7 a 1.48,1.48 0 0 0 0,-1.3 z m 0.8,15.400005 -5.1,8.8 c -0.09,0.1 -0.09,0.1 -0.2,0.1 h -10.2 a 0.35,0.35 0 0 1 -0.2,-0.1 l -5.1,-8.8 v -0.29 l 5.1,-8.800005 c 0.1,-0.1 0.1,-0.1 0.2,-0.1 h 10.2 a 0.35,0.35 0 0 1 0.2,0.1 l 5.1,8.800005 c 0.12,0.19 0.12,0.29 0.02,0.29 z"
     id="path6"
     inkscape:connector-curvature="0"
     style="fill:#272525" />
  <path
     class="cls-1"
     d="m 339.17225,79.465465 -4.3,-2.5 a 1.48,1.48 0 0 0 -1.3,0 1.15,1.15 0 0 0 -0.6,1.1 V 96.26547 l -2.8,4.8 c -0.1,0.1 -0.1,0.1 -0.2,0.1 h -10.2 a 0.35,0.35 0 0 1 -0.2,-0.1 l -2.8,-4.8 V 78.085465 a 1.15,1.15 0 0 0 -0.6,-1.1 1.48,1.48 0 0 0 -1.3,0 l -4.3,2.5 a 1.15,1.15 0 0 0 -0.6,1.1 V 97.78547 a 1.38,1.38 0 0 0 0.2,0.6 l 5.21,9.11 a 1.28,1.28 0 0 0 1.1,0.6 h 16.9 a 1.17,1.17 0 0 0 1.1,-0.6 l 5.2,-9 a 1.46,1.46 0 0 0 0.2,-0.61 V 80.685465 a 1.8,1.8 0 0 0 -0.71,-1.22 z"
     id="path8"
     inkscape:connector-curvature="0"
     style="fill:#272525" />
  <path
     class="cls-1"
     d="m 202.67225,76.285465 h -16.9 a 1.15,1.15 0 0 0 -1.1,0.6 l -8.5,14.710005 a 1.46,1.46 0 0 0 0,1.29 l 8.5,14.71 a 1.15,1.15 0 0 0 1.1,0.6 h 14.1 a 1.15,1.15 0 0 0 1.1,-0.6 l 2.5,-4.3 a 1.48,1.48 0 0 0 0,-1.3 1.15,1.15 0 0 0 -1.1,-0.6 h -13.2 a 0.35,0.35 0 0 1 -0.2,-0.1 l -3,-5.1 c -0.1,-0.1 0,-0.2 0,-0.3 a 0.35,0.35 0 0 1 0.2,-0.1 h 20.4 a 1.15,1.15 0 0 0 1.1,-0.6 l 3.3,-5.700005 -7.2,-12.4 a 1.05,1.05 0 0 0 -1.1,-0.81 z m -0.1,12.4 a 0.35,0.35 0 0 1 -0.2,0.1 h -16.12 a 0.35,0.35 0 0 1 -0.2,-0.1 c 0,0 -0.1,-0.2 0,-0.3 l 3,-5.1 c 0.1,-0.1 0.1,-0.1 0.2,-0.1 h 10.2 a 0.35,0.35 0 0 1 0.2,0.1 l 3,5.1 a 0.37,0.37 0 0 0 -0.08,0.3 z"
     id="path10"
     inkscape:connector-curvature="0"
     style="fill:#272525" />
  <path
     class="cls-1"
     d="m 259.87225,76.885465 a 1.25,1.25 0 0 0 -1.1,-0.6 h -14.1 a 1.12,1.12 0 0 0 -1.09,0.6 l -2.5,4.3 a 1.48,1.48 0 0 0 0,1.3 1.13,1.13 0 0 0 1.09,0.6 h 13.21 a 0.39,0.39 0 0 1 0.2,0.1 l 3,5.1 c 0.09,0.1 0,0.21 0,0.3 a 0.35,0.35 0 0 1 -0.2,0.1 h -20.41 a 1.12,1.12 0 0 0 -1.09,0.6 l -3.3,5.710005 7.09,12.39 a 1.17,1.17 0 0 0 1.1,0.61 h 16.9 a 1.15,1.15 0 0 0 1.1,-0.61 l 8.5,-14.7 a 1.48,1.48 0 0 0 0,-1.3 z m -17.8,18.900005 a 0.35,0.35 0 0 1 0.2,-0.1 h 16.1 a 0.35,0.35 0 0 1 0.2,0.1 c 0,0 0.1,0.21 0,0.3 l -3,5.1 c -0.1,0.1 -0.1,0.1 -0.2,0.1 h -10.2 a 0.35,0.35 0 0 1 -0.2,-0.1 l -3,-5.1 c 0,-0.2 0,-0.3 0.1,-0.3 z"
     id="path12"
     inkscape:connector-curvature="0"
     style="fill:#272525" />
  <path
     class="cls-1"
     d="m 231.47225,76.285465 h -4.9 a 1.15,1.15 0 0 0 -1.1,0.6 l -1.59,2.8 c 0,0.1 -0.1,0.1 -0.21,0.1 h -0.2 l -4.8,-2.8 a 1.46,1.46 0 0 0 -1.29,0 1.13,1.13 0 0 0 -0.6,1.1 v 28.200005 a 1.15,1.15 0 0 0 0.6,1.1 1.32,1.32 0 0 0 0.59,0.21 1.28,1.28 0 0 0 0.6,-0.21 l 4.3,-2.5 a 1.15,1.15 0 0 0 0.6,-1.1 v -10 l 9,-15.600005 a 1.48,1.48 0 0 0 0,-1.3 1,1 0 0 0 -1,-0.6 z"
     id="path14"
     inkscape:connector-curvature="0"
     style="fill:#272525" />
  <path
     class="cls-1"
     d="m 162.97225,76.885465 a 1.25,1.25 0 0 0 -1.09,-0.6 h -16.91 a 1.12,1.12 0 0 0 -1.09,0.6 l -1.5,2.6 c 0,0.1 -0.1,0.1 -0.21,0.1 h -0.2 l -4.5,-2.6 a 1.48,1.48 0 0 0 -1.3,0 1.14,1.14 0 0 0 -0.59,1.1 v 45.700005 a 1.16,1.16 0 0 0 0.59,1.1 l 4.3,2.5 a 1.36,1.36 0 0 0 0.6,0.21 1.31,1.31 0 0 0 0.6,-0.21 1.15,1.15 0 0 0 0.6,-1.1 v -21.4 l 1.5,2.61 a 1.28,1.28 0 0 0 1.1,0.6 h 16.9 a 1.17,1.17 0 0 0 1.1,-0.6 l 8.5,-14.71 a 1.46,1.46 0 0 0 0,-1.29 z m 0.9,15.400005 -5.1,8.8 c -0.1,0.1 -0.1,0.1 -0.2,0.1 h -10.2 a 0.35,0.35 0 0 1 -0.2,-0.1 l -5.1,-8.8 v -0.29 l 5.1,-8.800005 c 0.1,-0.1 0.1,-0.1 0.2,-0.1 h 10.2 a 0.35,0.35 0 0 1 0.2,0.1 l 5.1,8.800005 c 0.1,0.19 0.1,0.29 0,0.29 z"
     id="path16"
     inkscape:connector-curvature="0"
     style="fill:#272525" />
  <path
     class="cls-1"
     d="m 287.25225,65.285465 h -2.5 a 0.27,0.27 0 0 1 -0.3,-0.3 v -3 a 1.16,1.16 0 0 0 -0.59,-1.1 l -4.3,-2.5 a 1.48,1.48 0 0 0 -1.3,0 1.15,1.15 0 0 0 -0.6,1.1 v 5.4 a 0.27,0.27 0 0 1 -0.3,0.3 h -12 a 1.15,1.15 0 0 0 -1.1,0.6 1.48,1.48 0 0 0 0,1.3 l 2.5,4.3 a 1.26,1.26 0 0 0 1.1,0.61 h 9.5 a 0.27,0.27 0 0 1 0.3,0.3 v 32.900005 a 1.15,1.15 0 0 0 0.6,1.1 l 4.3,2.5 a 1.43,1.43 0 0 0 0.59,0.2 1.38,1.38 0 0 0 0.6,-0.2 1.15,1.15 0 0 0 0.6,-1.1 V 72.295465 a 0.27,0.27 0 0 1 0.3,-0.3 1.15,1.15 0 0 0 1.1,-0.6 l 2.5,-4.3 a 1.48,1.48 0 0 0 0,-1.3 1.18,1.18 0 0 0 -1,-0.51 z"
     id="path18"
     inkscape:connector-curvature="0"
     style="fill:#272525" />
  <path
     class="cls-1"
     d="m 81.472252,76.885465 a 1.25,1.25 0 0 0 -1.09,-0.6 h -16.91 a 1.12,1.12 0 0 0 -1.09,0.6 l -8.5,14.700005 a 1.42,1.42 0 0 0 0,1.3 l 8.5,14.7 a 1.25,1.25 0 0 0 1.09,0.6 h 16.91 a 1.12,1.12 0 0 0 1.09,-0.6 l 8.5,-14.7 a 1.48,1.48 0 0 0 0,-1.3 z m 0.9,15.400005 -5.1,8.8 c -0.1,0.1 -0.1,0.1 -0.2,0.1 h -10.2 a 0.35,0.35 0 0 1 -0.2,-0.1 l -5.1,-8.8 v -0.29 l 5.1,-8.800005 c 0.1,-0.1 0.1,-0.1 0.2,-0.1 h 10.2 a 0.35,0.35 0 0 1 0.2,0.1 l 5.1,8.800005 z"
     id="path20"
     inkscape:connector-curvature="0"
     style="fill:#272525" />
  <path
     class="cls-1"
     d="m 31.572252,83.185465 c 0.1,-0.1 0.1,-0.1 0.2,-0.1 h 16 a 1.15,1.15 0 0 0 1.1,-0.6 1.48,1.48 0 0 0 0,-1.3 l -2.5,-4.3 a 1.25,1.25 0 0 0 -1.1,-0.6 h -16.9 a 1.15,1.15 0 0 0 -1.1,0.6 l -8.5,14.700005 a 1.48,1.48 0 0 0 0,1.3 l 8.5,14.7 a 1.25,1.25 0 0 0 1.1,0.6 h 16.88 a 1.15,1.15 0 0 0 1.1,-0.6 l 2.5,-4.3 a 1.46,1.46 0 0 0 0,-1.29 1.16,1.16 0 0 0 -1.1,-0.61 h -16 a 0.35,0.35 0 0 1 -0.2,-0.1 l -5.08,-8.82 v -0.3 z"
     id="path22"
     inkscape:connector-curvature="0"
     style="fill:#272525" />
  <path
     class="cls-1"
     d="m 301.17225,84.085465 a 1.48,1.48 0 0 0 -1.3,0 l -4.3,2.5 a 1.25,1.25 0 0 0 -0.6,1.1 v 16.900005 a 1.15,1.15 0 0 0 0.6,1.1 l 4.3,2.5 a 1,1 0 0 0 1.2,0 1.15,1.15 0 0 0 0.6,-1.1 V 85.185465 a 0.85,0.85 0 0 0 -0.5,-1.1 z"
     id="path24"
     inkscape:connector-curvature="0"
     style="fill:#272525" />
  <path
     class="cls-1"
     d="m 301.17225,70.585465 -4.3,-2.5 a 1.48,1.48 0 0 0 -1.3,0 1.15,1.15 0 0 0 -0.6,1.1 v 10.28 a 1.15,1.15 0 0 0 0.6,1.1 1,1 0 0 0 1.21,0 l 4.29,-2.5 a 1.15,1.15 0 0 0 0.6,-1.1 v -5.4 c 0.2,-0.38 -0.1,-0.78 -0.5,-0.98 z"
     id="path26"
     inkscape:connector-curvature="0"
     style="fill:#272525" />
  <path
     class="cls-2"
     d="m 81.472252,34.385465 a 1.39,1.39 0 0 0 -1.2,-0.7 h -16.9 a 1.52,1.52 0 0 0 -1.2,0.7 l -8.4,14.6 a 1.48,1.48 0 0 0 0,1.3 l 8.4,14.6 a 1.39,1.39 0 0 0 1.2,0.7 h 16.88 a 1.52,1.52 0 0 0 1.2,-0.7 l 8.41,-14.6 a 1.48,1.48 0 0 0 0,-1.3 z m 0.8,15.5 -5.1,8.8 c -0.09,0.1 -0.2,0.2 -0.29,0.2 h -10.1 c -0.1,0 -0.2,-0.1 -0.3,-0.2 l -5.1,-8.8 a 0.19,0.19 0 0 1 0,-0.3 l 5.1,-8.8 c 0.1,-0.1 0.2,-0.2 0.3,-0.2 h 10.1 c 0.09,0 0.2,0.1 0.29,0.2 l 5.1,8.8 c 0.1,0 0.1,0.2 -0.02,0.3 z"
     id="path28"
     inkscape:connector-curvature="0"
     style="fill:#66cccc;fill-opacity:1" />
  <path
     class="cls-2"
     d="m 148.37225,40.785465 a 1.48,1.48 0 0 0 -1.3,0 l -4.3,2.5 a 1.25,1.25 0 0 0 -0.6,1.1 v 16.9 a 1.17,1.17 0 0 0 0.6,1.1 l 4.3,2.5 a 1.3,1.3 0 0 0 0.6,0.2 1.42,1.42 0 0 0 0.6,-0.2 1.14,1.14 0 0 0 0.6,-1.1 v -21.8 a 1.15,1.15 0 0 0 -0.5,-1.2 z"
     id="path30"
     inkscape:connector-curvature="0"
     style="fill:#66cccc;fill-opacity:1" />
  <path
     class="cls-2"
     d="m 129.87225,16.885465 -4.1,-2.4 a 1.48,1.48 0 0 0 -1.3,0 1.39,1.39 0 0 0 -0.7,1.2 v 21.2 l -1.5,-2.5 a 1.39,1.39 0 0 0 -1.2,-0.7 h -16.9 a 1.52,1.52 0 0 0 -1.2,0.7 l -8.399998,14.6 a 1.48,1.48 0 0 0 0,1.3 l 8.399998,14.6 a 1.39,1.39 0 0 0 1.2,0.7 h 16.9 a 1.52,1.52 0 0 0 1.2,-0.7 l 1.5,-2.5 c 0,-0.1 0.1,-0.1 0.2,-0.19 h 0.3 l 4.4,2.5 a 1.55,1.55 0 0 0 1.3,0 1.37,1.37 0 0 0 0.7,-1.2 v -45.61 a 2.35,2.35 0 0 0 -0.8,-1 z m -6.8,33 -5.1,8.8 c -0.09,0.1 -0.2,0.2 -0.3,0.2 h -10.1 c -0.1,0 -0.2,-0.1 -0.3,-0.2 l -5.1,-8.8 a 0.2,0.2 0 0 1 0,-0.3 l 5.1,-8.8 c 0.1,-0.1 0.2,-0.2 0.3,-0.2 h 10.1 c 0.1,0 0.2,0.1 0.3,0.2 l 5.1,8.8 c 0.1,0 0.1,0.2 0,0.3 z"
     id="path32"
     inkscape:connector-curvature="0"
     style="fill:#66cccc;fill-opacity:1" />
  <path
     class="cls-2"
     d="m 148.37225,27.285465 -4.3,-2.5 a 1.48,1.48 0 0 0 -1.3,0 1.15,1.15 0 0 0 -0.6,1.1 v 10.31 a 1.18,1.18 0 0 0 0.6,1.1 1.42,1.42 0 0 0 0.6,0.2 1.58,1.58 0 0 0 0.6,-0.2 l 4.3,-2.5 a 1.15,1.15 0 0 0 0.6,-1.1 v -5.4 a 0.94,0.94 0 0 0 -0.5,-1.01 z"
     id="path34"
     inkscape:connector-curvature="0"
     style="fill:#66cccc;fill-opacity:1" />
  <path
     class="cls-2"
     d="m 31.572252,40.685465 c 0,-0.1 0.1,-0.1 0.2,-0.1 h 16.2 a 1.09,1.09 0 0 0 1,-0.6 1.28,1.28 0 0 0 0,-1.2 l -2.5,-4.4 a 1.09,1.09 0 0 0 -1,-0.6 h -17 a 1.1,1.1 0 0 0 -1,0.6 l -8.5,14.7 a 1.27,1.27 0 0 0 0,1.2 l 8.5,14.7 a 1.1,1.1 0 0 0 1,0.6 h 17 a 1.09,1.09 0 0 0 1,-0.6 l 2.5,-4.4 a 1.28,1.28 0 0 0 0,-1.2 1.09,1.09 0 0 0 -1,-0.6 h -16.2 c -0.1,0 -0.2,0 -0.2,-0.1 l -5.1,-8.9 v -0.2 z"
     id="path36"
     inkscape:connector-curvature="0"
     style="fill:#66cccc;fill-opacity:1" />
</svg>
