<?xml version="1.0" encoding="UTF-8" standalone="no"?>
<svg
   xmlns:dc="http://purl.org/dc/elements/1.1/"
   xmlns:cc="http://creativecommons.org/ns#"
   xmlns:rdf="http://www.w3.org/1999/02/22-rdf-syntax-ns#"
   xmlns:svg="http://www.w3.org/2000/svg"
   xmlns="http://www.w3.org/2000/svg"
   xmlns:sodipodi="http://sodipodi.sourceforge.net/DTD/sodipodi-0.dtd"
   xmlns:inkscape="http://www.inkscape.org/namespaces/inkscape"
   width="43.31673"
   height="26.916672"
   viewBox="0 0 43.316731 26.916672"
   version="1.1"
   id="svg4"
   sodipodi:docname="slash--triple.svg"
   style="fill:none"
   inkscape:version="0.92.4 (5da689c313, 2019-01-14)">
  <metadata
     id="metadata10">
    <rdf:RDF>
      <cc:Work
         rdf:about="">
        <dc:format>image/svg+xml</dc:format>
        <dc:type
           rdf:resource="http://purl.org/dc/dcmitype/StillImage" />
        <dc:title></dc:title>
      </cc:Work>
    </rdf:RDF>
  </metadata>
  <defs
     id="defs8" />
  <sodipodi:namedview
     pagecolor="#ffffff"
     bordercolor="#666666"
     borderopacity="1"
     objecttolerance="10"
     gridtolerance="10"
     guidetolerance="10"
     inkscape:pageopacity="0"
     inkscape:pageshadow="2"
     inkscape:window-width="1366"
     inkscape:window-height="705"
     id="namedview6"
     showgrid="false"
     fit-margin-top="0"
     fit-margin-left="0"
     fit-margin-right="0"
     fit-margin-bottom="0"
     inkscape:zoom="3"
     inkscape:cx="-53.872676"
     inkscape:cy="11.830559"
     inkscape:window-x="-8"
     inkscape:window-y="-8"
     inkscape:window-maximized="1"
     inkscape:current-layer="svg4" />
  <path
     d="m 0.85356431,26.916543 5.37111269,-0.0162 c 0.241026,0.01443 0.59006,-0.158202 0.752035,-0.438665 L 18.822734,5.9437689 c 0.161975,-0.280538 0.176403,-0.521589 0.0038,-0.8705978 L 16.155103,0.41350962 c -0.305623,-0.55051934 -1.176247,-0.55440454 -1.500196,0.0067 L 0.16326991,25.520562 c -0.4319443,0.747984 0.060725,1.406615 0.6902944,1.395984 z"
     id="path2"
     inkscape:connector-curvature="0"
     style="opacity:0.93000034;fill:#66cccc;stroke-width:0.25312498" />
  <path
     d="m 13.030457,26.916543 5.371112,-0.0162 c 0.241026,0.01443 0.59006,-0.158202 0.752035,-0.438665 L 30.999626,5.9437688 c 0.161974,-0.280538 0.176403,-0.5215889 0.0038,-0.8705976 L 28.331995,0.41350972 c -0.305624,-0.55051944 -1.176247,-0.55440454 -1.500196,0.0067 L 12.340162,25.520562 c -0.431945,0.747984 0.06073,1.406615 0.690295,1.395984 z"
     id="path2-5"
     inkscape:connector-curvature="0"
     style="opacity:0.93000034;fill:#66cccc;stroke-width:0.25312498" />
  <path
     d="m 25.2201,26.916543 5.371112,-0.0162 c 0.241026,0.01443 0.59006,-0.158202 0.752035,-0.438665 L 43.18927,5.9437698 c 0.161974,-0.280539 0.176403,-0.52159 0.0038,-0.870598 L 40.521639,0.41350962 c -0.305624,-0.55051927 -1.176247,-0.55440447 -1.500196,0.0067 L 24.529806,25.520562 c -0.431945,0.747984 0.06073,1.406615 0.690294,1.395984 z"
     id="path2-5-0"
     inkscape:connector-curvature="0"
     style="opacity:0.93000034;fill:#66cccc;stroke-width:0.25312498" />
</svg>
