<svg width="18" height="14" viewBox="0 0 18 14" fill="none" xmlns="http://www.w3.org/2000/svg">
<g filter="url(#filter0_i)">
<path d="M17.5897 1.6284C16.9606 1.89549 16.2954 2.07206 15.6147 2.15261C16.3329 1.73268 16.871 1.07206 17.1294 0.293298C16.4545 0.686507 15.7158 0.963547 14.9452 1.11238C14.4302 0.5657 13.7443 0.201803 12.9952 0.0777582C12.2461 -0.0462871 11.4761 0.0765353 10.806 0.426962C10.1359 0.77739 9.6036 1.3356 9.29255 2.01405C8.9815 2.6925 8.90932 3.4528 9.08732 4.17573C7.72279 4.10818 6.38804 3.76042 5.16977 3.15505C3.9515 2.54967 2.87698 1.70022 2.016 0.661883C1.71401 1.17804 1.55533 1.76258 1.55573 2.35738C1.55466 2.90975 1.69316 3.45381 1.95889 3.94112C2.22462 4.42843 2.60933 4.84386 3.07879 5.15043C2.53315 5.1359 1.99916 4.9926 1.52226 4.7327V4.77366C1.52635 5.5476 1.80343 6.2964 2.30664 6.89341C2.80986 7.49041 3.5083 7.89897 4.28384 8.04997C3.9853 8.1389 3.67535 8.18578 3.36331 8.18922C3.14732 8.18675 2.93186 8.16757 2.71894 8.13188C2.9398 8.79764 3.36718 9.37946 3.94164 9.79638C4.51609 10.2133 5.20904 10.4446 5.92406 10.4581C4.71666 11.3879 3.22597 11.8954 1.68963 11.8996C1.4099 11.9005 1.13039 11.8841 0.852783 11.8505C2.42139 12.8418 4.24937 13.368 6.11653 13.3658C7.40501 13.3789 8.68324 13.1406 9.87656 12.6647C11.0699 12.1889 12.1544 11.4851 13.0667 10.5944C13.979 9.70378 14.7008 8.64412 15.1901 7.47736C15.6793 6.31059 15.926 5.06011 15.916 3.79895V3.36484C16.5726 2.88553 17.139 2.29793 17.5897 1.6284Z" fill="white"/>
</g>
<defs>
<filter id="filter0_i" x="0.852783" y="0.0307007" width="17.2369" height="13.8356" filterUnits="userSpaceOnUse" color-interpolation-filters="sRGB">
<feFlood flood-opacity="0" result="BackgroundImageFix"/>
<feBlend mode="normal" in="SourceGraphic" in2="BackgroundImageFix" result="shape"/>
<feColorMatrix in="SourceAlpha" type="matrix" values="0 0 0 0 0 0 0 0 0 0 0 0 0 0 0 0 0 0 127 0" result="hardAlpha"/>
<feOffset dx="0.5" dy="0.5"/>
<feGaussianBlur stdDeviation="0.25"/>
<feComposite in2="hardAlpha" operator="arithmetic" k2="-1" k3="1"/>
<feColorMatrix type="matrix" values="0 0 0 0 0.152941 0 0 0 0 0.145098 0 0 0 0 0.145098 0 0 0 0.5 0"/>
<feBlend mode="normal" in2="shape" result="effect1_innerShadow"/>
</filter>
</defs>
</svg>
