<svg width="18" height="12" viewBox="0 0 18 12" fill="none" xmlns="http://www.w3.org/2000/svg">
<g filter="url(#filter0_i)">
<path d="M0.722705 1.29117L7.73493 5.05813C7.97054 5.18435 8.27534 5.24419 8.582 5.24419C8.88867 5.24419 9.19347 5.18435 9.42908 5.05813L16.4413 1.29117C16.8985 1.04527 17.3305 0.0888062 16.4918 0.0888062H0.673152C-0.165509 0.0888062 0.266443 1.04527 0.722705 1.29117V1.29117ZM16.6535 3.35089L9.42908 7.11599C9.11119 7.28241 8.88867 7.30205 8.582 7.30205C8.27534 7.30205 8.05282 7.28241 7.73493 7.11599C7.41704 6.94956 1.06584 3.62016 0.546932 3.34996C0.182297 3.15922 0.186037 3.38268 0.186037 3.55471V10.3734C0.186037 10.7661 0.715226 11.3084 1.121 11.3084H16.0804C16.4862 11.3084 17.0154 10.7661 17.0154 10.3734V3.55565C17.0154 3.38362 17.0191 3.16016 16.6535 3.35089V3.35089Z" fill="white"/>
</g>
<defs>
<filter id="filter0_i" x="0.186035" y="0.0888062" width="17.3293" height="11.7196" filterUnits="userSpaceOnUse" color-interpolation-filters="sRGB">
<feFlood flood-opacity="0" result="BackgroundImageFix"/>
<feBlend mode="normal" in="SourceGraphic" in2="BackgroundImageFix" result="shape"/>
<feColorMatrix in="SourceAlpha" type="matrix" values="0 0 0 0 0 0 0 0 0 0 0 0 0 0 0 0 0 0 127 0" result="hardAlpha"/>
<feOffset dx="0.5" dy="0.5"/>
<feGaussianBlur stdDeviation="0.25"/>
<feComposite in2="hardAlpha" operator="arithmetic" k2="-1" k3="1"/>
<feColorMatrix type="matrix" values="0 0 0 0 0.152941 0 0 0 0 0.145098 0 0 0 0 0.145098 0 0 0 0.5 0"/>
<feBlend mode="normal" in2="shape" result="effect1_innerShadow"/>
</filter>
</defs>
</svg>
