<?xml version="1.0" encoding="UTF-8" standalone="no"?>
<svg
   xmlns:dc="http://purl.org/dc/elements/1.1/"
   xmlns:cc="http://creativecommons.org/ns#"
   xmlns:rdf="http://www.w3.org/1999/02/22-rdf-syntax-ns#"
   xmlns:svg="http://www.w3.org/2000/svg"
   xmlns="http://www.w3.org/2000/svg"
   xmlns:sodipodi="http://sodipodi.sourceforge.net/DTD/sodipodi-0.dtd"
   xmlns:inkscape="http://www.inkscape.org/namespaces/inkscape"
   width="16.736877"
   height="16.299072"
   viewBox="0 0 16.736877 16.299072"
   version="1.1"
   id="svg4"
   sodipodi:docname="icon_fb.svg"
   style="fill:none"
   inkscape:version="0.92.4 (5da689c313, 2019-01-14)">
  <metadata
     id="metadata10">
    <rdf:RDF>
      <cc:Work
         rdf:about="">
        <dc:format>image/svg+xml</dc:format>
        <dc:type
           rdf:resource="http://purl.org/dc/dcmitype/StillImage" />
        <dc:title></dc:title>
      </cc:Work>
    </rdf:RDF>
  </metadata>
  <defs
     id="defs8" />
  <sodipodi:namedview
     pagecolor="#ffffff"
     bordercolor="#666666"
     borderopacity="1"
     objecttolerance="10"
     gridtolerance="10"
     guidetolerance="10"
     inkscape:pageopacity="0"
     inkscape:pageshadow="2"
     inkscape:window-width="1366"
     inkscape:window-height="705"
     id="namedview6"
     showgrid="false"
     fit-margin-top="0"
     fit-margin-left="0"
     fit-margin-right="0"
     fit-margin-bottom="0"
     inkscape:zoom="13.882353"
     inkscape:cx="8.071777"
     inkscape:cy="8.5"
     inkscape:window-x="-8"
     inkscape:window-y="-8"
     inkscape:window-maximized="1"
     inkscape:current-layer="svg4" />
  <path
     d="M 15.816377,0 H 0.920527 C 0.676387,0 0.442247,0.094447 0.269617,0.262564 0.096987,0.430682 0,0.658692 0,0.896452 v 14.50622 c 0,0.2377 0.096987,0.4657 0.269617,0.6338 0.17263,0.1682 0.40677,0.2626 0.65091,0.2626 h 8.01696 v -6.3159 h -2.17579 v -2.44485 h 2.17579 v -1.83365 c -0.04507,-0.43049 0.00712,-0.86537 0.15289,-1.27415 0.1458,-0.40877 0.3817,-0.78153 0.691,-1.09214 0.3094,-0.3106 0.6848,-0.55153 1.1,-0.70589 0.4151,-0.15435 0.8598,-0.21839 1.3031,-0.18763 0.6513,-0.0039 1.3023,0.02875 1.9498,0.09779 v 2.20038 h -1.3306 c -1.0544,0 -1.2552,0.48897 -1.2552,1.19798 v 1.57286 h 2.5105 l -0.3264,2.4449 h -2.1841 v 6.3403 h 4.2679 c 0.1209,0 0.2406,-0.0232 0.3522,-0.0682 0.1117,-0.0451 0.2132,-0.1111 0.2987,-0.1944 0.0855,-0.0832 0.1533,-0.182 0.1995,-0.2908 0.0463,-0.1088 0.0701,-0.2253 0.0701,-0.343 V 0.896452 c 0,-0.11773 -0.0238,-0.2343 -0.0701,-0.34306 -0.0462,-0.10876 -0.114,-0.20759 -0.1995,-0.290828 -0.0855,-0.083243 -0.187,-0.149275 -0.2987,-0.194326 C 16.056977,0.023187 15.937277,0 15.816377,0 Z"
     id="path2"
     inkscape:connector-curvature="0"
     style="fill:#333333" />
</svg>
