<svg width="17" height="18" viewBox="0 0 17 18" fill="none" xmlns="http://www.w3.org/2000/svg">
<g filter="url(#filter0_i)">
<path d="M8.78169 0.808105C7.19853 0.808105 5.65093 1.28607 4.33458 2.18155C3.01823 3.07703 1.99226 4.34981 1.38642 5.83895C0.780568 7.32808 0.62205 8.96668 0.930909 10.5475C1.23977 12.1284 2.00213 13.5805 3.12159 14.7202C4.24106 15.86 5.66734 16.6361 7.22007 16.9506C8.77281 17.265 10.3823 17.1036 11.8449 16.4868C13.3076 15.87 14.5577 14.8255 15.4373 13.4853C16.3168 12.1451 16.7863 10.5695 16.7863 8.95764C16.7863 7.88743 16.5792 6.82769 16.177 5.83895C15.7747 4.8502 15.1851 3.9518 14.4418 3.19505C13.6985 2.43829 12.8161 1.838 11.8449 1.42845C10.8738 1.0189 9.83287 0.808105 8.78169 0.808105ZM11.3272 13.1563C11.2973 13.2324 11.2518 13.3012 11.1936 13.3579C11.1355 13.4146 11.0661 13.458 10.9901 13.4852C10.9142 13.5124 10.8333 13.5227 10.7531 13.5154C10.6729 13.5082 10.5952 13.4835 10.5251 13.4431L8.35185 11.7236L6.95745 13.034C6.92508 13.0584 6.88723 13.074 6.84737 13.0796C6.80751 13.0851 6.76691 13.0804 6.72932 13.0658L6.99667 10.6299L7.00467 10.6373L7.01028 10.5892C7.01028 10.5892 10.9205 6.96426 11.0798 6.81024C11.2415 6.65621 11.1879 6.6228 11.1879 6.6228C11.1975 6.43536 10.8989 6.6228 10.8989 6.6228L5.71754 10.0163L3.5603 9.26814C3.5603 9.26814 3.22891 9.14752 3.19769 8.88103C3.16487 8.61699 3.57071 8.47356 3.57071 8.47356L12.1492 5.00349C12.1492 5.00349 12.8544 4.68402 12.8544 5.21374L11.3272 13.1563Z" fill="white"/>
</g>
<defs>
<filter id="filter0_i" x="0.7771" y="0.808105" width="16.5092" height="16.7991" filterUnits="userSpaceOnUse" color-interpolation-filters="sRGB">
<feFlood flood-opacity="0" result="BackgroundImageFix"/>
<feBlend mode="normal" in="SourceGraphic" in2="BackgroundImageFix" result="shape"/>
<feColorMatrix in="SourceAlpha" type="matrix" values="0 0 0 0 0 0 0 0 0 0 0 0 0 0 0 0 0 0 127 0" result="hardAlpha"/>
<feOffset dx="0.5" dy="0.5"/>
<feGaussianBlur stdDeviation="0.25"/>
<feComposite in2="hardAlpha" operator="arithmetic" k2="-1" k3="1"/>
<feColorMatrix type="matrix" values="0 0 0 0 0.152941 0 0 0 0 0.145098 0 0 0 0 0.145098 0 0 0 0.5 0"/>
<feBlend mode="normal" in2="shape" result="effect1_innerShadow"/>
</filter>
</defs>
</svg>
