<svg width="51" height="10" viewBox="0 0 51 10" fill="none" xmlns="http://www.w3.org/2000/svg">
  <g filter="url(#filter0_i)">
    <path d="M46.4963 0.842041C49.0673 0.842041 51.0003 2.87476 51.0003 5.42091C51.0003 8.13692 48.8518 9.99978 46.4963 9.99978C44.0666 9.99978 42.0068 7.97799 42.0068 5.42091C42.0068 2.96723 43.9053 0.842041 46.4963 0.842041ZM46.5108 1.66742C44.3678 1.66742 42.8174 3.47504 42.8174 5.42091C42.8174 7.44832 44.4711 9.16525 46.5108 9.16525C48.3821 9.16525 50.188 7.66781 50.188 5.42091C50.1898 3.31965 48.5527 1.66742 46.5108 1.66742ZM48.2153 4.33173V5.11634H44.9463V4.33173H48.2153ZM48.2153 5.80495V6.58956H44.9463V5.80495H48.2153Z" fill="white"/>
    <path d="M32.708 0.842041C30.0953 0.842041 28.2168 2.99854 28.2168 5.42091C28.2168 7.93752 30.2421 9.99978 32.708 9.99978C35.0687 9.99978 37.2103 8.13692 37.2103 5.42091C37.2103 2.85438 35.2593 0.842041 32.708 0.842041ZM32.7191 9.16348C30.6883 9.16348 29.0274 7.4557 29.0274 5.42091C29.0274 4.99257 29.0944 4.58638 29.2249 4.20234L30.4161 4.73969H30.3309V5.28443H30.7533C30.7533 5.39876 30.746 5.34351 30.746 5.64454H30.3326V6.18928H30.8223C31.0292 7.42646 32.0408 8.05952 33.0817 8.05952C33.5639 8.05952 33.999 7.91359 34.2567 7.76795L34.0753 6.91687C33.9175 7.00195 33.5639 7.11628 33.2178 7.11628C32.7066 7.11628 32.1644 6.9151 31.9976 6.18957H33.6349L35.9614 7.23828C35.9341 7.27698 34.9422 9.16407 32.7194 9.16407L32.7191 9.16348ZM32.4162 5.64424L32.4072 5.63686L32.4234 5.64424H32.4162ZM33.816 5.28443H33.883V4.73969H32.6082L32.0898 4.50691C32.1351 4.40529 32.1876 4.31312 32.2494 4.24281C32.4832 3.95095 32.8133 3.82924 33.176 3.82924C33.5079 3.82924 33.816 3.92879 34.0118 4.01387L34.2221 3.14063C33.95 3.01863 33.5511 2.91169 33.0924 2.91169C32.3851 2.91169 31.7834 3.20326 31.3535 3.69276C31.2576 3.80765 31.1732 3.93194 31.1014 4.06379L29.6218 3.39735C30.7933 1.61011 32.4812 1.66919 32.717 1.66919C34.7661 1.66919 36.398 3.33442 36.398 5.42446C36.398 5.76979 36.36 6.09475 36.2837 6.40109L33.816 5.28443Z" fill="white"/>
    <path d="M20.1365 4.28358V6.1559H19.6236V8.38064H18.2255V6.15767H17.7123V4.28358C17.7123 4.20234 17.7413 4.13233 17.7958 4.07502C17.8224 4.04712 17.8542 4.02503 17.8895 4.0101C17.9247 3.99517 17.9625 3.9877 18.0007 3.98817H19.8484C19.9227 3.98817 19.99 4.01771 20.0497 4.07502C20.106 4.1341 20.1368 4.20234 20.1368 4.28358H20.1365ZM18.296 3.10755C18.296 2.67743 18.5046 2.46119 18.9215 2.46119C19.3384 2.46119 19.547 2.67713 19.547 3.10755C19.547 3.53235 19.3384 3.74445 18.9215 3.74445C18.5046 3.74445 18.296 3.53205 18.296 3.10755ZM18.9163 0.842041C21.4872 0.842041 23.4203 2.87476 23.4203 5.42091C23.4203 8.13692 21.2717 9.99978 18.9163 9.99978C16.4866 9.99978 14.4268 7.97799 14.4268 5.42091C14.4268 2.96723 16.3253 0.842041 18.9163 0.842041ZM18.9308 1.66742C16.7877 1.66742 15.2373 3.47504 15.2373 5.42091C15.2373 7.44832 16.891 9.16525 18.9308 9.16525C20.802 9.16525 22.6079 7.66781 22.6079 5.42091C22.6097 3.31965 20.9726 1.66742 18.9308 1.66742Z" fill="white"/>
    <path d="M5.09402 4.66126L4.49174 4.9803C4.32086 4.61872 4.03423 4.61222 3.99391 4.61222C3.59268 4.61222 3.39163 4.88193 3.39163 5.42164C3.39163 5.85679 3.55874 6.23107 3.99391 6.23107C4.25646 6.23107 4.44097 6.1002 4.54831 5.83847L5.10214 6.12472C4.99016 6.33712 4.63622 6.84434 3.92167 6.84434C3.51174 6.84434 2.58048 6.6538 2.58048 5.42164C2.58048 4.33808 3.36001 3.99894 3.8973 3.99894C4.45432 3.99865 4.85293 4.21962 5.09373 4.66096L5.09402 4.66126ZM7.68792 4.66126L7.09348 4.9803C6.92115 4.61517 6.62697 4.61222 6.58752 4.61222C6.186 4.61222 5.98524 4.88193 5.98524 5.42164C5.98524 5.85649 6.15264 6.23107 6.58752 6.23107C6.84949 6.23107 7.03458 6.1002 7.14134 5.83847L7.70358 6.12472C7.66558 6.19385 7.3157 6.84434 6.5234 6.84434C6.11202 6.84434 5.1825 6.66208 5.1825 5.42164C5.1825 4.33837 5.96174 3.99894 6.49932 3.99894C7.05605 3.99865 7.45264 4.21962 7.68792 4.66096V4.66126ZM5.12535 0.842773C2.5358 0.842773 0.636719 2.96707 0.636719 5.42164C0.636719 7.97872 2.69652 10.0005 5.12535 10.0005C7.48136 10.0005 9.63022 8.13824 9.63022 5.42164C9.63022 2.87609 7.69691 0.842773 5.12535 0.842773ZM5.1413 9.16628C3.10065 9.16628 1.44787 7.44846 1.44787 5.42164C1.44787 3.47518 2.99679 1.66874 5.14159 1.66874C7.18196 1.66874 8.81907 3.32039 8.81907 5.42164C8.81907 7.66854 7.01166 9.16628 5.14101 9.16628H5.1413Z" fill="white"/>
  </g>
  <defs>
    <filter id="filter0_i" x="0.636719" y="0.842041" width="50.8636" height="9.65847" filterUnits="userSpaceOnUse" color-interpolation-filters="sRGB">
      <feFlood flood-opacity="0" result="BackgroundImageFix"/>
      <feBlend mode="normal" in="SourceGraphic" in2="BackgroundImageFix" result="shape"/>
      <feColorMatrix in="SourceAlpha" type="matrix" values="0 0 0 0 0 0 0 0 0 0 0 0 0 0 0 0 0 0 127 0" result="hardAlpha"/>
      <feOffset dx="0.5" dy="0.5"/>
      <feGaussianBlur stdDeviation="0.25"/>
      <feComposite in2="hardAlpha" operator="arithmetic" k2="-1" k3="1"/>
      <feColorMatrix type="matrix" values="0 0 0 0 0.152941 0 0 0 0 0.145098 0 0 0 0 0.145098 0 0 0 0.5 0"/>
      <feBlend mode="normal" in2="shape" result="effect1_innerShadow"/>
    </filter>
  </defs>
</svg>
