<svg width="22" height="14" viewBox="0 0 22 14" fill="none" xmlns="http://www.w3.org/2000/svg">
<path d="M1.29525 1.61557L9.89969 6.23788C10.1888 6.39276 10.5628 6.46619 10.9391 6.46619C11.3154 6.46619 11.6894 6.39276 11.9785 6.23788L20.583 1.61557C21.144 1.31384 21.674 0.140198 20.6449 0.140198H1.23444C0.205351 0.140198 0.735385 1.31384 1.29525 1.61557ZM20.8434 4.14298L11.9785 8.763C11.5885 8.96721 11.3154 8.9913 10.9391 8.9913C10.5628 8.9913 10.2898 8.96721 9.89969 8.763C9.50962 8.55879 1.71629 4.4734 1.07956 4.14184C0.632132 3.9078 0.636721 4.18199 0.636721 4.39309V12.76C0.636721 13.2419 1.28607 13.9073 1.78398 13.9073H20.1401C20.638 13.9073 21.2874 13.2419 21.2874 12.76V4.39424C21.2874 4.18314 21.292 3.90894 20.8434 4.14298Z" fill="#333333"/>
</svg>