<svg width="38" height="11" viewBox="0 0 38 11" fill="none" xmlns="http://www.w3.org/2000/svg">
  <g filter="url(#filter0_i)">
    <path d="M0.948984 10.0002H7.17599V8.86924H2.24898V0.900244H0.948984V10.0002ZM12.6107 10.1042C15.3797 10.1042 17.4337 8.12824 17.4337 5.45024C17.4337 2.77224 15.3797 0.796244 12.6107 0.796244C9.8157 0.796244 7.7617 2.78524 7.7617 5.45024C7.7617 8.11524 9.8157 10.1042 12.6107 10.1042ZM12.6107 8.94724C10.5697 8.94724 9.0617 7.46524 9.0617 5.45024C9.0617 3.43524 10.5697 1.95324 12.6107 1.95324C14.6257 1.95324 16.1337 3.43524 16.1337 5.45024C16.1337 7.46524 14.6257 8.94724 12.6107 8.94724ZM22.9697 0.900244H19.4207V10.0002H20.7207V7.24424H22.9697C25.3357 7.24424 26.7657 6.04824 26.7657 4.07224C26.7657 2.09624 25.3357 0.900244 22.9697 0.900244ZM22.9307 6.11324H20.7207V2.03124H22.9307C24.5947 2.03124 25.4657 2.77224 25.4657 4.07224C25.4657 5.37224 24.5947 6.11324 22.9307 6.11324ZM28.6755 10.0002H32.5105C35.4355 10.0002 37.4245 8.15424 37.4245 5.45024C37.4245 2.74624 35.4355 0.900244 32.5105 0.900244H28.6755V10.0002ZM29.9755 8.86924V2.03124H32.4325C34.6815 2.03124 36.1245 3.40924 36.1245 5.45024C36.1245 7.49124 34.6815 8.86924 32.4325 8.86924H29.9755Z" fill="white"/>
  </g>
  <defs>
    <filter id="filter0_i" x="0.949219" y="0.796143" width="36.9756" height="9.808" filterUnits="userSpaceOnUse" color-interpolation-filters="sRGB">
      <feFlood flood-opacity="0" result="BackgroundImageFix"/>
      <feBlend mode="normal" in="SourceGraphic" in2="BackgroundImageFix" result="shape"/>
      <feColorMatrix in="SourceAlpha" type="matrix" values="0 0 0 0 0 0 0 0 0 0 0 0 0 0 0 0 0 0 127 0" result="hardAlpha"/>
      <feOffset dx="0.5" dy="0.5"/>
      <feGaussianBlur stdDeviation="0.25"/>
      <feComposite in2="hardAlpha" operator="arithmetic" k2="-1" k3="1"/>
      <feColorMatrix type="matrix" values="0 0 0 0 0.152941 0 0 0 0 0.145098 0 0 0 0 0.145098 0 0 0 0.5 0"/>
      <feBlend mode="normal" in2="shape" result="effect1_innerShadow"/>
    </filter>
  </defs>
</svg>
