<svg width="19" height="15" viewBox="0 0 19 15" fill="none" xmlns="http://www.w3.org/2000/svg">
<path d="M18.2244 2.38996C17.551 2.67596 16.8388 2.86503 16.11 2.95127C16.8789 2.50163 17.455 1.79426 17.7316 0.96038C17.0091 1.38142 16.2182 1.67806 15.3933 1.83743C14.8418 1.25206 14.1076 0.862411 13.3056 0.729587C12.5035 0.596763 11.6792 0.728278 10.9618 1.1035C10.2443 1.47873 9.67443 2.07645 9.34142 2.80291C9.00841 3.52937 8.93113 4.34349 9.1217 5.11758C7.66081 5.04524 6.23181 4.67287 4.92752 4.02466C3.62323 3.37644 2.47283 2.46688 1.55105 1.35505C1.22774 1.90774 1.05785 2.53364 1.05828 3.17054C1.05713 3.762 1.20541 4.34456 1.4899 4.86636C1.7744 5.38816 2.18628 5.83299 2.68888 6.16126C2.10471 6.1457 1.53302 5.99225 1.02244 5.71397V5.75782C1.02682 6.58653 1.32347 7.38833 1.86222 8.02758C2.40096 8.66684 3.14873 9.10431 3.97903 9.266C3.65941 9.36122 3.32757 9.41142 2.9935 9.4151C2.76225 9.41246 2.53158 9.39193 2.30363 9.35371C2.54008 10.0666 2.99764 10.6896 3.61266 11.136C4.22768 11.5824 4.96956 11.8301 5.73507 11.8445C4.44241 12.8402 2.84646 13.3836 1.20163 13.3881C0.902151 13.3891 0.602908 13.3715 0.305695 13.3355C1.98506 14.3969 3.94213 14.9604 5.94113 14.958C7.3206 14.9721 8.68909 14.7169 9.96667 14.2073C11.2443 13.6978 12.4053 12.9442 13.3821 11.9905C14.3588 11.0369 15.1316 9.9022 15.6554 8.65286C16.1791 7.40353 16.4433 6.06455 16.4325 4.71413V4.2493C17.1356 3.73606 17.7419 3.10688 18.2244 2.38996Z" fill="#333333"/>
</svg>
