<svg width="27" height="25" viewBox="0 0 27 25" fill="none" xmlns="http://www.w3.org/2000/svg">
<path d="M20.7453 5.38746L17.9258 4.64112C17.8014 4.59966 17.5941 4.64111 17.4697 4.7655L6.12608 16.1091C6.0017 16.2335 5.96024 16.3579 6.00171 16.5653L6.74804 19.3848C6.83097 19.7165 7.28707 19.8409 7.53585 19.5921L20.9112 6.21672C21.2429 5.88502 21.077 5.47038 20.7453 5.38746Z" fill="#333333"/>
<path d="M19.2941 19.3797L20.0405 16.5602C20.0819 16.4358 20.0405 16.2285 19.9161 16.1041L8.57243 4.76048C8.44805 4.63609 8.32365 4.59464 8.11633 4.63611L5.29683 5.38244C4.96513 5.46537 4.84073 5.92147 5.08951 6.17025L18.4649 19.5456C18.7966 19.8773 19.2112 19.7114 19.2941 19.3797Z" fill="#333333"/>
</svg>
