<svg width="18" height="18" viewBox="0 0 18 18" fill="none" xmlns="http://www.w3.org/2000/svg">
<path d="M8.70129 0.299316C7.00634 0.299316 5.34946 0.811104 3.94016 1.76996C2.53086 2.72882 1.43244 4.09168 0.783812 5.68619C0.135183 7.28071 -0.0345281 9.03528 0.29614 10.728C0.626809 12.4207 1.443 13.9756 2.64152 15.196C3.84003 16.4164 5.36702 17.2475 7.0294 17.5842C8.69178 17.9209 10.4149 17.7481 11.9808 17.0876C13.5467 16.4272 14.8852 15.3087 15.8268 13.8737C16.7685 12.4386 17.2711 10.7515 17.2711 9.0256C17.2711 7.87965 17.0494 6.74492 16.6188 5.68619C16.1881 4.62747 15.5568 3.6655 14.7611 2.85519C13.9653 2.04488 13.0206 1.4021 11.9808 0.963565C10.9411 0.525028 9.8267 0.299316 8.70129 0.299316ZM11.4265 13.5214C11.3945 13.6029 11.3458 13.6765 11.2835 13.7373C11.2213 13.798 11.147 13.8445 11.0657 13.8736C10.9843 13.9027 10.8978 13.9137 10.8119 13.906C10.7261 13.8982 10.6428 13.8718 10.5678 13.8285L8.24109 11.9873L6.74823 13.3905C6.71358 13.4165 6.67305 13.4333 6.63038 13.4393C6.5877 13.4452 6.54424 13.4401 6.50399 13.4245L6.79022 10.8162L6.79879 10.8241L6.80479 10.7726C6.80479 10.7726 10.9911 6.89115 11.1617 6.72622C11.3348 6.5613 11.2774 6.52552 11.2774 6.52552C11.2877 6.32481 10.968 6.52552 10.968 6.52552L5.42077 10.1591L3.1112 9.35807C3.1112 9.35807 2.75641 9.22892 2.72299 8.94357C2.68785 8.66084 3.12234 8.50726 3.12234 8.50726L12.3066 4.79161C12.3066 4.79161 13.0616 4.44954 13.0616 5.01675L11.4265 13.5214Z" fill="#333333"/>
</svg>
