<svg width="18" height="17" viewBox="0 0 18 17" fill="none" xmlns="http://www.w3.org/2000/svg">
  <g filter="url(#filter0_i)">
    <path d="M16.7446 0.700928H1.84875C1.60461 0.700928 1.37047 0.795375 1.19784 0.963492C1.02521 1.13161 0.928223 1.35962 0.928223 1.59738V16.1036C0.928223 16.3413 1.02521 16.5693 1.19784 16.7374C1.37047 16.9056 1.60461 17 1.84875 17H9.86571V10.6841H7.68992V8.23925H9.86571V6.4056C9.82064 5.97511 9.87283 5.54023 10.0186 5.13145C10.1644 4.72268 10.4003 4.34992 10.7096 4.03931C11.019 3.72871 11.3944 3.48778 11.8096 3.33342C12.2247 3.17907 12.6694 3.11503 13.1127 3.14579C13.764 3.14189 14.415 3.17454 15.0625 3.24358V5.44396H13.7319C12.6775 5.44396 12.4767 5.93293 12.4767 6.64194V8.2148H14.9872L14.6608 10.6597H12.4767V17H16.7446C16.8655 17 16.9852 16.9768 17.0968 16.9318C17.2085 16.8867 17.31 16.8207 17.3955 16.7374C17.481 16.6542 17.5488 16.5554 17.595 16.4466C17.6413 16.3378 17.6651 16.2213 17.6651 16.1036V1.59738C17.6651 1.47965 17.6413 1.36308 17.595 1.25432C17.5488 1.14556 17.481 1.04673 17.3955 0.963492C17.31 0.880249 17.2085 0.814217 17.0968 0.769166C16.9852 0.724115 16.8655 0.700928 16.7446 0.700928Z" fill="white"/>
  </g>
  <defs>
    <filter id="filter0_i" x="0.928223" y="0.700928" width="17.2369" height="16.7991" filterUnits="userSpaceOnUse" color-interpolation-filters="sRGB">
      <feFlood flood-opacity="0" result="BackgroundImageFix"/>
      <feBlend mode="normal" in="SourceGraphic" in2="BackgroundImageFix" result="shape"/>
      <feColorMatrix in="SourceAlpha" type="matrix" values="0 0 0 0 0 0 0 0 0 0 0 0 0 0 0 0 0 0 127 0" result="hardAlpha"/>
      <feOffset dx="0.5" dy="0.5"/>
      <feGaussianBlur stdDeviation="0.25"/>
      <feComposite in2="hardAlpha" operator="arithmetic" k2="-1" k3="1"/>
      <feColorMatrix type="matrix" values="0 0 0 0 0.152941 0 0 0 0 0.145098 0 0 0 0 0.145098 0 0 0 0.5 0"/>
      <feBlend mode="normal" in2="shape" result="effect1_innerShadow"/>
    </filter>
  </defs>
</svg>
