<svg width="30" height="44" viewBox="0 0 30 44" fill="none" xmlns="http://www.w3.org/2000/svg">
<path d="M1.47207 14.7773L4.29157 15.5237C4.41596 15.5651 4.62329 15.5237 4.74768 15.3993L16.0913 4.05565C16.2157 3.93126 16.2572 3.80686 16.2157 3.59954L15.4694 0.780047C15.3864 0.448341 14.9303 0.323944 14.6816 0.572724L1.30621 13.9481C0.974503 14.2798 1.14037 14.6944 1.47207 14.7773Z" fill="white"/>
<path d="M28.5885 13.9136L25.769 13.1672C25.6446 13.1258 25.4373 13.1672 25.3129 13.2916L13.9692 24.6353C13.8448 24.7597 13.8034 24.8841 13.8448 25.0914L14.5912 27.9109C14.6741 28.2426 15.1302 28.367 15.379 28.1182L28.7543 14.7428C29.086 14.4111 28.9202 13.9965 28.5885 13.9136Z" fill="white"/>
<path d="M14.5962 0.78506L13.8499 3.60456C13.8084 3.72895 13.8498 3.93627 13.9742 4.06066L25.3179 15.4043C25.4423 15.5287 25.5667 15.5702 25.774 15.5287L28.5935 14.7824C28.9252 14.6994 29.0496 14.2433 28.8008 13.9945L15.4255 0.619197C15.0938 0.287491 14.6791 0.453354 14.5962 0.78506Z" fill="white"/>
<path d="M13.3036 43.3447L15.825 41.8788C15.9423 41.8201 16.0596 41.6442 16.0596 41.4683L16.0596 35.426C16.0596 35.25 16.0009 35.1328 15.825 35.0155L13.3036 33.5495C13.0104 33.3736 12.5999 33.6082 12.5999 33.96L12.5999 42.8756C12.5999 43.3447 13.0104 43.5206 13.3036 43.3447Z" fill="white"/>
</svg>
